<?xml version="1.0" encoding="utf-8"?>
<!-- Generator: Adobe Illustrator 23.0.0, SVG Export Plug-In . SVG Version: 6.00 Build 0)  -->
<svg version="1.1" id="Layer_1" xmlns="http://www.w3.org/2000/svg" xmlns:xlink="http://www.w3.org/1999/xlink" x="0px" y="0px"
	 viewBox="0 0 36 34" style="enable-background:new 0 0 36 34;" xml:space="preserve">
<style type="text/css">
	.st0{fill:#FFFFFF;}
</style>
<g>
	<path class="st0" d="M23.12,15c0.15-0.29,0.02-0.65-0.27-0.8l-8.76-4.32l8.76-4.32c0.29-0.15,0.42-0.5,0.27-0.8
		c-0.15-0.3-0.51-0.41-0.8-0.27l-9.58,4.72L9.56,7.65c0.17-0.19,0.31-0.42,0.42-0.66c0.25-0.6,0.24-1.26-0.04-1.88
		C9.58,4.34,8.83,3.73,7.9,3.44h0C6.18,2.91,4.39,3.57,3.8,4.94c-0.25,0.6-0.24,1.26,0.04,1.88c0.36,0.77,1.1,1.38,2.03,1.67
		c0.89,0.28,1.8,0.23,2.56-0.07c0,0,0.01,0,0.01,0.01l2.95,1.46l-2.95,1.46c0,0-0.01,0-0.01,0.01c-0.75-0.3-1.67-0.35-2.56-0.07
		c-0.94,0.29-1.68,0.9-2.03,1.67c-0.28,0.61-0.3,1.28-0.04,1.88c0.45,1.05,1.6,1.68,2.89,1.68c0.39,0,0.8-0.06,1.21-0.19
		c0.94-0.29,1.68-0.9,2.03-1.67c0.28-0.61,0.3-1.28,0.04-1.88c-0.1-0.24-0.24-0.46-0.42-0.66l3.19-1.57l9.58,4.73
		C22.61,15.41,22.97,15.3,23.12,15z M8.88,6.52C8.55,7.32,7.33,7.69,6.24,7.35C5.62,7.16,5.14,6.78,4.93,6.32
		C4.83,6.1,4.74,5.77,4.9,5.4c0.25-0.59,1-0.96,1.81-0.96c0.27,0,0.56,0.04,0.83,0.13c0,0,0,0,0,0c0.62,0.19,1.09,0.57,1.31,1.04
		C8.95,5.83,9.04,6.16,8.88,6.52z M8.85,14.15C8.64,14.62,8.16,15,7.54,15.19c0,0,0,0,0,0c-1.09,0.34-2.31-0.04-2.64-0.83
		c-0.16-0.37-0.07-0.7,0.03-0.91c0.22-0.47,0.69-0.84,1.31-1.04c0.27-0.09,0.56-0.13,0.83-0.13c0.82,0,1.56,0.36,1.81,0.96
		C9.04,13.61,8.95,13.94,8.85,14.15z"/>
	<path class="st0" d="M18.19,9.39c-0.33,0-0.61,0.27-0.61,0.61s0.27,0.61,0.61,0.61h1c0.33,0,0.61-0.27,0.61-0.61
		s-0.27-0.61-0.61-0.61H18.19z"/>
	<path class="st0" d="M16.04,29.72h-2.01c-0.33,0-0.61,0.27-0.61,0.61s0.27,0.61,0.61,0.61h2.01c0.33,0,0.61-0.27,0.61-0.61
		S16.37,29.72,16.04,29.72z"/>
	<path class="st0" d="M6.61,27.71V25.7c0-0.33-0.27-0.61-0.61-0.61s-0.61,0.27-0.61,0.61v2.01c0,0.33,0.27,0.61,0.61,0.61
		S6.61,28.05,6.61,27.71z"/>
	<path class="st0" d="M20.6,10c0,0.33,0.27,0.61,0.61,0.61h2.01c0.33,0,0.61-0.27,0.61-0.61s-0.27-0.61-0.61-0.61H21.2
		C20.87,9.39,20.6,9.67,20.6,10z"/>
	<path class="st0" d="M5.39,23.69c0,0.33,0.27,0.61,0.61,0.61s0.61-0.27,0.61-0.61v-2.01c0-0.33-0.27-0.61-0.61-0.61
		s-0.61,0.27-0.61,0.61V23.69z"/>
	<path class="st0" d="M12.02,29.72h-2.01c-0.33,0-0.61,0.27-0.61,0.61s0.27,0.61,0.61,0.61h2.01c0.33,0,0.61-0.27,0.61-0.61
		S12.35,29.72,12.02,29.72z"/>
	<path class="st0" d="M8,29.72H7.3c-0.22,0-0.43-0.13-0.56-0.35c-0.17-0.29-0.55-0.38-0.83-0.2s-0.38,0.54-0.2,0.83
		c0.35,0.59,0.95,0.94,1.6,0.94H8c0.33,0,0.61-0.27,0.61-0.61S8.33,29.72,8,29.72z"/>
	<path class="st0" d="M31.16,20.13c-0.33,0-0.61,0.27-0.61,0.61v2.01c0,0.33,0.27,0.61,0.61,0.61s0.61-0.27,0.61-0.61v-2.01
		C31.76,20.4,31.49,20.13,31.16,20.13z"/>
	<path class="st0" d="M31.16,16.11c-0.33,0-0.61,0.27-0.61,0.61v2.01c0,0.33,0.27,0.61,0.61,0.61s0.61-0.27,0.61-0.61v-2.01
		C31.76,16.38,31.49,16.11,31.16,16.11z"/>
	<path class="st0" d="M31.16,24.15c-0.33,0-0.61,0.27-0.61,0.61v2.01c0,0.33,0.27,0.61,0.61,0.61s0.61-0.27,0.61-0.61v-2.01
		C31.76,24.42,31.49,24.15,31.16,24.15z"/>
	<path class="st0" d="M31.16,12.09c-0.33,0-0.61,0.27-0.61,0.61v2.01c0,0.33,0.27,0.61,0.61,0.61s0.61-0.27,0.61-0.61V12.7
		C31.76,12.36,31.49,12.09,31.16,12.09z"/>
	<path class="st0" d="M31.16,28.21c-0.33,0-0.61,0.32-0.61,0.65c0,0.41-0.25,0.77-0.58,0.84c-0.33,0.07-0.53,0.4-0.46,0.72
		c0.06,0.28,0.31,0.48,0.59,0.48c0.04,0,0.09,0,0.13-0.01c0.88-0.2,1.53-1.05,1.53-2.02v-0.09C31.76,28.44,31.49,28.21,31.16,28.21z
		"/>
	<path class="st0" d="M28.09,29.72h-2.01c-0.33,0-0.61,0.27-0.61,0.61s0.27,0.61,0.61,0.61h2.01c0.33,0,0.61-0.27,0.61-0.61
		S28.43,29.72,28.09,29.72z"/>
	<path class="st0" d="M30.44,11c0.11,0.21,0.32,0.32,0.54,0.32c0.1,0,0.19-0.02,0.28-0.07c0.3-0.16,0.41-0.52,0.25-0.82
		c-0.34-0.64-0.97-1.04-1.65-1.04h-0.61c-0.33,0-0.61,0.27-0.61,0.61s0.27,0.61,0.61,0.61h0.61C30.08,10.61,30.31,10.76,30.44,11z"
		/>
	<path class="st0" d="M24.08,29.72h-2.01c-0.33,0-0.61,0.27-0.61,0.61s0.27,0.61,0.61,0.61h2.01c0.33,0,0.61-0.27,0.61-0.61
		S24.41,29.72,24.08,29.72z"/>
	<path class="st0" d="M27.84,10c0-0.33-0.27-0.61-0.61-0.61h-2.01c-0.33,0-0.61,0.27-0.61,0.61s0.27,0.61,0.61,0.61h2.01
		C27.56,10.61,27.84,10.33,27.84,10z"/>
	<path class="st0" d="M20.06,29.72h-2.01c-0.33,0-0.61,0.27-0.61,0.61s0.27,0.61,0.61,0.61h2.01c0.33,0,0.61-0.27,0.61-0.61
		S20.39,29.72,20.06,29.72z"/>
	<path class="st0" d="M6,20.27c0.33,0,0.61-0.27,0.61-0.61v-1c0-0.33-0.27-0.61-0.61-0.61s-0.61,0.27-0.61,0.61v1
		C5.39,19.99,5.67,20.27,6,20.27z"/>
</g>
</svg>
