<?xml version="1.0" encoding="utf-8"?>
<!-- Generator: Adobe Illustrator 23.0.0, SVG Export Plug-In . SVG Version: 6.00 Build 0)  -->
<svg version="1.1" id="Layer_1" xmlns="http://www.w3.org/2000/svg" xmlns:xlink="http://www.w3.org/1999/xlink" x="0px" y="0px"
	 viewBox="0 0 36 34" style="enable-background:new 0 0 36 34;" xml:space="preserve">
<style type="text/css">
	.st0{fill:#FFFFFF;}
</style>
<g>
	<path class="st0" d="M30.92,4.1H5.08C3.93,4.1,3,5.03,3,6.18v17.78c0,1.15,0.93,2.08,2.08,2.08h9.7v3.28h-4.25
		c-0.33,0-0.59,0.26-0.59,0.59c0,0.33,0.26,0.59,0.59,0.59h14.95c0.33,0,0.59-0.26,0.59-0.59c0-0.33-0.26-0.59-0.59-0.59h-4.25
		v-3.28h9.7c1.15,0,2.08-0.93,2.08-2.08V6.18C33,5.03,32.07,4.1,30.92,4.1z M20.04,29.32h-4.08v-3.28h4.08V29.32z M31.82,23.96
		c0,0.5-0.4,0.9-0.9,0.9H5.08c-0.5,0-0.9-0.4-0.9-0.9V6.18c0-0.5,0.4-0.9,0.9-0.9h25.84c0.5,0,0.9,0.4,0.9,0.9V23.96z"/>
	<path class="st0" d="M30.32,6.15H5.68c-0.33,0-0.59,0.26-0.59,0.59V23.4c0,0.33,0.26,0.59,0.59,0.59h24.63
		c0.33,0,0.59-0.26,0.59-0.59V6.74C30.91,6.41,30.64,6.15,30.32,6.15z M29.73,22.81H6.28V7.33h23.45V22.81z"/>
</g>
</svg>
