<svg id="Layer_1" xmlns="http://www.w3.org/2000/svg" xmlns:xlink="http://www.w3.org/1999/xlink" viewBox="0 0 119 65">
  <style>
    .st16{clip-path:url(#SVGID_13_);fill:#fff}.st43{clip-path:url(#SVGID_23_)}.st43,.st86{fill:#fff}
  </style>
  <defs>
    <path id="SVGID_20_" d="M15.03-327.17h37.58V-265H15.03z"/>
  </defs>
  <clipPath id="SVGID_2_">
    <use xlink:href="#SVGID_20_" overflow="visible"/>
  </clipPath>
  <path d="M56.14 28.38c0-.95-.82-1.73-1.84-1.73H19.16c-1.01 0-1.84.77-1.84 1.73v40.79c0 1.02.17 2.02.53 2.98 2.5 6.58 12.97 8.71 23.4 4.76 8.87-3.36 14.84-10.05 14.89-16.02V28.38z" clip-path="url(#SVGID_2_)" fill="#fff"/>
  <path d="M32.21 53.07c10.42-3.95 20.9-1.83 23.39 4.75.02.05.03.1.05.14V28.73c0-.93-.8-1.68-1.8-1.68H19.6c-.99 0-1.8.75-1.8 1.68v37.4c1.59-5.1 6.99-10.24 14.41-13.06" clip-path="url(#SVGID_2_)" fill="#0060a9"/>
  <path d="M41.25 76.9C51.67 72.95 58.1 64.41 55.6 57.83c-2.5-6.58-12.97-8.71-23.39-4.75-10.42 3.95-16.85 12.49-14.36 19.07 2.5 6.58 12.97 8.7 23.4 4.75" clip-path="url(#SVGID_2_)" fill="#fff"/>
  <path d="M41.09 76.55c10.1-3.83 16.52-12.29 14.1-18.67-2.42-6.38-12.76-8.26-22.86-4.43S15.85 65.61 18.27 71.98c2.42 6.39 12.71 8.4 22.82 4.57" clip-path="url(#SVGID_2_)" fill="#0060a9"/>
  <path d="M20.23 65.86s5.86 3.74 6.8 9.16c0 0 3.89-16.29 24.19-19.69 0 0-17.27-.58-24.42 13.64.01 0-3.54-3.59-6.57-3.11" clip-path="url(#SVGID_2_)" fill="#fff"/>
  <path d="M47.9 59.75c.53-.2.8-.8.59-1.33-.2-.53-.79-.8-1.32-.6-.53.2-.8.79-.6 1.33.21.53.8.8 1.33.6" clip-path="url(#SVGID_2_)" fill="#fff"/>
  <path d="M44.18 59.19s-2.08 3.9 1.72 4.24c0 0 2.38.26 6.07-2.75 0 0-1.64 11.7-21.28 11.85 0 0 15.16-2.42 18.7-9.1 0 0-5.18 3.45-6.79-.39 0-.01-.76-1.84 1.58-3.85M33.91 48.03l.18.79c.04.19.08.38.11.57h.01c.04-.19.09-.38.14-.56l.23-.79h.36l.22.77c.05.2.1.39.14.58h.01c.03-.19.07-.38.12-.58l.19-.77h.43l-.55 1.74h-.41l-.21-.71c-.05-.18-.09-.35-.13-.56h-.01c-.04.21-.08.39-.13.56l-.22.71h-.41l-.51-1.74h.44zM36.57 48.03l.18.79.12.57h.01c.04-.19.09-.38.14-.56l.23-.79h.36l.22.77c.05.2.1.39.14.58h.01c.02-.19.07-.38.11-.58l.19-.77h.43l-.55 1.74h-.41l-.21-.71c-.05-.18-.09-.35-.13-.56h-.01c-.04.21-.08.39-.13.56l-.22.71h-.41l-.51-1.74h.44zM39.23 48.03l.18.79.12.57h.01c.04-.19.09-.38.14-.56l.23-.79h.36l.22.77c.05.2.1.39.14.58h.01c.02-.19.07-.38.12-.58l.19-.77h.43l-.55 1.74h-.41l-.21-.71c-.05-.18-.09-.35-.13-.56h-.01c-.04.21-.08.39-.13.56l-.22.71h-.42l-.51-1.74h.44zM41.36 49.53c0-.16.11-.28.27-.28.16 0 .27.11.27.28 0 .16-.11.28-.27.28-.16 0-.27-.12-.27-.28M42.19 48.55c0-.2-.01-.37-.01-.52h.38l.02.26h.01c.08-.14.24-.3.54-.3.23 0 .41.13.48.32h.01c.06-.1.13-.17.21-.22.1-.07.21-.1.36-.1.29 0 .58.2.58.75v1.02h-.43v-.96c0-.29-.1-.46-.31-.46-.15 0-.26.11-.31.23-.01.04-.02.1-.02.14v1.04h-.43v-1.01c0-.24-.1-.42-.3-.42-.16 0-.28.13-.32.25-.01.05-.02.1-.02.15v1.03h-.43v-1.2zM45.13 49.36c.1.06.29.13.44.13.19 0 .28-.08.28-.2 0-.12-.07-.17-.29-.25-.34-.11-.48-.3-.48-.51 0-.31.25-.54.66-.54.19 0 .36.05.46.1l-.09.31a.783.783 0 0 0-.37-.1c-.16 0-.24.08-.24.19s.08.16.3.24c.32.11.46.27.46.53 0 .32-.25.55-.71.55-.21 0-.4-.05-.53-.12l.11-.33zM47.84 49.72c-.09.04-.28.09-.49.09-.54 0-.9-.35-.9-.89 0-.52.36-.93.97-.93.16 0 .33.04.43.08l-.08.33a.647.647 0 0 0-.33-.07c-.34 0-.54.25-.53.56 0 .36.23.56.53.56.15 0 .26-.03.35-.07l.05.34zM48.02 49.53c0-.16.11-.28.27-.28.16 0 .27.11.27.28 0 .16-.11.28-.27.28-.16 0-.27-.12-.27-.28M50.49 48.89c0 .64-.45.93-.89.93-.49 0-.87-.34-.87-.9 0-.57.38-.92.9-.92.52-.01.86.36.86.89m-1.31.01c0 .34.17.59.43.59.25 0 .43-.24.43-.6 0-.27-.12-.59-.42-.59-.31.01-.44.32-.44.6M50.79 48.59c0-.24 0-.41-.01-.56h.38l.02.33h.01c.09-.24.29-.37.48-.37.04 0 .07 0 .1.01v.41c-.04-.01-.08-.01-.13-.01-.21 0-.35.13-.39.33-.01.04-.01.09-.01.13v.9h-.44v-1.17zM53.53 49.52c0 .36-.08.62-.26.79-.18.16-.43.21-.67.21-.22 0-.46-.05-.61-.14l.1-.33c.11.06.3.13.51.13.29 0 .5-.15.5-.53v-.15h-.01c-.1.15-.27.26-.51.26-.43 0-.74-.36-.74-.85 0-.57.37-.92.79-.92.27 0 .42.13.5.27h.01l.02-.23h.38c-.01.12-.01.26-.01.5v.99zm-.44-.79c0-.04 0-.08-.01-.12-.05-.16-.17-.28-.36-.28-.25 0-.43.21-.43.57 0 .3.15.54.43.54.16 0 .31-.11.36-.27.01-.04.02-.1.02-.15v-.29zM23.3 48.3c-.02-.53-.04-1.16-.04-1.8h-.01c-.14.56-.32 1.18-.49 1.69l-.53 1.71h-.77l-.47-1.69c-.14-.52-.29-1.14-.4-1.71h-.01c-.02.59-.05 1.27-.07 1.81l-.09 1.66h-.92l.28-4.38h1.32l.43 1.46c.14.51.27 1.05.37 1.56h.03c.12-.51.27-1.08.42-1.57l.46-1.46h1.3l.23 4.38h-.96l-.08-1.66zM24.87 48.96c.26.14.68.27 1.1.27.45 0 .69-.19.69-.47 0-.27-.21-.43-.73-.61-.73-.26-1.21-.66-1.21-1.3 0-.75.63-1.31 1.66-1.31.5 0 .86.1 1.12.22l-.22.79c-.17-.08-.49-.21-.91-.21-.43 0-.64.2-.64.42 0 .28.24.4.81.62.77.29 1.13.69 1.13 1.31 0 .73-.56 1.36-1.76 1.36-.5 0-.99-.14-1.24-.27l.2-.82zM31.29 49.86c-.17.09-.59.19-1.12.19-1.51 0-2.29-.95-2.29-2.19 0-1.49 1.06-2.32 2.39-2.32.51 0 .9.1 1.08.2l-.21.78c-.19-.09-.47-.16-.83-.16-.78 0-1.39.47-1.39 1.45 0 .88.52 1.43 1.4 1.43.31 0 .63-.06.83-.14l.14.76zM19.39 30.01c.14-.02.32-.04.57-.04.28 0 .47.06.61.17.12.1.2.26.2.45 0 .2-.06.35-.17.46-.15.15-.38.22-.65.22-.07 0-.13 0-.18-.02v.78h-.37v-2.02zm.37.95c.05.02.11.02.18.02.28 0 .45-.14.45-.38 0-.23-.16-.35-.42-.35-.1 0-.18.01-.22.02v.69zM22.25 31.13h-.78v.6h.87v.31H21.1v-2.06h1.2v.31h-.82v.53h.78v.31zm-.41-1.62l.31.36h-.28l-.17-.2-.17.2h-.28l.31-.36h.28zM24.15 31.98c-.09.04-.28.09-.53.09-.65 0-1.05-.41-1.05-1.04 0-.68.47-1.09 1.1-1.09.25 0 .42.05.5.09l-.08.3c-.1-.04-.23-.08-.4-.08-.42 0-.72.26-.72.76 0 .45.26.74.72.74.15 0 .31-.03.41-.07l.05.3zM24.84 29.98v.82h.87v-.82h.38v2.06h-.38v-.91h-.87v.91h-.37v-2.06zM27.67 31.13h-.77v.6h.86v.31h-1.24v-2.06h1.2v.31h-.82v.53h.77zM28.73 30.01c.17-.02.38-.04.6-.04.38 0 .65.08.84.24.2.16.32.41.32.76 0 .37-.13.64-.32.82-.2.19-.53.28-.93.28-.22 0-.38-.01-.51-.03v-2.03zm.37 1.74c.05.01.13.01.21.01.49 0 .78-.27.78-.79 0-.45-.26-.72-.73-.72-.12 0-.2.01-.26.02v1.48zM31.19 29.98v1.2c0 .4.17.59.42.59.27 0 .43-.19.43-.59v-1.2h.38v1.18c0 .64-.33.92-.82.92-.48 0-.78-.27-.78-.91v-1.18h.37zM32.85 30.01c.14-.03.35-.04.57-.04.3 0 .49.05.64.17.11.09.18.24.18.41 0 .27-.18.45-.38.51v.01c.15.06.24.2.29.4.07.26.12.5.16.58h-.39c-.03-.06-.08-.23-.14-.49-.06-.27-.16-.35-.37-.36h-.19v.85h-.37v-2.04zm.37.91h.22c.25 0 .41-.13.41-.34 0-.22-.15-.33-.4-.33-.12 0-.2.01-.23.02v.65zM35.02 31.46l-.18.58h-.39l.66-2.06h.48l.67 2.06h-.41l-.19-.58h-.64zm.59-.29l-.16-.51c-.04-.13-.07-.27-.1-.39h-.01c-.03.12-.06.26-.1.39l-.16.51h.53zM36.55 30.01c.12-.02.34-.04.55-.04.28 0 .45.04.59.13.13.08.21.21.21.39 0 .19-.12.36-.34.44v.01c.22.06.42.23.42.51 0 .18-.08.33-.2.43-.15.13-.39.19-.77.19-.21 0-.36-.02-.46-.03v-2.03zm.38.81h.19c.26 0 .41-.12.41-.3 0-.2-.15-.28-.39-.28-.11 0-.17.01-.21.01v.57zm0 .95c.05.01.11.01.2.01.24 0 .46-.09.46-.34 0-.24-.21-.34-.47-.34h-.19v.67zM38.31 29.98h.38v1.74h.85v.32h-1.23zM40.97 31.13h-.77v.6h.86v.31h-1.24v-2.06h1.2v.31h-.82v.53h.77zM43.5 31.98c-.09.04-.28.09-.53.09-.65 0-1.05-.41-1.05-1.04 0-.68.47-1.09 1.1-1.09.25 0 .42.05.5.09l-.08.3c-.1-.04-.23-.08-.4-.08-.42 0-.72.26-.72.76 0 .45.26.74.72.74.15 0 .31-.03.41-.07l.05.3zM44.98 31.13h-.78v.6h.87v.31h-1.25v-2.06h1.2v.31h-.82v.53h.78zM45.4 30.01c.14-.03.35-.04.57-.04.3 0 .49.05.64.17.11.09.18.24.18.41 0 .27-.18.45-.38.51v.01c.15.06.24.2.29.4.07.26.12.5.16.58h-.39c-.03-.06-.08-.23-.14-.49-.06-.27-.16-.35-.37-.36h-.19v.85h-.37v-2.04zm.37.91h.22c.25 0 .41-.13.41-.34 0-.22-.15-.33-.4-.33-.12 0-.2.01-.23.02v.65zM47.55 30.29h-.59v-.31h1.55v.31h-.59v1.75h-.37zM48.76 29.98h.38v2.06h-.38zM49.56 29.98h1.19v.31h-.81v.57h.76v.3h-.76v.88h-.38zM51.12 29.98h.38v2.06h-.38zM53.08 31.13h-.78v.6h.87v.31h-1.24v-2.06h1.2v.31h-.83v.53h.78v.31zm-.06-1.63l-.38.37h-.3l.27-.37h.41zM54.65 31.13h-.78v.6h.87v.31H53.5v-2.06h1.2v.31h-.83v.53h.78zM21.1 36.92c-.1.05-.31.1-.58.1-.71 0-1.15-.45-1.15-1.13 0-.74.52-1.19 1.2-1.19.27 0 .46.06.54.1l-.09.33c-.11-.05-.26-.09-.44-.09-.46 0-.79.29-.79.83 0 .5.29.81.78.81.16 0 .34-.03.45-.08l.08.32zM22.71 35.98h-.85v.67h.94v.33h-1.35v-2.25h1.31v.34h-.9v.58h.85zM23.17 34.77c.16-.03.38-.05.62-.05.32 0 .54.05.69.18.12.1.19.26.19.45 0 .29-.2.49-.41.56v.01c.16.06.26.22.31.43.07.28.13.54.18.63h-.42c-.03-.07-.09-.25-.15-.53-.07-.29-.17-.39-.4-.39h-.21v.92h-.41v-2.21zm.4.99h.24c.28 0 .45-.15.45-.37 0-.24-.17-.36-.44-.36-.13 0-.21.01-.25.02v.71zM25.51 35.08h-.64v-.35h1.7v.35h-.65v1.9h-.41zM26.83 34.73h.41v2.25h-.41zM27.71 34.73h1.3v.34h-.89v.62h.83v.33h-.83v.96h-.41zM29.41 34.73h.41v2.25h-.41zM31.55 35.98h-.85v.67h.95v.33h-1.36v-2.25h1.31v.34h-.9v.58h.85zM32.01 34.76c.18-.03.41-.05.65-.05.42 0 .71.09.91.26.22.18.35.45.35.83 0 .4-.14.7-.35.89-.22.2-.58.31-1.02.31-.24 0-.42-.01-.55-.03v-2.21zm.41 1.91c.06.01.14.01.23.01.53 0 .85-.29.85-.86 0-.49-.28-.78-.8-.78-.13 0-.22.01-.28.02v1.61zM19.48 40.31c.13.08.33.14.54.14.26 0 .41-.12.41-.31 0-.17-.11-.27-.4-.37-.37-.13-.61-.33-.61-.65 0-.37.31-.65.8-.65.24 0 .42.05.54.11l-.1.33c-.08-.04-.24-.11-.45-.11-.26 0-.37.14-.37.27 0 .17.13.25.43.37.39.15.58.34.58.67 0 .37-.27.68-.85.68-.24 0-.49-.07-.61-.14l.09-.34zM21.62 38.5v1.31c0 .44.18.64.46.64.3 0 .47-.2.47-.64V38.5h.41v1.29c0 .69-.36 1-.9 1-.52 0-.86-.29-.86-1V38.5h.42zM23.43 40.31c.13.08.33.14.54.14.26 0 .41-.12.41-.31 0-.17-.11-.27-.4-.37-.37-.13-.61-.33-.61-.65 0-.37.31-.65.8-.65.24 0 .42.05.54.11l-.1.33c-.08-.04-.24-.11-.45-.11-.26 0-.37.14-.37.27 0 .17.13.25.43.37.39.15.58.34.58.67 0 .37-.27.68-.85.68-.24 0-.49-.07-.61-.14l.09-.34zM25.6 38.85h-.64v-.35h1.7v.35h-.65v1.9h-.41zM27.13 40.11l-.19.64h-.42l.72-2.25h.52l.73 2.25h-.44l-.2-.64h-.72zm.64-.3l-.18-.55c-.04-.14-.08-.29-.11-.42h-.01c-.03.13-.07.29-.11.42l-.17.55h.58zM28.8 38.5h.41v2.25h-.41zM29.68 40.75V38.5h.47l.58.97c.15.25.28.51.38.75h.01c-.03-.3-.04-.59-.04-.93v-.79h.38v2.25h-.43l-.59-.99a9.43 9.43 0 0 1-.4-.77h-.01c.02.29.02.59.02.96v.8h-.37zM32.39 40.11l-.19.64h-.42l.72-2.25h.52l.73 2.25h-.45l-.2-.64h-.71zm.64-.3l-.18-.55c-.04-.14-.08-.29-.11-.42h-.01c-.03.13-.07.29-.11.42l-.17.55h.58zM34.06 38.54c.13-.03.37-.05.6-.05.3 0 .49.04.64.14.14.08.23.23.23.42 0 .21-.13.4-.37.48v.01c.24.06.45.25.45.55 0 .2-.09.36-.21.47-.16.14-.42.21-.84.21-.23 0-.4-.02-.5-.03v-2.2zm.41.88h.21c.29 0 .44-.13.44-.32 0-.21-.16-.31-.42-.31-.12 0-.19.01-.23.02v.61zm0 1.04c.05.01.12.01.22.01.26 0 .5-.1.5-.37 0-.26-.23-.37-.51-.37h-.2v.73zM35.98 38.5h.41v1.91h.92v.34h-1.33zM38.88 39.75h-.84v.67h.94v.33h-1.35V38.5h1.3v.34h-.89v.58h.84zM19.48 44.08c.13.08.33.14.54.14.26 0 .41-.12.41-.31 0-.17-.11-.27-.4-.37-.37-.13-.61-.33-.61-.66 0-.37.31-.65.8-.65.24 0 .42.05.54.11l-.1.33c-.08-.04-.24-.11-.45-.11-.26 0-.37.14-.37.27 0 .17.13.25.43.37.39.15.58.34.58.67 0 .37-.27.68-.85.68-.24 0-.49-.07-.61-.14l.09-.33zM22.47 43.52h-.84v.67h.94v.33h-1.35v-2.25h1.3v.34h-.89v.58h.84zM23.39 43.89l-.19.64h-.42l.72-2.25h.52l.73 2.25h-.45l-.2-.64h-.71zm.64-.31l-.18-.55c-.04-.14-.08-.29-.11-.42h-.01c-.03.13-.07.29-.11.42l-.17.55h.58zM25.06 42.27h1.3v.34h-.89v.62h.82v.33h-.82v.96h-.41zM28.75 43.38c0 .75-.46 1.18-1.07 1.18-.64 0-1.04-.49-1.04-1.14 0-.69.44-1.18 1.07-1.18.65-.01 1.04.49 1.04 1.14m-1.68.03c0 .46.23.82.62.82.4 0 .62-.37.62-.84 0-.42-.21-.82-.62-.82-.4 0-.62.37-.62.84M31.1 43.38c0 .75-.46 1.18-1.07 1.18-.64 0-1.04-.49-1.04-1.14 0-.69.44-1.18 1.07-1.18.65-.01 1.04.49 1.04 1.14m-1.68.03c0 .46.23.82.62.82.4 0 .62-.37.62-.84 0-.42-.21-.82-.62-.82-.4 0-.62.37-.62.84M31.45 42.3c.18-.03.41-.05.65-.05.42 0 .71.09.91.26.22.18.35.45.35.83 0 .4-.14.7-.35.89-.22.2-.58.31-1.02.31-.24 0-.42-.01-.55-.03V42.3zm.41 1.91c.06.01.14.01.23.01.53 0 .85-.29.85-.86 0-.49-.28-.78-.8-.78-.13 0-.22.01-.28.02v1.61z" clip-path="url(#SVGID_2_)" fill="#fff"/>
  <path d="M55.58 13.8c0 2.02-1.65 3.67-3.67 3.67H21.54c-2.02 0-3.67-1.65-3.67-3.67v-55.83c0-2.02 1.65-3.67 3.67-3.67h30.37c2.02 0 3.67 1.65 3.67 3.67V13.8z" clip-path="url(#SVGID_2_)" fill-rule="evenodd" clip-rule="evenodd" fill="#00aeaa"/>
  <path d="M51.91 18.04H21.54c-2.34 0-4.24-1.9-4.24-4.24v-55.83c0-2.34 1.9-4.24 4.24-4.24h30.37c2.34 0 4.24 1.9 4.24 4.24V13.8c0 2.34-1.9 4.24-4.24 4.24M21.54-45.13c-1.71 0-3.1 1.39-3.1 3.1V13.8c0 1.71 1.39 3.1 3.1 3.1h30.37c1.71 0 3.1-1.39 3.1-3.1v-55.83c0-1.71-1.39-3.1-3.1-3.1H21.54z" clip-path="url(#SVGID_2_)" fill="#fff"/>
  <path d="M48.67-15.13c-.92-.13-5.6.02-7.24 1.35C31.39-5.6 28.05 4.94 27.47 14.16c0 0-2.95-5.47-6.78-8.47-.85-.67-1.51-.7-2.37.15-.15.15-.3.29-.44.44v2.4l8.31 8.8h2.91c.89 0 1.27-1.61 1.4-2.28.87-4.53 2.07-16.41 15.68-26.75.89-.69 4.42-3.3 2.49-3.58" clip-path="url(#SVGID_2_)" fill-rule="evenodd" clip-rule="evenodd" fill="#fff"/>
  <path d="M50.2 12.66h-.57v1.46h-.55v-1.46h-.56v-.38h1.68v.38zm1.6.74l.46-1.12H53v1.84h-.52v-1.26h-.01l-.48 1.26h-.4l-.48-1.26h-.01v1.26h-.52v-1.84h.75l.47 1.12z" clip-path="url(#SVGID_2_)" fill="#fff"/>
  <path d="M51.34-6.61c-.04-.14-.11-.27-.26-.32a.66.66 0 0 0-.24-.03c-4.26.61-8.1 3.52-9.31 7.7-.18.63-.35 1.28-.44 1.92-.09.61-.14 1.23-.16 1.85-.02.57-.01 1.15.02 1.72.03.53.09 1.06.11 1.6.01.58.01 1.24-.55 1.59-1.97 1.22-7 2.26-6.86 2.91.14.6 2.21.4 2.6.39 1.1-.03 2.2-.41 3.3-.25.57.08 1.04.31 1.43.74.31.36.7 1.33 1.34 1.07.93-.37.29-2.78-.2-4.26 3.5-1.18 6.13-2.27 7.82-5.49.91-1.72 1.47-3.69 1.65-5.62.04-.43.06-.86.07-1.29.02-1.13 0-2.34-.17-3.48-.04-.24-.08-.47-.13-.71-.01 0-.01-.02-.02-.04M41.75 8.06c.18-2.22.81-5.66 2.08-8.24.09-.17.17-.34.26-.51a1.806 1.806 0 0 0 3.13.67c-.13.79.27 1.59 1.03 1.94.48.22 1 .21 1.45.02-.19.51-.41 1-.65 1.46-1.41 2.66-4.09 5.25-7.02 6.43-.01 0-.1-.27-.11-.29-.21-.8-.17-1.48-.17-1.48m8.23-6.91c-.43.15-.91.15-1.35-.06a1.805 1.805 0 0 1-1.04-1.83l.03-.13-.01.01v-.02c-.03.03-.05.07-.08.1-.51.55-1.34.74-2.07.41-.46-.21-.79-.6-.95-1.04 1.31-2.1 3.16-3.7 5.79-4.73.22-.08.63-.27.69.44.07 1.07-.13 4.08-1.01 6.85" clip-path="url(#SVGID_2_)" fill-rule="evenodd" clip-rule="evenodd" fill="#fff"/>
  <g>
    <defs>
      <path id="SVGID_32_" d="M15.03-327.17h37.58V-265H15.03z"/>
    </defs>
    <clipPath id="SVGID_3_">
      <use xlink:href="#SVGID_32_" overflow="visible"/>
    </clipPath>
  </g>
  <g>
    <defs>
      <path id="SVGID_48_" d="M12-70.47h44.64V-24H12z"/>
    </defs>
    <clipPath id="SVGID_5_">
      <use xlink:href="#SVGID_48_" overflow="visible"/>
    </clipPath>
    <g clip-path="url(#SVGID_5_)">
      <defs>
        <path id="SVGID_50_" d="M34.32-12.04c-12.08 0-21.88 9.8-21.88 21.88s9.8 21.88 21.88 21.88 21.89-9.8 21.89-21.88-9.81-21.88-21.89-21.88m0 38.32c-9.07 0-16.43-7.36-16.43-16.43 0-9.08 7.36-16.43 16.43-16.43 9.08 0 16.43 7.36 16.43 16.43S43.4 26.28 34.32 26.28"/>
      </defs>
      <clipPath id="SVGID_7_">
        <use xlink:href="#SVGID_50_" overflow="visible"/>
      </clipPath>
      <g clip-path="url(#SVGID_7_)">
        <defs>
          <path id="SVGID_52_" d="M12.44-12.04h43.77v43.76H12.44z"/>
        </defs>
        <clipPath id="SVGID_9_">
          <use xlink:href="#SVGID_52_" overflow="visible"/>
        </clipPath>
        <radialGradient id="SVGID_11_" cx="1.503" cy="-530.117" r="1" gradientTransform="matrix(21.8831 0 0 -21.8831 1.439 -11590.795)" gradientUnits="userSpaceOnUse">
          <stop offset="0" stop-color="#fff"/>
          <stop offset=".196" stop-color="#fefcfc"/>
          <stop offset=".336" stop-color="#fcf3f4"/>
          <stop offset=".458" stop-color="#f7e3e5"/>
          <stop offset=".57" stop-color="#f1cdd0"/>
          <stop offset=".675" stop-color="#e9b0b6"/>
          <stop offset=".775" stop-color="#df8d95"/>
          <stop offset=".871" stop-color="#d3646e"/>
          <stop offset=".961" stop-color="#c53542"/>
          <stop offset="1" stop-color="#bf1e2d"/>
        </radialGradient>
        <path clip-path="url(#SVGID_9_)" fill="url(#SVGID_11_)" d="M12.44-12.04h43.77v43.76H12.44z"/>
      </g>
    </g>
  </g>
  <g>
    <defs>
      <path id="SVGID_55_" d="M12-70.47h44.64V-24H12z"/>
    </defs>
    <clipPath id="SVGID_13_">
      <use xlink:href="#SVGID_55_" overflow="visible"/>
    </clipPath>
    <path class="st16" d="M21.21 9.84c0-7.24 5.87-13.11 13.11-13.11S47.43 2.6 47.43 9.84s-5.87 13.11-13.11 13.11-13.11-5.87-13.11-13.11"/>
    <path d="M34.32-8.64c-10.21 0-18.48 8.27-18.48 18.48s8.28 18.48 18.48 18.48c10.21 0 18.48-8.27 18.48-18.48S44.53-8.64 34.32-8.64m0 31.62c-7.25 0-13.13-5.88-13.13-13.13 0-7.25 5.88-13.14 13.13-13.14 7.26 0 13.13 5.88 13.13 13.14 0 7.25-5.87 13.13-13.13 13.13" clip-path="url(#SVGID_13_)" fill="#f9c81e"/>
    <path d="M34.32-8.21c-9.97 0-18.06 8.08-18.06 18.06 0 9.97 8.08 18.06 18.06 18.06s18.06-8.08 18.06-18.06c0-9.98-8.09-18.06-18.06-18.06m0 31.61c-7.49 0-13.56-6.07-13.56-13.56S26.83-3.72 34.32-3.72 47.88 2.35 47.88 9.84 41.81 23.4 34.32 23.4" clip-path="url(#SVGID_13_)" fill="#231f20"/>
    <path d="M27.73 19.01s-1.81.06-2.94-1.07c-1.13-1.13-2.38-3.68-4.81-3.23 0 0 1.47-.85 3.17-.51 0 0-1.81-2.09-2.38-3.62-.57-1.53-2.72-5.15-3.9-4.53 0 0 1.87-1.07 3.28.34 0 0-1.3-5.2.96-6.39 0 0 1.53-.91 3.79 1.7 0 0 1.25.17 1.87.91 0 0 .28-1.75-.74-2.72 0 0 .57.34 1.02 1.07 0 0 .34-4.13 2.43-4.3 2.09-.17 3.34 2.38 3.9 3.39 0 0 .96.23 1.13.45 0 0 1.07-1.87-.06-2.83 0 0 1.08 1.19 1.08 2.77 0 0 1.19-4.02 3.34-3.73 0 0 2.09-.06 2.43 5.54 0 0 1.3-.96 1.3-3.56 0 0 .74 1.64-.4 4.7l.23.9S44.92-.57 47.69.38c2.77.96.85 6.79.85 6.79s2.72-1.92 2.66-3.28c0 0 .79 1.7-3.56 6.68 0 0 2.09-.51 2.6-.34 0 0-1.53-.45-4.07 5.09 0 0-1.36 2.66-4.53 3.73 0 0-.62.56-.74 1.02-.11.45-1.24 1.24-2.15.4l.23-2.26-3.11-.96-1.56 1.64s-1.39.51-2.01 0l-.74-1.92s-.57-.34-1.13-.23c0 0-.62 1.25-.28 2.04 0 0 .73 1.92-1.25 1.87l-1.17-1.64z" clip-path="url(#SVGID_13_)" fill="#2fb357"/>
    <path d="M20.01 1s-.1 1.64.57 1.22c.67-.42-.45-1.19-.57-1.22M20.28 3.39s-.1-.42.3-.54c.4-.12.57.32.65.62.08.3.18.82-.15.87-.33.04-.65.07-.8-.95M20.65 5.33s0-.37.47-.42c.47-.05.5.27.5.27s.6.67.03.8c-.57.12-1.02.31-1-.65M21.05 7.36s-.12-.5.45-.52c.57-.03.87-.12.97.55.1.67-.12.87-.52.89-.4.03-.87-.25-.9-.92M21.67 9.5s.05.64.77.56c.72-.08.77-.4.65-.68-.12-.27-.35-.62-.9-.52-.54.09-.52.32-.52.64M22.19 11.36s-.2-.62.4-.7c.6-.07.97-.2 1.09.3.12.5-.05.55-.32.62-.27.08-1.02.43-1.17-.22M22.77 12.94s-.08-.48.68-.57 1.02.14 1.05.34c.03.2-.09.54-.77.57-.68.03-.88-.11-.96-.34M24.12 14.07s-.99-.05-.68.76c.31.82.88.6 1.08.6.2 0 1.22-.09.76-.79-.45-.71-.62-.71-1.16-.57M25.06 15.94s-.96.11-.68.74c.28.62.73.48.88.48.14 0 1.1.11.93-.65-.17-.77-.99-.66-1.13-.57M26.05 17.78s-1.23.16-.34 1.05c.74.74 1.22.48 1.22.48s1.05-.1.11-1.07c-.63-.66-.99-.46-.99-.46M21.55.59s0 .81.21.98c.21.17.81.3.59-.21-.21-.51-.63-1.02-.8-.77M22.26 3.38s-.34-.93.26-1.13c.59-.2.9.85.93 1.02.02.17-.97.93-1.19.11M23.22 4.03s-.48.11-.37 1.02c.11.9.9.7 1.16.51.25-.2.59-.54.23-1.19-.37-.65-.91-.45-1.02-.34M23.42 7.09s-.28-.54.59-.99c.88-.45 1.05-.28 1.27.31.23.59-.07.86-.62 1.02-.4.11-1.05.14-1.24-.34M24.18 8.95s-.31-.53.37-.9c.68-.37 1.27-.68 1.58-.08.31.59-.04.7-.59 1.13-.4.31-1.19.42-1.36-.15M25.68 9.77s1.22-.7 1.47.28c.2.8-.59.85-.82.91-.22.06-1.44.45-1.55-.28-.12-.74.9-.91.9-.91M25.54 12.49s-.14-.45.28-.68c.42-.23 1.61-.93 1.87-.62.26.31 0 .68-.57 1.02-.56.34-1.21.79-1.58.28M26.36 14.3s-.48-.82.54-1.24c1.02-.43 1.58-.57 1.75.17.17.74-.06 1.24-1.05 1.41-.99.17-.99.14-1.24-.34M27.38 16.48s-.68-.88.11-1.27c.79-.4 2.23-.79 2.18.42-.06 1.21-2.04 1.13-2.29.85M24.04 2.05s-.31-.25-.03-.54c.28-.28.42.31.42.31s.37.37.2.54c-.17.17-.59-.31-.59-.31M25 3.61s-.5-.42-.11-.74c.31-.25.59.14.74.31.14.17.57.62.17.88-.4.26-.6 0-.8-.45M26.02 4.68s.31-.51.65.06c.34.57.76.96.14 1.3-.62.34-.73-.37-.88-.71-.08-.2-.36-.22.09-.65M27.01 6.32s-.4.23-.11.96c.28.74.68.57.88.51.2-.06.59-.54.14-1.1-.46-.56-.8-.42-.91-.37M27.43.98s0-.57.41-.67c.41-.1.92-.44.92.29s-.32.89-.64.92c-.31.03-.69.35-.69-.54M28 2.51s-.67.06-.63 1.02c.03.95.51.86.92.64.41-.22.73-.48.67-1.21-.08-.74-.65-.68-.96-.45" clip-path="url(#SVGID_13_)" fill="#231f20"/>
    <path d="M27.46 5.84s-.11-.49.6-.79c.73-.32.92-.41 1.21.29.28.7-.48.98-.67.98-.19-.01-1.14.47-1.14-.48M28.44 6.89s1.14-.41 1.18.16c.03.57.19 1.2-.73 1.27-.92.06-1.14-.07-1.17-.38-.04-.33-.07-.58.72-1.05" clip-path="url(#SVGID_13_)" fill="#231f20"/>
    <path d="M28.41 9.55s-.51.03-.64-.57c-.12-.6.16-.79.35-.86.19-.06.73-.06.76.54.04.6-.47.89-.47.89" clip-path="url(#SVGID_13_)" fill="#231f20"/>
    <path d="M28.47 10.41s-.41-.63.09-.98c.51-.35.95.48.95.79 0 .32-.22.73-.38.76-.15.03-.47.16-.66-.57" clip-path="url(#SVGID_13_)" fill="#231f20"/>
    <path d="M28.79 9.39s.19-.22.48-.25.79-.22.76.25c-.03.48-.64.73-.64.73l-.6-.73zM29.71.31s-.16-.73.82-.83c.98-.09 1.14.45 1.14.54 0 .1.41.98-.7.98-1.1.01-1.26-.69-1.26-.69M30 2.54s-.22-.86.98-.98c1.21-.13 1.27.67 1.27.76 0 .09.38.95-.92.95s-1.27-.35-1.33-.73M30.35 4.92s-.22-.63.44-.86c.67-.22 1.94-.54 2.22.54.29 1.08-.89.86-1.27.89-.38.03-1.27.19-1.39-.57M30.76 7.08s-.29-.89 1.14-1.11c1.43-.22 1.53.54 1.53.79s-.04.7-1.11.83c-.8.09-1.31.06-1.56-.51M31.17 8.95s.13-.73 1.21-.73c1.15 0 1.46.13 1.46.51s-.76.44-1.27.44-.99.45-1.4-.22M31.52 10.76s-.22-.73 1.02-.92c1.24-.19 1.56-.03 1.62.35s-.32.86-1.11.89c-.8.03-1.28.25-1.53-.32M32.09 12.85s-.54-1.08.79-1.14c1.33-.06 1.81.22 1.52 1.33-.28 1.12-2.31-.19-2.31-.19M33.34.98s-.42 0-.68-.64c-.26-.64 0-.55.13-.6.13-.04.6.73.55 1.24M33.34 2.56s-.42-.82.11-.91c.47-.07.68.51.73.62.06.11.57.76.14.93-.41.18-.86-.1-.98-.64M34.42 3.83s-.95-.15-.42.99c.39.85.79.71.79.71s.79.28.79-.17-.09-1.64-1.16-1.53M36.82-.21s.03-.57.45-.54c.42.03.26 1.13-.14 1.16-.39.03-.34-.45-.31-.62M36.17 1.43s0-.54.59-.54c.54 0 .34.51.34.59 0 .08 0 .54-.54.45-.53-.08-.39-.5-.39-.5M35.78 3.07s0-.79.51-.65c.61.17.86.41.54.96-.2.34-.34.45-.68.34-.34-.11-.37-.51-.37-.65" clip-path="url(#SVGID_13_)" fill="#231f20"/>
    <path d="M35.47 4.54s-.03-.45.56-.28c.59.17.51.48.48.68-.03.2-.17.54-.68.34s-.36-.74-.36-.74M38.32.13s.17-.59.59-.59.37.65.34.76c-.03.11 0 .42-.54.34-.53-.09-.39-.37-.39-.51M38.04 1.82s-.11-.62.68-.68c.79-.06.71.62.68.71-.03.08-.03.76-.71.73-.68-.02-.68-.33-.65-.76M37.7 3.55s-.06-.54.79-.59c.85-.06.88.42.88.59 0 .17-.03.79-.65.74-.62-.06-.94-.29-1.02-.74M37.47 5.27s-.11-.76.96-.65c1.07.11.9.37.9.65s-.06.6-.82.57c-.75-.03-1.01-.2-1.04-.57M37.19 6.83s.03-.48 1.1-.42c.57.03.99.28.93.73-.05.4-.28.54-1.1.34-.81-.2-.81-.31-.93-.65M37.02 8.39s-.03-.51.85-.37 1.33-.23 1.33.45c0 .51-.71.34-1.02.34-.31 0-1.07 0-1.16-.42M36.91 10.05s-.11-.79.82-.73c.93.06 1.27.2 1.27.73 0 .54-.28.76-1.02.76-.73.01-1.13-.16-1.07-.76M36.79 11.81s-.17-.74.88-.68c1.05.06 1.19.22 1.08.85-.11.62-.59.6-1.05.51-.45-.09-1.02-.14-.91-.68M40.13.07s-.03-.45.17-.42c.2.03.31.26.31.37 0 .11.03.51-.14.51-.17-.01-.28-.26-.34-.46M40.25 1.51s-.14-.57.26-.62c.4-.06.37.37.37.57 0 .2.11.76-.28.76-.41 0-.38-.45-.35-.71M40.22 3.38s-.23-.57.34-.65c.57-.08.54.71.54.71s-.08.65-.45.65c-.38 0-.52-.26-.43-.71M40.16 5.08s-.09-.62.42-.68c.51-.06.59.48.57.62-.03.14.03.59-.45.65-.48.06-.48-.03-.57-.08-.08-.06-.08-.4.03-.51M40.16 6.8s-.09-.59.42-.62c.51-.03.51.48.48.59-.03.11-.23.48-.45.51-.22.03-.51.03-.45-.48M39.99 8.39s-.17-.45.43-.54c.59-.09.62.11.62.28 0 .17-.37.42-.37.42s-.65.35-.68-.16M39.76 9.97s.08-.51.37-.65c.28-.14.68.11.71.25.03.14-.03.43-.23.62-.2.2-.54.28-.79.17-.25-.11-.06-.39-.06-.39M39.54 12.49s-.17-.57.11-1.19.79-.79 1.19-.82c.4-.03.82.74-.09 1.7-.9.96-1.21.31-1.21.31M43.95 3.72s-.37-.06.03-.65c.4-.59.51-.51.6-.48.09.03.11.34-.17.71-.29.36-.46.42-.46.42M42.73 4.97s.31-.62.71-.57c.39.06.42.28.14.88-.28.6-.65.57-.74.54-.08-.03-.67-.09-.11-.85M41.26 7.14s.17-.93.99-.9c.82.03.54.85.37 1.13-.17.28-.45.59-.93.56-.48-.02-.51-.42-.43-.79" clip-path="url(#SVGID_13_)" fill="#231f20"/>
    <path d="M40.59 9.04s.08-.51.82-.59c.74-.08.54.57.4.85s-.4.54-.82.54c-.43-.01-.83-.41-.4-.8M46.24 4.12s.82.03.88-.71c.06-.74-.88-.68-.88-.68s-.99-.08-1.02.71c-.02.79 1.02.68 1.02.68M44.57 5.11s.2-.79 1.13-.54c1.17.32.85 1.05.79 1.24-.06.2-.31.79-1.19.48-.87-.31-.98-.62-.73-1.18M43.61 7.17s.26-.85 1.5-.31c1.25.54.74 1.22.74 1.22s-.2.62-1.33.23c-1.13-.4-1.11-.66-.91-1.14M42.88 9.12s.05-.76 1.38-.42c1.33.34.93 1.25.91 1.36-.03.11-.48.59-1.41.25-.94-.34-1.11-.59-.88-1.19M42.2 10.99s.28-.37 1.33-.06 1.07.68.99.88c-.08.2-.65.22-1.19.03-.54-.2-1.39-.26-1.13-.85M41.86 15.43s.88.65 1.27.03c.4-.62-.2-1.1-.82-1.1-.62-.01-.73.84-.45 1.07M41.97 16.05s.74.45.48 1.1c-.25.65-1.02.28-1.19.28-.17 0-1.13-.34-.91-1.1.24-.76 1.48-.39 1.62-.28M40.61 19.42s.71.31.96-.48 0-1.02-.57-1.13c-.57-.11-.88.37-.88.74.01.36.04.73.49.87M40.33 19.98s.76.31.25.96c-.51.65-1.13.17-.99-.48.15-.65.74-.48.74-.48M46.52 2.14s-.54-.25-.06-.79c.48-.54.48-.4.62-.31.14.09.45.11.23.74-.22.61-.64.47-.79.36M47.32 6.55s.03-1.02.79-.74c.77.28.65 1.13.62 1.27-.03.14-.16.98-.9.48-.68-.45-.51-1.01-.51-1.01M46.75 8.64s.23-.54.93-.25c.71.28.6.82.57 1.02-.03.2-.34.54-.93.23-.59-.32-.71-.66-.57-1M46.19 10.48s.11-.79 1.02-.25c.9.54.45 1.27.45 1.27s-.28.57-1.02.08c-.74-.48-.45-1.1-.45-1.1M45.9 13.14s-.54-.42-.4-.85c.14-.42.56-.11.79.03.22.14.79.71.62 1.02-.16.31-.95-.12-1.01-.2M44.88 14.1s.23-.51.82-.11c.6.4.6.76.43.96-.17.2-.34.39-.85 0-.51-.4-.48-.68-.4-.85M44.18 15.77s.39-.65.99-.14.31.85.11 1.05c-.2.2-.45.14-.71-.03-.25-.17-.65-.31-.39-.88M43.36 17.49s.37-.62.9-.25c.54.37.31 1.05.17 1.19-.14.14-.51.4-.99 0s-.17-.85-.08-.94M28.96 11.95s-.57-.76.45-.99c1.02-.23.99.28 1.02.62.03.34.26 1.02-.34 1.19-.59.17-1.02-.59-1.13-.82M34.62 12.97s-.11-.62.2-.62.74.14.74.14-.14-.45-.17-.59c-.03-.14-.85-.23-.85-.91s.71-.37.71-.37l-.03-.42s-.76-.37-.68-.99c.09-.62.42-.39.42-.39s-.06-.57.28-.72c0 0-.59-.08-.34-.76 0 0-.37-.31-.37-.54 0-.23-.31-.79.6-.79 0 0 .17-.45.68-.14s.82.62.25.9c0 0 .11.62-.08.79 0 0 .42.54-.03.74 0 0 .45.45.28.76-.17.31-.25.25-.25.25s.11.45.08.54c0 0 .57.26.54.88 0 0-.06.42-.57.4l-.08.45s1.05.2.93.99c-.11.79-.48.82-.48.82s-1.7.32-1.78-.42" clip-path="url(#SVGID_13_)" fill="#231f20"/>
    <path d="M19.8.79s-.1 1.64.57 1.22c.67-.43-.45-1.19-.57-1.22M20.07 3.18s-.1-.42.3-.55c.4-.12.57.32.65.62.07.3.17.82-.15.87-.33.05-.65.07-.8-.94M20.44 5.11s0-.37.47-.42c.47-.05.5.27.5.27s.6.67.02.79c-.56.13-1.01.33-.99-.64M20.84 7.15s-.12-.5.45-.52c.57-.03.87-.12.97.55.1.67-.12.87-.52.89-.4.03-.87-.25-.9-.92M21.46 9.29s.05.64.77.56c.72-.08.77-.41.65-.68-.12-.27-.35-.62-.89-.52-.55.09-.53.31-.53.64M21.98 11.15s-.2-.62.4-.7c.6-.07.97-.2 1.09.3.12.5-.05.55-.32.62-.27.08-1.02.43-1.17-.22M22.55 12.73s-.08-.48.68-.57c.76-.08 1.02.14 1.05.34.03.2-.08.54-.76.57-.68.03-.88-.11-.97-.34M23.91 13.86s-.99-.06-.68.77c.31.82.88.59 1.07.59s1.22-.08.76-.79c-.44-.71-.61-.71-1.15-.57M24.84 15.73s-.96.11-.68.74c.28.62.73.48.88.48.14 0 1.1.11.93-.65-.16-.77-.98-.66-1.13-.57M25.84 17.57s-1.23.15-.34 1.05c.74.74 1.22.48 1.22.48s1.04-.1.11-1.08c-.63-.65-.99-.45-.99-.45M21.34.38s0 .81.21.98c.21.17.81.3.59-.21-.21-.51-.63-1.02-.8-.77M22.04 3.17s-.34-.93.25-1.13c.59-.2.91.85.93 1.02.04.17-.95.93-1.18.11M23.01 3.82s-.48.11-.37 1.02c.11.9.91.71 1.16.51.25-.2.59-.54.23-1.19-.37-.65-.91-.46-1.02-.34M23.2 6.88s-.28-.54.59-.99c.88-.45 1.05-.28 1.27.31.23.6-.07.86-.62 1.02-.39.11-1.04.13-1.24-.34M23.97 8.74s-.31-.54.37-.9c.68-.37 1.27-.68 1.58-.09.31.59-.05.7-.59 1.13-.4.31-1.19.43-1.36-.14M25.47 9.56s1.22-.7 1.47.29c.2.79-.59.85-.82.91-.23.06-1.44.45-1.56-.28-.11-.75.91-.92.91-.92M25.33 12.28s-.14-.45.28-.68c.42-.23 1.61-.93 1.86-.62.26.31 0 .68-.56 1.02-.57.33-1.22.79-1.58.28M26.15 14.09s-.48-.82.54-1.25 1.58-.56 1.75.17c.17.74-.06 1.24-1.05 1.42-.99.17-.99.14-1.24-.34M27.16 16.27s-.68-.88.11-1.27c.79-.4 2.23-.79 2.18.42-.05 1.21-2.03 1.13-2.29.85M23.83 1.84s-.31-.25-.03-.54c.28-.28.42.31.42.31s.37.37.2.54c-.17.17-.59-.31-.59-.31M24.79 3.4s-.5-.42-.11-.74c.31-.25.59.14.74.31.14.17.57.62.17.88-.41.25-.6 0-.8-.45M25.81 4.47s.31-.51.65.06c.34.57.76.96.14 1.3-.62.34-.73-.36-.88-.71-.08-.2-.37-.23.09-.65M26.8 6.11s-.4.23-.11.96c.28.74.68.57.88.51.2-.06.6-.54.14-1.1-.46-.57-.8-.43-.91-.37M27.21.77s0-.57.41-.66c.41-.1.92-.45.92.28s-.32.89-.63.92c-.32.03-.7.35-.7-.54M27.79 2.29s-.67.06-.64 1.02c.03.95.51.86.92.63.41-.22.73-.48.67-1.2-.07-.73-.64-.67-.95-.45" clip-path="url(#SVGID_13_)" fill="#f9c81e"/>
    <path d="M27.24 5.62s-.1-.48.6-.79c.73-.32.92-.41 1.21.28.28.7-.48.99-.67.99-.18 0-1.14.48-1.14-.48M28.23 6.67s1.14-.41 1.17.16c.03.57.19 1.21-.73 1.27-.92.06-1.14-.06-1.17-.38-.03-.32-.07-.57.73-1.05" clip-path="url(#SVGID_13_)" fill="#f9c81e"/>
    <path d="M28.2 9.34s-.51.03-.64-.57.16-.8.35-.86c.19-.06.73-.06.76.54.03.6-.47.89-.47.89" clip-path="url(#SVGID_13_)" fill="#f9c81e"/>
    <path d="M28.26 10.2s-.41-.63.09-.98c.51-.35.95.48.95.79 0 .32-.22.73-.38.76-.15.03-.47.16-.66-.57" clip-path="url(#SVGID_13_)" fill="#f9c81e"/>
    <path d="M28.58 9.18s.19-.22.48-.25c.28-.03.79-.22.76.25-.03.48-.63.73-.63.73l-.61-.73zM29.5.1s-.16-.73.82-.82c.98-.09 1.14.44 1.14.54 0 .1.41.98-.7.98S29.5.1 29.5.1M29.78 2.32s-.22-.86.98-.98c1.21-.13 1.27.66 1.27.76 0 .09.38.95-.92.95-1.29 0-1.26-.34-1.33-.73M30.13 4.71s-.22-.64.44-.86c.67-.22 1.94-.54 2.22.54.28 1.08-.89.86-1.27.89-.37.03-1.26.19-1.39-.57M30.55 6.87s-.29-.89 1.14-1.11c1.43-.22 1.52.54 1.52.79s-.04.7-1.11.83c-.79.09-1.3.06-1.55-.51M30.96 8.74s.13-.73 1.2-.73c1.15 0 1.46.12 1.46.51s-.76.44-1.27.44c-.5 0-.98.44-1.39-.22M31.31 10.54s-.22-.73 1.01-.92c1.24-.19 1.56-.03 1.62.35.06.38-.32.86-1.11.89-.79.03-1.27.26-1.52-.32M31.88 12.64s-.54-1.08.79-1.14c1.33-.06 1.81.22 1.52 1.33-.28 1.11-2.31-.19-2.31-.19M33.13.76s-.42 0-.68-.64c-.26-.64 0-.55.13-.59.13-.04.6.73.55 1.23M33.13 2.35s-.42-.82.11-.9c.48-.08.68.51.74.62.06.11.57.76.14.93-.42.17-.87-.11-.99-.65M34.21 3.62s-.96-.15-.43.99c.4.85.79.71.79.71s.79.28.79-.17-.08-1.64-1.15-1.53M36.61-.42s.03-.56.45-.54c.42.03.26 1.13-.14 1.16-.39.03-.34-.46-.31-.62M35.96 1.22s0-.54.6-.54c.54 0 .34.51.34.59 0 .08 0 .54-.54.45-.54-.08-.4-.5-.4-.5M35.57 2.86s0-.79.51-.65c.61.17.86.41.54.96-.2.34-.34.45-.68.34-.35-.11-.37-.51-.37-.65" clip-path="url(#SVGID_13_)" fill="#f9c81e"/>
    <path d="M35.25 4.33s-.03-.45.56-.28c.59.17.51.48.48.68-.03.2-.17.54-.68.34-.5-.2-.36-.74-.36-.74M38.11-.08s.17-.59.59-.59c.42 0 .37.65.34.76-.03.11 0 .42-.54.34-.53-.09-.39-.37-.39-.51M37.83 1.61s-.11-.62.68-.68c.79-.06.71.62.68.71-.03.09-.03.77-.71.74-.68-.03-.68-.34-.65-.77M37.49 3.34s-.06-.54.79-.59c.85-.06.88.42.88.59 0 .17-.03.79-.65.74-.63-.06-.94-.29-1.02-.74M37.26 5.06s-.11-.76.96-.65c1.07.11.9.37.9.65s-.06.59-.82.56c-.76-.02-1.01-.19-1.04-.56M36.98 6.62s.03-.48 1.1-.42c.57.03.99.28.93.74-.05.4-.28.54-1.1.34-.82-.21-.82-.32-.93-.66M36.81 8.18s-.03-.51.85-.37 1.33-.23 1.33.45c0 .51-.71.34-1.02.34-.31 0-1.08 0-1.16-.42M36.7 9.84s-.11-.79.82-.73c.93.06 1.27.2 1.27.73 0 .54-.28.77-1.02.77-.73 0-1.13-.17-1.07-.77M36.58 11.6s-.17-.73.88-.68c1.05.06 1.19.23 1.07.85s-.59.59-1.05.51c-.44-.09-1.01-.14-.9-.68M39.92-.14s-.03-.45.17-.42c.2.03.31.25.31.37 0 .11.03.51-.14.51-.17-.01-.28-.26-.34-.46M40.03 1.3s-.14-.57.26-.62c.4-.06.37.36.37.57 0 .2.11.76-.28.76-.4 0-.38-.45-.35-.71M40.01 3.17s-.23-.57.34-.65c.56-.09.54.71.54.71s-.09.65-.45.65c-.38 0-.52-.26-.43-.71M39.95 4.87s-.08-.62.42-.68c.51-.06.59.48.57.62-.03.14.03.59-.45.65-.48.06-.48-.03-.57-.09s-.08-.39.03-.5M39.95 6.59s-.08-.59.42-.62c.51-.03.51.48.48.59-.03.11-.23.48-.45.51-.23.03-.51.03-.45-.48M39.78 8.18s-.17-.45.42-.54c.59-.08.62.11.62.28s-.37.42-.37.42-.64.34-.67-.16M39.55 9.76s.08-.51.37-.65c.28-.14.68.11.71.26.03.14-.03.42-.23.62s-.54.28-.79.17c-.25-.12-.06-.4-.06-.4M39.33 12.28s-.17-.57.11-1.19.79-.79 1.19-.82c.4-.03.82.74-.08 1.7-.91.96-1.22.31-1.22.31M43.74 3.51s-.37-.06.03-.65c.4-.59.51-.51.6-.48.08.03.11.34-.17.71-.29.36-.46.42-.46.42M42.52 4.75s.31-.62.71-.57c.4.06.42.28.14.88-.28.59-.65.56-.74.54-.08-.03-.67-.08-.11-.85M41.05 6.93s.17-.93.99-.91c.82.03.54.85.37 1.13-.17.28-.45.59-.93.56-.48-.02-.51-.41-.43-.78" clip-path="url(#SVGID_13_)" fill="#f9c81e"/>
    <path d="M40.37 8.83s.08-.51.82-.59c.73-.08.54.57.4.85s-.4.54-.82.54c-.42-.01-.82-.41-.4-.8M46.03 3.9s.82.03.88-.71c.06-.74-.88-.68-.88-.68s-.99-.08-1.02.71c-.03.8 1.02.68 1.02.68M44.36 4.89s.2-.79 1.13-.54c1.17.32.85 1.05.79 1.24-.06.2-.31.79-1.19.48-.87-.3-.98-.61-.73-1.18M43.4 6.96s.25-.85 1.5-.31c1.24.54.73 1.22.73 1.22s-.2.62-1.33.23c-1.13-.41-1.1-.66-.9-1.14M42.66 8.91s.06-.76 1.39-.42c1.33.34.93 1.25.91 1.36-.03.11-.48.59-1.41.25-.94-.34-1.11-.6-.89-1.19M41.98 10.78s.28-.37 1.33-.06 1.08.68.99.88c-.08.2-.65.23-1.19.03-.53-.2-1.38-.26-1.13-.85M41.65 15.22s.88.65 1.27.03c.4-.62-.2-1.1-.82-1.1s-.74.84-.45 1.07M41.76 15.84s.74.45.48 1.1c-.26.65-1.02.28-1.19.28-.17 0-1.13-.34-.91-1.1.23-.76 1.48-.39 1.62-.28M40.4 19.21s.71.31.96-.48 0-1.02-.57-1.13c-.56-.11-.88.37-.88.73.01.37.04.74.49.88M40.12 19.77s.76.31.26.96c-.51.65-1.13.17-.99-.48.13-.65.73-.48.73-.48M46.31 1.92s-.54-.25-.06-.79c.48-.54.48-.4.62-.31.14.08.45.11.23.74-.22.62-.64.48-.79.36M47.1 6.34s.03-1.02.79-.74.65 1.13.62 1.27c-.03.14-.16.98-.9.48-.67-.45-.51-1.01-.51-1.01M46.54 8.43s.22-.54.93-.25c.71.28.59.82.57 1.02-.03.2-.34.54-.93.22-.6-.31-.71-.65-.57-.99M45.97 10.27s.11-.79 1.02-.25c.9.54.45 1.27.45 1.27s-.28.56-1.02.08c-.73-.48-.45-1.1-.45-1.1M45.69 12.93s-.54-.42-.4-.85c.14-.42.57-.11.79.03.22.14.79.71.62 1.02-.16.31-.95-.12-1.01-.2M44.67 13.89s.23-.51.82-.11.59.76.42.96c-.17.2-.34.4-.85 0-.5-.4-.47-.68-.39-.85M43.97 15.56s.4-.65.99-.14.31.85.11 1.05c-.2.2-.45.14-.71-.03-.25-.17-.65-.32-.39-.88M43.15 17.28s.37-.62.9-.26c.54.37.31 1.05.17 1.19-.14.14-.51.4-.99 0-.48-.39-.17-.84-.08-.93M28.75 11.74s-.57-.76.45-.99c1.02-.23.99.28 1.02.62.03.34.26 1.02-.34 1.19-.59.17-1.02-.6-1.13-.82M34.41 12.76s-.11-.62.2-.62.74.14.74.14-.14-.45-.17-.59c-.03-.14-.85-.23-.85-.9 0-.68.71-.37.71-.37L35 9.99s-.76-.37-.68-.99c.09-.62.42-.4.42-.4s-.06-.57.28-.71c0 0-.59-.08-.34-.76 0 0-.37-.31-.37-.54 0-.23-.31-.79.59-.79 0 0 .17-.45.68-.14s.82.62.26.91c0 0 .11.62-.08.79 0 0 .42.54-.03.74 0 0 .45.45.28.76-.17.31-.25.25-.25.25s.11.45.08.54c0 0 .57.25.54.88 0 0-.06.42-.57.39l-.08.45s1.05.2.93.99c-.11.79-.48.82-.48.82s-1.69.31-1.77-.42" clip-path="url(#SVGID_13_)" fill="#f9c81e"/>
    <path d="M28.87 21.34c.12-1.17.96-2.55.96-2.55s1.04-.58 1.41-.58c0 0 1.43.77 2.08.77.65 0 1.71-.21 2.33-.52.62-.31 1.71.31 1.74.4.03.09.56 1.38.53 2.03-.03.74.39 2.03.39 2.03.67.4.98-.15.98-.15l-.17-.24c.31.15.59-.16.59-.16s-.28-.92-.2-2.09c.08-1.17.42-2.43.42-2.43.96-.31 1.04-1.05 1.07-1.41.03-.37.17-.71.79-1.01.62-.31.65-.8.65-.8.87-.15 1.32-.55 1.32-.55s.82.09.85-.59c.03-.68-.4-.74-.73-.86-.34-.12-1.18-1.26-1.18-1.26s-.22-.46-.87-.43c-.65.03-1.04.06-1.04.06s-.31-.03-.42.62c-.02.11-.62.49-1.24.55-.62.06-1.1.18-2.22.4s-6.21-.06-6.86-.22c-.65-.15-1.63-.46-2.17.25-.22.28-.48.89-.48.89-.15.69-.21.71-.28 2.12 0 0-.23 1.84-.28 2.09-.06.25-.28.95.23 1.04 0 0 .34-.03.36-.49.03-.46.03-1.26 0-1.38-.03-.12-.22-1.54.14-2.67l.22 2.64s0 .65-.14.89c-.14.25-.14 1.44-.14 1.44s.06 1.41-.03 2.03c-.08.61-.14 1.35-.14 1.35s.39.18.82 0c0 0-.09-.49-.06-.98s0-.65.11-.77c0 0 .03.92.08 1.08.06.15.11.52.11.52s.42.19.73.03c.02-.01-.29-.81-.26-1.09" clip-path="url(#SVGID_13_)" fill="#231f20"/>
    <path class="st16" d="M21.07 17.4l.2-.11c.26-.14.34-.33.25-.49-.14-.27-.3-.27-.5-.16l-1.52.83c-.17.09-.23.23-.1.46.16.29.43.18.62.08l.28-.15.47.86-.38.21c-.53.29-1.09.13-1.58-.76-.44-.8-.26-1.3.37-1.64l1.26-.69c.67-.37 1.18-.17 1.61.62.4.74.38 1.32-.24 1.67l-.26.14-.48-.87zM22.65 21.44c-.6.51-1.13.53-1.77-.23-.65-.76-.56-1.29.04-1.8l1.09-.92c.51-.43 1.11-.31 1.67.35.56.66.58 1.25.06 1.69l-1.09.91zm.4-1.64c.16-.14.34-.32.13-.57-.2-.24-.43-.1-.59.04l-1.1.93c-.15.13-.35.35-.15.6.21.24.45.07.6-.06l1.11-.94zM23.25 23.41l-.78-.61 2.16-2.76 1.13.89c.64.5.79.96.36 1.51-.23.29-.48.44-.9.31l-.01.01c.18.21.24.45.11.66-.15.24-.52.72-.61.93-.01.05-.02.1 0 .16l-.03.04-.85-.66a.64.64 0 0 1 .08-.19c.18-.25.37-.47.48-.65.11-.19.13-.34-.04-.5l-.26-.2-.84 1.06zm1.24-1.59l.26.21c.22.18.41.04.54-.12.26-.33.1-.47-.28-.76l-.52.67zM27 23.55l-.02.01-.78 1.79-.84-.42 1.55-3.13.91.44-.18 2.09.01.01.78-1.79.84.41-1.55 3.14-.9-.45zM30.19 26.88l.6-3.45 2.28.39-.12.69-1.31-.23-.11.62 1.21.21-.12.69-1.21-.21-.25 1.45zM33.36 27.34l-.04-3.5 2.26-.02.01.7-1.28.01.01.64 1.23-.01.01.7-1.23.01.01.76 1.33-.01.01.7zM36.6 27.23l-.7-3.43 1.05-.21c.35-.07.78-.15 1.12-.07.41.11.54.43.61.76l.31 1.52c.06.34-.01.62-.26.82-.22.19-.53.27-.82.34l-1.31.27zm.84-.82c.66-.1.62-.32.51-.77l-.23-1.12c-.09-.4-.25-.39-.73-.3l.45 2.19zM41.59 25.81l-1.68-3.07 1.12-.61c.65-.36 1.26-.46 1.6.16.15.27.16.58-.06.88l.01.01c.5-.03.67.09.88.47.34.62.06 1.12-.64 1.5l-1.23.66zm-.15-2.34c.37-.23.55-.31.36-.67-.17-.3-.41-.15-.71.01l.35.66zm.72 1.31c.43-.24.62-.32.4-.73-.19-.36-.43-.21-.81-.02l.41.75zM44.67 24l-2.24-2.69 1.74-1.44.45.54-.98.81.41.49.95-.78.45.53-.95.79.48.58 1.03-.85.45.54zM47.09 21.88l-2.69-2.24 1.45-1.74.54.45-.82.98.5.41.79-.95.53.45-.78.95.58.48.85-1.03.54.45zM49.1 19.33l-3.05-1.71 1.13-2.03.61.35-.65 1.16.54.3.6-1.07.61.35-.6 1.07 1.29.72zM49.1 13.38h-.31v-.11h.76v.11h-.32v.92h-.13zM50.53 13.85c-.01-.14-.02-.32-.02-.44-.04.12-.08.25-.13.39l-.18.5h-.1l-.17-.49a4.33 4.33 0 0 1-.12-.4c-.01.13-.01.3-.02.46l-.03.44h-.13l.07-1.03h.17l.18.5c.04.12.08.24.1.35.03-.1.06-.22.11-.35l.18-.5h.17l.06 1.03h-.13l-.01-.46z"/>
    <path clip-path="url(#SVGID_13_)" fill="#f9c81e" d="M52.57.24l-.36-.61-1.08.63-.12-.21 1.08-.63-.35-.61.19-.11.83 1.43zM51.68 1.28l-.11-.21L52.88.4l.11.22zM53.6 2.53l-.49-1.14-.34.15.34.79-.21.09-.34-.8-.6.26-.09-.22 1.35-.58.58 1.36z"/>
    <path transform="rotate(-19.622 53.246 3.096)" clip-path="url(#SVGID_13_)" fill="#f9c81e" d="M52.51 2.97h1.47v.24h-1.47z"/>
    <path clip-path="url(#SVGID_13_)" fill="#f9c81e" d="M53.16 5.33l-.42-1.48 1.41-.41.41 1.43-.21.06-.34-1.19-.37.1.24.83-.21.06-.24-.83-.42.12.36 1.25zM54.84 6.27c.05.25.01.46-.09.63-.11.17-.27.28-.5.32a.669.669 0 0 1-.56-.14.817.817 0 0 1-.29-.51l-.17-.96 1.45-.26.16.92zm-1.22.28c.03.14.09.25.2.33.11.08.24.1.38.07.16-.03.27-.1.35-.22.08-.12.1-.26.07-.42l-.12-.7-1.02.18.14.76zM53.7 10.4l-.01-.27.33-.18-.02-.98-.33-.16-.01-.27 1.49.75.01.31-1.46.8zm.54-.56l.7-.39-.72-.36.02.75z"/>
    <path d="M53.56 12.24l.02-.27.34-.15.08-.98-.32-.19.02-.27 1.41.88-.02.31-1.53.67zm.59-.51l.74-.32-.68-.43-.06.75z" clip-path="url(#SVGID_13_)" fill="#f9c81e"/>
    <path d="M53.25 14.06l.05-.26.35-.11.17-.98-.3-.22.04-.26 1.32 1.01-.05.3-1.58.52zm.64-.46l.77-.25-.64-.49-.13.74zM53.41 16.16a.37.37 0 0 1-.21-.18.36.36 0 0 1-.02-.27c.03-.1.09-.17.17-.22.09-.05.18-.06.27-.03.09.03.16.09.21.18.04.09.05.18.02.28a.38.38 0 0 1-.17.22c-.09.04-.18.05-.27.02M52.54 19.34l.02-.23c.21-.07.37-.23.48-.47.08-.18.11-.36.07-.52a.482.482 0 0 0-.28-.34c-.15-.07-.3-.07-.45 0s-.26.21-.36.4c-.11.24-.12.45-.04.66l-.19.14a.872.872 0 0 1-.09-.44c.01-.15.05-.3.13-.47.11-.24.26-.4.45-.51.22-.11.44-.12.66-.02.21.1.35.27.4.52.05.21.01.44-.09.67-.17.33-.4.53-.71.61M50.56 20.46l.79-1.32 1.26.75-.76 1.27-.19-.11.64-1.06-.33-.2-.44.74-.19-.11.44-.74-.37-.22-.66 1.11zM49.41 22.04l.17-.23.69.01.44-.6-.45-.33.14-.2 1.19.87-.69.94c-.09.12-.2.2-.32.22a.456.456 0 0 1-.35-.09.417.417 0 0 1-.18-.26c-.02-.1 0-.2.06-.3l-.7-.03zm.95.03c-.11.15-.11.27.02.36.13.1.26.06.38-.1l.51-.69-.38-.28-.53.71zM49.19 24.18l.47-.53-.94-.83.17-.18.93.83.47-.53.16.15-1.09 1.23z" clip-path="url(#SVGID_13_)" fill="#f9c81e"/>
    <path transform="rotate(-45.001 48.528 24.1)" clip-path="url(#SVGID_13_)" fill="#f9c81e" d="M48.41 23.36h.24v1.47h-.24z"/>
    <path clip-path="url(#SVGID_13_)" fill="#f9c81e" d="M47.35 25.88l.93-.82-.26-.28-.64.57-.15-.16.65-.57-.44-.5.19-.16.97 1.1-1.11.99zM46.14 25.22l.2-.15.9 1.16-.19.15zM44.55 26.35l1.27-.87.83 1.22-1.22.83-.13-.18 1.03-.7-.22-.31-.71.49-.12-.19.71-.48-.25-.36-1.07.73zM44.19 28.24c-.22.12-.44.16-.63.11a.69.69 0 0 1-.46-.38.671.671 0 0 1-.04-.57c.07-.19.2-.33.39-.43l.86-.47.7 1.29-.82.45zm-.66-1.07a.492.492 0 0 0-.2.69c.08.14.18.23.32.26.13.04.27.01.42-.06l.62-.34-.49-.91-.67.36zM39.9 28.45l.25-.09.27.25.93-.33.05-.37.25-.09-.24 1.65-.29.1-1.22-1.12zm.71.33l.59.55.12-.8-.71.25z"/>
    <path d="M38.11 28.89l.26-.06.24.28.96-.24.08-.36.26-.06-.4 1.62-.3.08-1.1-1.26zm.67.4l.54.6.2-.78-.74.18z" clip-path="url(#SVGID_13_)" fill="#f9c81e"/>
    <path d="M36.29 29.17l.26-.04.22.3.98-.15.12-.35.26-.04-.55 1.57-.3.04-.99-1.33zm.63.46l.48.65.27-.76-.75.11zM34.34 29.97c0-.09.03-.18.11-.25.07-.07.15-.1.25-.1s.19.03.26.09c.08.07.12.15.12.25s-.03.18-.11.25a.34.34 0 0 1-.26.1c-.1 0-.19-.03-.26-.09a.34.34 0 0 1-.11-.25M31.06 30.15l.23-.05c.13.17.33.28.6.31.2.02.37-.01.51-.1s.22-.21.24-.37a.486.486 0 0 0-.14-.42c-.11-.12-.28-.19-.49-.21-.26-.03-.47.03-.64.17l-.19-.14c.12-.11.25-.18.39-.22.14-.04.3-.05.49-.03.26.03.47.12.62.27.18.17.25.38.23.61a.69.69 0 0 1-.36.54c-.19.11-.41.15-.66.12-.4-.05-.67-.21-.83-.48M29.36 28.63l1.51.32-.32 1.44-1.45-.31.05-.22 1.21.27.08-.37-.84-.19.05-.21.84.18.09-.42-1.27-.28zM27.5 28.04l.27.09.21.66.71.23.17-.53.23.07-.45 1.4-1.1-.36c-.15-.05-.25-.12-.31-.23a.411.411 0 0 1-.02-.36c.04-.12.1-.2.19-.25.08-.05.19-.06.3-.04l-.2-.68zm.28.91c-.18-.06-.29-.01-.34.13-.05.15.02.26.22.33l.82.26.15-.45-.85-.27zM25.4 28.5l.65.27.49-1.15.23.1-.5 1.15.65.28-.09.2-1.51-.65z" clip-path="url(#SVGID_13_)" fill="#f9c81e"/>
    <path transform="rotate(-63.224 25.275 27.839)" clip-path="url(#SVGID_13_)" fill="#f9c81e" d="M24.54 27.72h1.47v.24h-1.47z"/>
    <path clip-path="url(#SVGID_13_)" fill="#f9c81e" d="M23.21 27.27l1.07.63.19-.33-.74-.43.11-.19.74.43.33-.56.21.12-.74 1.27-1.28-.75z"/>
    <path transform="rotate(-56.179 23.156 26.602)" clip-path="url(#SVGID_13_)" fill="#f9c81e" d="M22.42 26.48h1.47v.24h-1.47z"/>
    <path clip-path="url(#SVGID_13_)" fill="#f9c81e" d="M21.89 24.76l1.22.93-.89 1.17-1.18-.9.13-.17.99.75.23-.3-.69-.52.14-.18.68.53.27-.35-1.03-.79zM19.99 25.01c-.19-.17-.29-.36-.3-.57-.02-.2.05-.39.21-.55.14-.15.32-.23.53-.22.2.01.38.08.53.23l.71.67-1.01 1.07-.67-.63zm.81-.96a.473.473 0 0 0-.36-.14.47.47 0 0 0-.35.17c-.11.12-.16.24-.15.38.01.14.07.27.19.38l.52.48.71-.75-.56-.52zM18.43 21.01l.16.21-.16.34.61.78.36-.07.16.21-1.64.29-.19-.24.7-1.52zm-.09.78l-.33.73.8-.14-.47-.59z"/>
    <path d="M17.45 19.45l.14.23-.19.32.53.84.37-.03.14.22-1.66.13-.16-.26.83-1.45zm-.17.77l-.4.7.81-.06-.41-.64z" clip-path="url(#SVGID_13_)" fill="#f9c81e"/>
    <path d="M16.62 17.81l.12.24-.22.3.45.88h.37l.12.24-1.66-.03-.14-.27.96-1.36zm-.24.74l-.47.66.81.02-.34-.68zM15.24 16.21c.09-.03.18-.02.27.02.09.04.15.11.18.21.03.1.03.19-.01.28a.34.34 0 0 1-.2.19c-.09.03-.18.02-.27-.02a.317.317 0 0 1-.18-.21c-.03-.1-.03-.19.01-.27.05-.1.11-.17.2-.2M14.05 13.14l.12.2c-.12.18-.16.4-.11.66.04.2.13.35.25.45a.517.517 0 0 0 .79-.16c.08-.15.09-.32.05-.53-.05-.25-.17-.44-.36-.55l.07-.23c.14.08.25.18.33.3.08.12.14.27.18.45.05.26.03.48-.06.67-.11.22-.28.36-.51.41a.684.684 0 0 1-.63-.18c-.16-.14-.27-.34-.32-.59-.08-.35-.01-.66.2-.9M14.97 11.06l.16 1.53-1.47.15-.15-1.47.22-.03.12 1.24.38-.04-.09-.86.22-.02.09.85.43-.04-.13-1.29zM14.94 9.11v.28l-.56.4v.74h.56v.24l-1.47.01-.01-1.16c0-.15.04-.28.12-.37.08-.09.2-.13.34-.13a.4.4 0 0 1 .3.11c.07.07.12.16.14.27l.58-.39zm-.77.55c0-.19-.08-.28-.23-.28-.16 0-.24.1-.24.31l.01.86h.47l-.01-.89zM13.84 7.26l-.06.7 1.25.11-.02.24-1.25-.1-.06.7-.22-.02.15-1.65zM15.17 6.92l-.03.24-1.46-.22.04-.24zM14.31 4.79L14.06 6l.37.08.17-.84.22.04-.18.85.64.13-.05.24-1.44-.3.31-1.45z" clip-path="url(#SVGID_13_)" fill="#f9c81e"/>
    <path transform="rotate(-74.538 14.933 4.532)" clip-path="url(#SVGID_13_)" fill="#f9c81e" d="M14.81 3.8h.24v1.47h-.24z"/>
    <path clip-path="url(#SVGID_13_)" fill="#f9c81e" d="M16.28 2.75l-.5 1.45-1.39-.48.48-1.4.21.07-.4 1.17.35.13.29-.82.2.07-.28.82.41.14.43-1.22zM15.45 1.02c.11-.23.25-.39.44-.47.19-.08.38-.07.59.03.19.09.32.23.38.44.06.19.04.38-.05.58l-.41.89-1.34-.62.39-.85zm1.16.47c.06-.13.07-.26.02-.39a.527.527 0 0 0-.27-.28.493.493 0 0 0-.41-.02.55.55 0 0 0-.3.3l-.3.64.94.43.32-.68z"/>
  </g>
  <g>
    <defs>
      <path id="SVGID_57_" d="M12-70.47h44.64V-24H12z"/>
    </defs>
    <clipPath id="SVGID_15_">
      <use xlink:href="#SVGID_57_" overflow="visible"/>
    </clipPath>
    <g clip-path="url(#SVGID_15_)">
      <defs>
        <path id="SVGID_59_" d="M34.32 44.66c-12.08 0-21.88 9.8-21.88 21.88 0 12.08 9.8 21.88 21.88 21.88s21.89-9.8 21.89-21.88c0-12.08-9.81-21.88-21.89-21.88m0 38.32c-9.07 0-16.43-7.36-16.43-16.43 0-9.08 7.36-16.43 16.43-16.43 9.08 0 16.43 7.36 16.43 16.43S43.4 82.98 34.32 82.98"/>
      </defs>
      <clipPath id="SVGID_17_">
        <use xlink:href="#SVGID_59_" overflow="visible"/>
      </clipPath>
      <g clip-path="url(#SVGID_17_)">
        <defs>
          <path id="SVGID_61_" d="M12.44 44.66h43.77v43.77H12.44z"/>
        </defs>
        <clipPath id="SVGID_19_">
          <use xlink:href="#SVGID_61_" overflow="visible"/>
        </clipPath>
        <radialGradient id="SVGID_21_" cx="1.503" cy="-530.117" r="1" gradientTransform="matrix(21.8831 0 0 -21.8831 1.439 -11534.093)" gradientUnits="userSpaceOnUse">
          <stop offset="0" stop-color="#fff"/>
          <stop offset=".362" stop-color="#fdfdfd"/>
          <stop offset=".513" stop-color="#f6f6f6"/>
          <stop offset=".624" stop-color="#e9eaea"/>
          <stop offset=".716" stop-color="#d8d8d9"/>
          <stop offset=".796" stop-color="#c1c1c2"/>
          <stop offset=".868" stop-color="#a5a5a6"/>
          <stop offset=".934" stop-color="#838485"/>
          <stop offset=".993" stop-color="#5d5e60"/>
          <stop offset="1" stop-color="#58595b"/>
        </radialGradient>
        <path clip-path="url(#SVGID_19_)" fill="url(#SVGID_21_)" d="M12.44 44.66h43.77v43.77H12.44z"/>
      </g>
    </g>
  </g>
  <g>
    <defs>
      <path id="SVGID_64_" d="M12-70.47h44.64V-24H12z"/>
    </defs>
    <clipPath id="SVGID_23_">
      <use xlink:href="#SVGID_64_" overflow="visible"/>
    </clipPath>
    <path class="st43" d="M21.21 66.55c0-7.24 5.87-13.11 13.11-13.11s13.11 5.87 13.11 13.11c0 7.24-5.87 13.11-13.11 13.11s-13.11-5.87-13.11-13.11"/>
    <path d="M34.32 48.06c-10.21 0-18.48 8.28-18.48 18.48 0 10.21 8.28 18.48 18.48 18.48 10.21 0 18.48-8.27 18.48-18.48 0-10.2-8.27-18.48-18.48-18.48m0 31.62c-7.25 0-13.13-5.88-13.13-13.13 0-7.25 5.88-13.13 13.13-13.13 7.26 0 13.13 5.88 13.13 13.13 0 7.25-5.87 13.13-13.13 13.13" clip-path="url(#SVGID_23_)" fill="#f9c81e"/>
    <path d="M34.32 48.49c-9.97 0-18.06 8.08-18.06 18.06S24.35 84.6 34.32 84.6s18.06-8.08 18.06-18.06-8.09-18.05-18.06-18.05m0 31.61c-7.49 0-13.56-6.07-13.56-13.56s6.07-13.56 13.56-13.56 13.56 6.07 13.56 13.56S41.81 80.1 34.32 80.1" clip-path="url(#SVGID_23_)" fill="#231f20"/>
    <path d="M27.73 75.71s-1.81.06-2.94-1.07c-1.13-1.13-2.38-3.68-4.81-3.22 0 0 1.47-.85 3.17-.51 0 0-1.81-2.09-2.38-3.62-.57-1.53-2.72-5.15-3.9-4.53 0 0 1.87-1.08 3.28.34 0 0-1.3-5.2.96-6.39 0 0 1.53-.91 3.79 1.7 0 0 1.25.17 1.87.9 0 0 .28-1.75-.74-2.72 0 0 .57.34 1.02 1.07 0 0 .34-4.13 2.43-4.3 2.09-.17 3.34 2.38 3.9 3.39 0 0 .96.23 1.13.45 0 0 1.07-1.87-.06-2.83 0 0 1.08 1.19 1.08 2.77 0 0 1.19-4.02 3.34-3.73 0 0 2.09-.06 2.43 5.54 0 0 1.3-.96 1.3-3.56 0 0 .74 1.64-.4 4.7l.23.9s2.49-4.86 5.26-3.9c2.77.96.85 6.79.85 6.79s2.72-1.92 2.66-3.28c0 0 .79 1.7-3.56 6.68 0 0 2.09-.51 2.6-.34 0 0-1.53-.45-4.07 5.09 0 0-1.36 2.66-4.53 3.73 0 0-.62.57-.74 1.02-.11.45-1.24 1.24-2.15.4l.23-2.26-3.11-.96-1.56 1.64s-1.39.51-2.01 0l-.74-1.92s-.57-.34-1.13-.23c0 0-.62 1.25-.28 2.04 0 0 .73 1.92-1.25 1.87l-1.17-1.65z" clip-path="url(#SVGID_23_)" fill="#2fb357"/>
    <path d="M20.01 57.71s-.1 1.64.57 1.22c.67-.43-.45-1.2-.57-1.22M20.28 60.09s-.1-.42.3-.54c.4-.12.57.32.65.62.08.3.18.82-.15.87-.33.05-.65.07-.8-.95M20.65 62.03s0-.37.47-.42c.47-.05.5.27.5.27s.6.67.03.8c-.57.12-1.02.32-1-.65M21.05 64.06s-.12-.49.45-.52c.57-.03.87-.12.97.55.1.67-.12.87-.52.89-.4.03-.87-.25-.9-.92M21.55 57.3s0 .81.21.98c.21.17.81.29.59-.21-.21-.52-.63-1.03-.8-.77M22.26 60.08s-.34-.94.26-1.13c.59-.2.9.85.93 1.02.02.17-.97.93-1.19.11M23.22 60.73s-.48.11-.37 1.02c.11.9.9.71 1.16.51.25-.2.59-.54.23-1.19-.37-.65-.91-.45-1.02-.34M23.42 63.79s-.28-.54.59-.99c.88-.45 1.05-.28 1.27.31.23.59-.07.86-.62 1.02-.4.11-1.05.14-1.24-.34M24.18 65.65s-.31-.53.37-.9c.68-.37 1.27-.68 1.58-.08.31.59-.04.7-.59 1.13-.4.31-1.19.42-1.36-.15M24.04 58.75s-.31-.25-.03-.54c.28-.28.42.31.42.31s.37.37.2.54c-.17.17-.59-.31-.59-.31M25 60.31s-.5-.42-.11-.74c.31-.25.59.14.74.31.14.17.57.62.17.88-.4.26-.6 0-.8-.45M26.02 61.38s.31-.51.65.06c.34.57.76.96.14 1.3-.62.34-.73-.37-.88-.71-.08-.19-.36-.22.09-.65M27.01 63.02s-.4.23-.11.96c.28.74.68.57.88.51.2-.06.59-.54.14-1.1-.46-.56-.8-.42-.91-.37M27.96 56.13s-.35-.16-.03-.6c.32-.45.67-.51.7-.19.03.31-.22.88-.67.79M27.43 57.68s0-.57.41-.67c.41-.1.92-.44.92.29s-.32.89-.64.92c-.31.03-.69.35-.69-.54M28 59.21s-.67.06-.63 1.01c.03.95.51.86.92.63.41-.22.73-.48.67-1.21-.08-.72-.65-.65-.96-.43" clip-path="url(#SVGID_23_)" fill="#231f20"/>
    <path d="M27.46 62.54s-.11-.49.6-.79c.73-.32.92-.41 1.21.29.28.7-.48.98-.67.98-.19 0-1.14.47-1.14-.48M28.44 63.59s1.14-.41 1.18.16c.03.57.19 1.21-.73 1.27-.92.06-1.14-.06-1.17-.38-.04-.32-.07-.58.72-1.05" clip-path="url(#SVGID_23_)" fill="#231f20"/>
    <path d="M28.41 66.25s-.51.03-.64-.57c-.12-.6.16-.79.35-.86.19-.06.73-.06.76.54.04.61-.47.89-.47.89M29.9 54.57s-.32.26-.06.64.38.41.76.41.48-.25.25-.7c-.22-.44-.54-.89-.95-.35M29.71 57.01s-.16-.73.82-.83c.98-.09 1.14.45 1.14.54s.41.99-.7.99c-1.1 0-1.26-.7-1.26-.7M30 59.24s-.22-.86.98-.98c1.21-.13 1.27.67 1.27.76 0 .09.38.95-.92.95s-1.27-.35-1.33-.73M30.35 61.62s-.22-.63.44-.86c.67-.22 1.94-.54 2.22.54.29 1.08-.89.86-1.27.89-.38.03-1.27.19-1.39-.57M30.76 63.78s-.29-.89 1.14-1.11c1.43-.22 1.53.54 1.53.79s-.04.7-1.11.83c-.8.09-1.31.06-1.56-.51M31.17 65.65s.13-.73 1.21-.73c1.15 0 1.46.13 1.46.51s-.76.44-1.27.44-.99.45-1.4-.22M33.34 57.68s-.42 0-.68-.64c-.26-.64 0-.55.13-.6.13-.03.6.73.55 1.24M33.34 59.26s-.42-.82.11-.91c.47-.07.68.51.73.62.06.11.57.76.14.93-.41.18-.86-.1-.98-.64M34.42 60.54s-.95-.15-.42.99c.39.85.79.71.79.71s.79.28.79-.17c0-.46-.09-1.65-1.16-1.53M37.45 55.39s-.37 0-.14-.51c.17-.38.34-.43.42-.37.08.06.34.9-.28.88M36.82 56.49s.03-.57.45-.54c.42.03.26 1.13-.14 1.16-.39.03-.34-.45-.31-.62M36.17 58.13s0-.54.59-.54c.54 0 .34.51.34.59 0 .09 0 .54-.54.45-.53-.07-.39-.5-.39-.5M35.78 59.77s0-.79.51-.65c.61.17.86.41.54.96-.2.34-.34.45-.68.34-.34-.11-.37-.51-.37-.65" clip-path="url(#SVGID_23_)" fill="#231f20"/>
    <path d="M35.47 61.24s-.03-.45.56-.28c.59.17.51.48.48.68-.03.2-.17.54-.68.34s-.36-.74-.36-.74M39 55.67s-.45.11-.28-.57c.17-.68.45-.59.48-.06.03.54-.2.63-.2.63M38.32 56.83s.17-.59.59-.59.37.65.34.76c-.03.11 0 .42-.54.34-.53-.09-.39-.37-.39-.51M38.04 58.53s-.11-.62.68-.68c.79-.06.71.62.68.71-.03.08-.03.76-.71.73-.68-.03-.68-.34-.65-.76M37.7 60.25s-.06-.54.79-.59c.85-.06.88.42.88.59 0 .17-.03.79-.65.74-.62-.06-.94-.29-1.02-.74M37.47 61.98s-.11-.76.96-.65c1.07.11.9.37.9.65s-.06.6-.82.57c-.75-.04-1.01-.21-1.04-.57M37.19 63.53s.03-.48 1.1-.42c.57.03.99.28.93.74-.05.4-.28.54-1.1.34-.81-.2-.81-.32-.93-.66M37.02 65.09s-.03-.51.85-.37 1.33-.23 1.33.45c0 .51-.71.34-1.02.34-.31 0-1.07 0-1.16-.42M40.13 56.77s-.03-.45.17-.43c.2.03.31.26.31.37 0 .11.03.51-.14.51-.17.01-.28-.25-.34-.45M40.25 58.21s-.14-.57.26-.62c.4-.06.37.37.37.56 0 .2.11.76-.28.76-.41.01-.38-.44-.35-.7M40.22 60.08s-.23-.57.34-.65c.57-.08.54.71.54.71s-.08.65-.45.65c-.38 0-.52-.25-.43-.71M40.16 61.78s-.09-.62.42-.68c.51-.06.59.48.57.62-.03.14.03.6-.45.65-.48.06-.48-.03-.57-.08-.08-.06-.08-.4.03-.51M40.16 63.5s-.09-.59.42-.62c.51-.03.51.48.48.59-.03.11-.23.48-.45.51-.22.03-.51.03-.45-.48M39.99 65.09s-.17-.45.43-.54c.59-.09.62.11.62.28s-.37.42-.37.42-.65.35-.68-.16M43.95 60.42s-.37-.06.03-.65c.4-.59.51-.51.6-.48.09.03.11.34-.17.71-.29.36-.46.42-.46.42M42.73 61.67s.31-.62.71-.57c.39.06.42.28.14.88-.28.6-.65.57-.74.54-.08-.03-.67-.09-.11-.85M41.26 63.84s.17-.93.99-.9c.82.03.54.85.37 1.13-.17.28-.45.59-.93.56-.48-.02-.51-.42-.43-.79M46.24 60.82s.82.03.88-.71c.06-.74-.88-.68-.88-.68s-.99-.08-1.02.71c-.02.79 1.02.68 1.02.68M44.57 61.81s.2-.79 1.13-.54c1.17.32.85 1.05.79 1.24-.06.2-.31.79-1.19.48-.87-.31-.98-.62-.73-1.18M43.61 63.87s.26-.85 1.5-.31c1.25.54.74 1.22.74 1.22s-.2.62-1.33.23c-1.13-.4-1.11-.66-.91-1.14M46.52 58.84s-.54-.25-.06-.79c.48-.54.48-.4.62-.31s.45.11.23.74c-.22.61-.64.47-.79.36M47.32 63.25s.03-1.02.79-.74c.77.28.65 1.13.62 1.27-.03.14-.16.98-.9.48-.68-.45-.51-1.01-.51-1.01M34.62 69.67s-.11-.62.2-.62.74.14.74.14-.14-.45-.17-.59c-.03-.14-.85-.23-.85-.9 0-.68.71-.37.71-.37l-.03-.42s-.76-.37-.68-.99c.09-.62.42-.39.42-.39s-.06-.56.28-.71c0 0-.59-.08-.34-.76 0 0-.37-.31-.37-.54 0-.23-.31-.79.6-.79 0 0 .17-.45.68-.14s.82.62.25.91c0 0 .11.62-.08.79 0 0 .42.54-.03.74 0 0 .45.45.28.76-.17.31-.25.26-.25.26s.11.45.08.54c0 0 .57.26.54.88 0 0-.06.42-.57.4l-.08.45s1.05.2.93.99c-.11.79-.48.82-.48.82s-1.7.28-1.78-.46" clip-path="url(#SVGID_23_)" fill="#231f20"/>
    <path d="M19.8 57.49s-.1 1.64.57 1.22c.67-.42-.45-1.19-.57-1.22M20.07 59.88s-.1-.42.3-.55c.4-.12.57.32.65.62.07.3.17.82-.15.87-.33.05-.65.08-.8-.94M20.44 61.82s0-.37.47-.42c.47-.05.5.27.5.27s.6.67.02.79c-.56.13-1.01.33-.99-.64M20.84 63.85s-.12-.5.45-.52c.57-.03.87-.12.97.55.1.67-.12.87-.52.89-.4.03-.87-.25-.9-.92M21.34 57.08s0 .81.21.98c.21.17.81.3.59-.21-.21-.51-.63-1.02-.8-.77M22.04 59.87s-.34-.93.25-1.13c.59-.2.91.85.93 1.02.04.17-.95.93-1.18.11M23.01 60.52s-.48.11-.37 1.02c.11.9.91.71 1.16.51.25-.2.59-.54.23-1.19-.37-.65-.91-.45-1.02-.34M23.2 63.58s-.28-.54.59-.99c.88-.45 1.05-.28 1.27.31.23.6-.07.86-.62 1.02-.39.11-1.04.14-1.24-.34M23.97 65.44s-.31-.54.37-.9c.68-.37 1.27-.68 1.58-.09.31.6-.05.7-.59 1.13-.4.31-1.19.43-1.36-.14M23.83 58.54s-.31-.25-.03-.54c.28-.28.42.31.42.31s.37.37.2.54c-.17.17-.59-.31-.59-.31M24.79 60.1s-.5-.42-.11-.74c.31-.26.59.14.74.31.14.17.57.62.17.88-.41.25-.6 0-.8-.45M25.81 61.17s.31-.51.65.06c.34.57.76.96.14 1.3-.62.34-.73-.36-.88-.71-.08-.19-.37-.23.09-.65M26.8 62.81s-.4.23-.11.96c.28.74.68.57.88.51.2-.06.6-.54.14-1.1-.46-.57-.8-.43-.91-.37M27.75 55.91s-.35-.16-.03-.6c.32-.44.67-.51.7-.19.03.32-.22.89-.67.79M27.21 57.47s0-.57.41-.66c.41-.1.92-.45.92.28s-.32.89-.63.92c-.32.03-.7.35-.7-.54M27.79 58.99s-.67.06-.64 1.02c.03.95.51.86.92.63.41-.22.73-.48.67-1.21-.07-.72-.64-.66-.95-.44" clip-path="url(#SVGID_23_)" fill="#f9c81e"/>
    <path d="M27.24 62.33s-.1-.48.6-.79c.73-.32.92-.41 1.21.29.28.7-.48.99-.67.99-.18-.02-1.14.46-1.14-.49M28.23 63.37s1.14-.41 1.17.16c.03.57.19 1.21-.73 1.27-.92.06-1.14-.06-1.17-.38-.03-.32-.07-.57.73-1.05" clip-path="url(#SVGID_23_)" fill="#f9c81e"/>
    <path d="M28.2 66.04s-.51.03-.64-.57.16-.79.35-.86c.19-.07.73-.07.76.54.03.61-.47.89-.47.89M29.69 54.36s-.32.25-.06.63.38.41.76.41.48-.25.25-.7c-.22-.44-.54-.88-.95-.34M29.5 56.8s-.16-.73.82-.82c.98-.1 1.14.44 1.14.54 0 .1.41.98-.7.98s-1.26-.7-1.26-.7M29.78 59.03s-.22-.86.98-.98c1.21-.13 1.27.67 1.27.76 0 .09.38.95-.92.95-1.29 0-1.26-.35-1.33-.73M30.13 61.41s-.22-.64.44-.86c.67-.22 1.94-.54 2.22.54.28 1.08-.89.86-1.27.89-.37.03-1.26.19-1.39-.57M30.55 63.57s-.29-.89 1.14-1.11c1.43-.22 1.52.54 1.52.8 0 .25-.04.7-1.11.82-.79.09-1.3.06-1.55-.51M30.96 65.44s.13-.73 1.2-.73c1.15 0 1.46.12 1.46.51 0 .38-.76.44-1.27.44-.5 0-.98.44-1.39-.22M33.13 57.47s-.42 0-.68-.64c-.26-.64 0-.55.13-.6.13-.04.6.73.55 1.24M33.13 59.05s-.42-.82.11-.9c.48-.08.68.51.74.62.06.11.57.76.14.93-.42.17-.87-.11-.99-.65M34.21 60.32s-.96-.15-.43.99c.4.85.79.71.79.71s.79.28.79-.17c.01-.45-.08-1.64-1.15-1.53M37.23 55.17s-.37 0-.14-.51c.17-.38.34-.42.42-.37.09.06.35.91-.28.88M36.61 56.28s.03-.56.45-.54c.42.03.26 1.13-.14 1.16-.39.03-.34-.45-.31-.62M35.96 57.92s0-.54.6-.54c.54 0 .34.51.34.59 0 .09 0 .54-.54.45-.54-.08-.4-.5-.4-.5M35.57 59.56s0-.79.51-.65c.61.17.86.41.54.96-.2.34-.34.45-.68.34-.35-.11-.37-.51-.37-.65" clip-path="url(#SVGID_23_)" fill="#f9c81e"/>
    <path d="M35.25 61.03s-.03-.45.56-.28c.59.17.51.48.48.68-.03.2-.17.54-.68.34-.5-.2-.36-.74-.36-.74M38.79 55.46s-.45.11-.28-.56c.17-.68.45-.59.48-.06.02.53-.2.62-.2.62M38.11 56.62s.17-.59.59-.59c.42 0 .37.65.34.76-.03.11 0 .42-.54.34-.53-.09-.39-.37-.39-.51M37.83 58.31s-.11-.62.68-.68c.79-.06.71.62.68.71-.03.09-.03.77-.71.74-.68-.03-.68-.34-.65-.77M37.49 60.04s-.06-.54.79-.59c.85-.06.88.42.88.59 0 .17-.03.79-.65.74-.63-.06-.94-.29-1.02-.74M37.26 61.77s-.11-.76.96-.65c1.07.11.9.37.9.65s-.06.59-.82.56c-.76-.03-1.01-.2-1.04-.56M36.98 63.32s.03-.48 1.1-.43c.57.03.99.28.93.74-.05.4-.28.54-1.1.34-.82-.2-.82-.31-.93-.65M36.81 64.88s-.03-.51.85-.37 1.33-.23 1.33.45c0 .51-.71.34-1.02.34-.31 0-1.08 0-1.16-.42M39.92 56.56s-.03-.45.17-.42c.2.03.31.25.31.37 0 .11.03.51-.14.51-.17-.01-.28-.26-.34-.46M40.03 58s-.14-.57.26-.62c.4-.06.37.37.37.57 0 .2.11.76-.28.76-.4 0-.38-.45-.35-.71M40.01 59.87s-.23-.57.34-.65c.56-.08.54.71.54.71s-.09.65-.45.65c-.38 0-.52-.26-.43-.71M39.95 61.57s-.08-.62.42-.68c.51-.06.59.48.57.62-.03.14.03.59-.45.65-.48.06-.48-.03-.57-.09-.08-.05-.08-.39.03-.5M39.95 63.29s-.08-.59.42-.62c.51-.03.51.48.48.59-.03.11-.23.48-.45.51-.23.03-.51.03-.45-.48M39.78 64.88s-.17-.45.42-.54c.59-.08.62.11.62.28 0 .17-.37.42-.37.42s-.64.35-.67-.16M43.74 60.21s-.37-.06.03-.65c.4-.6.51-.51.6-.48.08.03.11.34-.17.71-.29.36-.46.42-.46.42M42.52 61.46s.31-.62.71-.57c.4.06.42.28.14.88-.28.59-.65.56-.74.54-.08-.03-.67-.09-.11-.85M41.05 63.63s.17-.93.99-.91c.82.03.54.85.37 1.13-.17.28-.45.59-.93.56-.48-.01-.51-.41-.43-.78M40.37 65.53s.08-.51.82-.59c.73-.08.54.57.4.85s-.4.54-.82.54c-.42-.01-.82-.41-.4-.8M46.03 60.61s.82.03.88-.71c.06-.74-.88-.68-.88-.68s-.99-.08-1.02.71c-.03.79 1.02.68 1.02.68M44.36 61.59s.2-.79 1.13-.54c1.17.32.85 1.05.79 1.24-.06.2-.31.79-1.19.48-.87-.3-.98-.61-.73-1.18M43.4 63.66s.25-.85 1.5-.31c1.24.54.73 1.22.73 1.22s-.2.62-1.33.23c-1.13-.4-1.1-.66-.9-1.14M46.31 58.62s-.54-.25-.06-.79c.48-.54.48-.4.62-.31.14.08.45.11.23.74-.22.62-.64.48-.79.36M47.1 63.04s.03-1.02.79-.73c.76.28.65 1.13.62 1.27-.03.14-.16.98-.9.48-.67-.46-.51-1.02-.51-1.02M46.54 65.13s.22-.54.93-.25c.71.28.59.82.57 1.02-.03.2-.34.54-.93.22-.6-.31-.71-.65-.57-.99M34.41 69.46s-.11-.62.2-.62.74.14.74.14-.14-.45-.17-.6c-.03-.14-.85-.23-.85-.9 0-.68.71-.37.71-.37l-.04-.42s-.76-.37-.68-.99c.09-.62.42-.39.42-.39s-.06-.57.28-.71c0 0-.59-.08-.34-.76 0 0-.37-.31-.37-.54 0-.23-.31-.79.59-.79 0 0 .17-.45.68-.14s.82.62.26.91c0 0 .11.62-.08.79 0 0 .42.54-.03.74 0 0 .45.45.28.76-.17.31-.25.25-.25.25s.11.45.08.54c0 0 .57.25.54.88 0 0-.06.42-.57.39l-.08.46s1.05.2.93.99c-.11.79-.48.82-.48.82s-1.69.3-1.77-.44" clip-path="url(#SVGID_23_)" fill="#f9c81e"/>
    <path class="st43" d="M27.54 52.97c.42.67.35 1.19-.5 1.72s-1.36.36-1.77-.31l-.75-1.21c-.35-.57-.14-1.14.59-1.6.73-.46 1.32-.38 1.68.19l.75 1.21zm-1.56-.64c-.11-.18-.27-.39-.54-.22s-.16.4-.05.59l.76 1.22c.11.17.3.4.57.23.27-.17.13-.43.03-.6l-.77-1.22zM28.54 51.66l-.01.01.74 1.81-.88.31-1.18-3.29.96-.34 1.37 1.58.02-.01-.75-1.8.88-.32 1.18 3.3-.95.33zM30.57 49.4l2.53-.37.1.7-.79.11.4 2.77-.98.14-.39-2.77-.77.11zM33.33 52.49l1.04-3.47 1.19.04.79 3.53-1-.04-.11-.69-.77-.03-.14.68-1-.02zm1.61-2.81h-.01l-.34 1.56.57.02-.22-1.58zM37.4 52.88l-.95-.24.86-3.4 1.39.35c.78.2 1.11.56.94 1.23-.09.36-.26.59-.7.65v.01c.25.12.4.32.36.56-.04.28-.18.86-.18 1.1.01.05.03.1.06.14l-.01.04-1.04-.26c-.01-.07-.02-.14 0-.21.06-.3.15-.58.18-.79.03-.22-.02-.37-.24-.44l-.32-.08-.35 1.34zm.5-1.95l.33.08c.28.07.4-.13.45-.34.1-.4-.1-.47-.56-.58l-.22.84z"/>
    <path transform="rotate(-66.791 40.495 52.053)" class="st43" d="M38.75 51.56h3.5v.98h-3.5z"/>
    <path class="st43" d="M43.49 54.46c-.42.67-.92.84-1.76.3s-.92-1.07-.5-1.73l.76-1.2c.36-.57.97-.62 1.69-.16.73.46.92 1.03.56 1.59l-.75 1.2zm-.11-1.68c.12-.18.23-.41-.04-.58-.26-.17-.44.03-.55.21l-.77 1.21c-.11.17-.23.44.04.61.27.17.45-.07.56-.24l.76-1.21z"/>
    <path d="M18.79 53.17l-.07.22c-.22.02-.41.13-.57.34-.12.16-.19.32-.18.48 0 .17.07.3.19.4.13.1.27.14.43.1.16-.04.3-.14.44-.31.16-.2.22-.41.19-.63l.22-.09c.03.16.03.31-.01.44-.04.14-.12.28-.23.42-.16.2-.34.33-.55.39-.25.07-.46.03-.65-.12s-.27-.34-.27-.59c.01-.22.09-.43.24-.62.23-.29.5-.44.82-.43M20.92 52.58l-1.06 1.1-1.06-1.01 1.02-1.07.16.16-.85.89.27.26.59-.62.16.15-.59.62.31.3.89-.93zM22.33 51.35l-.21.18-.66-.16-.56.48.36.42-.18.16-.96-1.11.87-.75c.12-.1.23-.15.35-.14.12 0 .23.06.32.17.08.09.12.19.11.3 0 .1-.04.19-.12.28l.68.17zm-.92-.24c.14-.12.16-.24.07-.35-.11-.12-.24-.12-.39.01l-.65.56.31.36.66-.58zM22.96 49.37l-.57.41.73 1.01-.2.14-.73-1.01-.57.4-.12-.17 1.33-.96z" clip-path="url(#SVGID_23_)" fill="#f9c81e"/>
    <path transform="rotate(-32.382 23.524 49.626)" clip-path="url(#SVGID_23_)" fill="#f9c81e" d="M23.4 48.9h.24v1.46h-.24z"/>
    <path clip-path="url(#SVGID_23_)" fill="#f9c81e" d="M24.99 48.18l-1.07.61.18.32.75-.42.1.2-.74.41.31.57-.21.12-.71-1.28 1.29-.72z"/>
    <path transform="rotate(-25.934 25.523 48.51)" clip-path="url(#SVGID_23_)" fill="#f9c81e" d="M25.4 47.78h.24v1.46h-.24z"/>
    <path clip-path="url(#SVGID_23_)" fill="#f9c81e" d="M27.68 48.37l-1.42.59-.56-1.35 1.37-.57.08.2-1.14.47.15.35.79-.33.08.2-.79.33.17.4 1.19-.49zM28.34 46.63c.24-.07.46-.07.64.02.18.09.31.24.37.46.06.2.04.39-.07.57-.1.17-.26.28-.46.35l-.93.28-.43-1.4.88-.28zm.43 1.17c.14-.04.24-.12.3-.24s.07-.25.03-.39c-.05-.15-.13-.26-.26-.32a.546.546 0 0 0-.42-.02l-.67.21.3.98.72-.22zM31.15 45.98c.15-.03.27-.01.37.06.1.07.16.17.19.3.03.14 0 .26-.08.35-.08.09-.2.15-.37.18l-.86.15.1.55-.24.04-.26-1.44 1.15-.19zm.08.69c.18-.03.26-.12.24-.27-.03-.16-.14-.22-.33-.19l-.85.15.08.46.86-.15zM33.38 47.21l-1.36.13-.13-1.46.24-.02.11 1.24 1.12-.1z"/>
    <path d="M35.16 47.2h-.26l-.17-.33h-.99l-.17.33h-.27l.77-1.47h.31l.78 1.47zm-.55-.54l-.38-.71-.37.71h.75zM36.82 46.1l-.7-.06-.1 1.24-.24-.02.1-1.24-.7-.06.02-.21 1.64.13zM37.1 47.41l-.24-.04.2-1.44.24.03zM39.07 47.78l-.29-.06-.85-1.4-.25 1.17-.23-.05.3-1.43.29.06.85 1.41.24-1.18.24.05zM41.11 47.92c-.05.15-.16.24-.33.28-.17.05-.38.03-.62-.04-.24-.08-.42-.19-.53-.33-.11-.14-.14-.28-.1-.42l.3-.94.23.07-.28.89c-.04.11-.01.21.06.3.08.09.21.16.39.22.18.06.33.07.44.05.11-.03.19-.1.22-.21l.29-.89.23.07-.3.95zM43.11 49.28l-.22-.09.48-1.1-1.09.56-.3-1.17-.49 1.09-.22-.1.59-1.34.28.13.28 1.09 1-.53.28.13zM45.17 49.67c-.05.08-.12.13-.23.15-.09.02-.18 0-.27-.05a.372.372 0 0 1-.17-.22c-.03-.1-.01-.19.04-.27.05-.08.12-.13.22-.15.09-.02.18 0 .27.05.09.05.14.12.17.22s.02.19-.03.27M47.85 51.15l-.22-.08c-.02-.22-.13-.41-.34-.57a.754.754 0 0 0-.48-.19c-.16 0-.3.06-.4.19a.48.48 0 0 0-.1.43c.04.16.14.31.3.44.2.16.41.23.63.19l.09.22c-.16.03-.31.02-.44-.02s-.28-.12-.42-.23c-.2-.16-.33-.35-.38-.56a.703.703 0 0 1 .14-.64c.15-.18.35-.27.59-.26.22.01.42.09.62.25.28.23.42.51.41.83M48.43 53.27l-1.1-1.07 1.02-1.04 1.06 1.03-.15.15-.89-.86-.26.27.61.6-.15.15-.61-.59-.3.31.92.9zM49.65 54.69l-.18-.21.17-.66-.48-.56-.42.36-.16-.19 1.12-.95.75.88c.1.12.15.24.14.36-.01.12-.06.23-.17.32a.39.39 0 0 1-.3.11c-.1 0-.19-.04-.28-.12l-.19.66zm.24-.91c.12.14.24.17.35.07.12-.1.12-.24-.01-.39l-.55-.65-.36.3.57.67zM51.62 55.34l-.4-.58-1.02.72-.14-.19 1.02-.72-.41-.57.18-.13.95 1.34z" clip-path="url(#SVGID_23_)" fill="#f9c81e"/>
    <path transform="rotate(-32.059 51.35 55.9)" clip-path="url(#SVGID_23_)" fill="#f9c81e" d="M50.62 55.78h1.46v.24h-1.46z"/>
    <path clip-path="url(#SVGID_23_)" fill="#f9c81e" d="M52.79 57.38l-.59-1.08-.33.18.41.75-.19.11-.41-.75-.57.31-.12-.21 1.28-.71.71 1.29z"/>
    <path transform="rotate(-25.723 52.453 57.909)" clip-path="url(#SVGID_23_)" fill="#f9c81e" d="M51.73 57.79h1.46v.24h-1.46z"/>
    <path clip-path="url(#SVGID_23_)" fill="#f9c81e" d="M52.59 60.07l-.58-1.42 1.36-.55.55 1.37-.2.08-.47-1.14-.34.14.32.79-.2.08-.33-.79-.4.16.49 1.2zM54.32 60.74c.07.25.06.46-.02.64-.09.18-.24.31-.46.37-.2.06-.39.03-.57-.08a.758.758 0 0 1-.34-.47l-.28-.93 1.4-.42.27.89zm-1.17.42c.04.14.12.24.24.3s.25.07.39.03c.15-.05.26-.13.32-.25s.07-.26.02-.42l-.2-.67-.98.29.21.72zM54.95 63.56a.5.5 0 0 1-.06.37.43.43 0 0 1-.31.18c-.14.02-.26 0-.35-.08-.09-.08-.15-.2-.18-.37l-.15-.86-.55.09-.04-.24 1.44-.24.2 1.15zm-.69.07c.03.18.12.26.27.24.16-.03.22-.14.19-.33l-.14-.85-.46.08.14.86zM53.7 65.78l-.11-1.37 1.45-.12.02.24-1.24.11.1 1.12zM13.84 64.14l-.05.69 1.24.1-.02.24-1.24-.1-.06.7-.22-.02.13-1.63z"/>
    <path transform="rotate(-82.172 14.41 63.87)" clip-path="url(#SVGID_23_)" fill="#f9c81e" d="M14.29 63.14h.24v1.46h-.24z"/>
    <path clip-path="url(#SVGID_23_)" fill="#f9c81e" d="M15.52 61.88l-.06.29-1.4.86 1.17.24-.04.24-1.44-.3.06-.29 1.4-.86-1.17-.24.05-.24zM15.65 59.84c.14.05.24.16.28.33.05.17.03.38-.04.62-.08.24-.19.42-.33.53-.14.11-.28.14-.42.1l-.94-.3.07-.23.89.28c.11.04.21.01.3-.06.09-.08.16-.21.22-.39a.91.91 0 0 0 .05-.44.299.299 0 0 0-.2-.22l-.89-.29.07-.23.94.3zM17.01 57.84l-.1.22-1.09-.48v.01l.56 1.08-1.17.3-.01.01 1.1.48-.1.22-1.34-.59.13-.28 1.09-.28-.53-1 .12-.28zM17.39 55.77c.08.05.13.12.15.23.02.09 0 .18-.05.27-.05.09-.13.14-.22.17-.1.03-.19.01-.27-.03a.318.318 0 0 1-.15-.23c-.02-.09 0-.18.05-.27.05-.09.12-.14.22-.17s.19-.02.27.03"/>
  </g>
  <g>
    <path d="M.44 0H119v65H.44z"/>
    <defs>
      <path id="SVGID_66_" d="M.44 0H119v65H.44z"/>
    </defs>
    <clipPath id="SVGID_25_">
      <use xlink:href="#SVGID_66_" overflow="visible"/>
    </clipPath>
    <path d="M106.43 40.2l-.19-3.41c0-.55.24-.55.51-.5.27.05 3.46.58 3.46.58s-.38-.89-.38-1.22c0-.43.94-1.03 1.96-1.92 1.02-.89 1.73-1.34 1.73-1.44 0-.1-.73-.07-.73-.6s.68-2.49.68-2.49-1.44.48-1.83.48c-.39 0-1-.7-1-1.25 0 0-1.87 2.33-2.26 2.16-.39-.17.7-4.73.7-4.73s-1.12.94-1.51.82c-.39-.12-1.48-2.78-1.48-2.78s-.02-.03-.04-.03-.04.03-.04.03-1.09 2.66-1.49 2.78c-.39.12-1.51-.82-1.51-.82s1.09 4.56.7 4.73c-.39.17-2.26-2.16-2.26-2.16 0 .55-.61 1.25-1 1.25s-1.82-.48-1.82-.48.68 1.97.68 2.49c0 .53-.73.5-.73.6 0 .09.71.55 1.73 1.44 1.02.89 1.96 1.49 1.96 1.92 0 .34-.38 1.22-.38 1.22s3.19-.53 3.45-.58c.27-.05.51-.05.51.5l-.19 3.41h.77zM13.77 40.2l-.19-3.41c0-.55.24-.55.51-.5.27.05 3.46.58 3.46.58s-.38-.89-.38-1.22c0-.43.94-1.03 1.96-1.92 1.02-.89 1.73-1.34 1.73-1.44 0-.1-.73-.07-.73-.6s.68-2.49.68-2.49-1.43.48-1.83.48c-.39 0-1-.7-1-1.25 0 0-1.87 2.33-2.26 2.16-.39-.17.7-4.73.7-4.73s-1.12.94-1.51.82c-.39-.12-1.48-2.78-1.48-2.78s-.02-.03-.04-.03-.04.03-.04.03-1.09 2.66-1.48 2.78c-.39.12-1.51-.82-1.51-.82s1.09 4.56.7 4.73c-.39.17-2.26-2.16-2.26-2.16 0 .55-.61 1.25-1 1.25s-1.82-.48-1.82-.48.68 1.97.68 2.49c0 .53-.73.5-.73.6 0 .09.71.55 1.73 1.44 1.02.89 1.96 1.49 1.96 1.92 0 .34-.38 1.22-.38 1.22s3.19-.53 3.45-.58c.27-.05.51-.05.51.5l-.19 3.41h.76z" clip-path="url(#SVGID_25_)" fill="#e11b22"/>
    <defs>
      <path id="SVGID_68_" d="M.44 0H119v65H.44z"/>
    </defs>
    <clipPath id="SVGID_27_">
      <use xlink:href="#SVGID_68_" overflow="visible"/>
    </clipPath>
    <g clip-path="url(#SVGID_27_)">
      <path class="st86" d="M26.87 55.11L33.92 30h7.01l6.91 25.12h-5.6l-1.41-5.56h-7.26l-1.44 5.56h-5.26zm10.26-20.28h-.07l-2.43 10.85h5.08l-2.58-10.85zM48.41 55.11L55.46 30h7.01l6.91 25.12h-5.6l-1.41-5.56H55.1l-1.44 5.56h-5.25zm10.25-20.28h-.07l-2.43 10.85h5.08l-2.58-10.85zM69.95 55.11L77 30h7.01l6.91 25.12h-5.6l-1.41-5.56h-7.26l-1.45 5.56h-5.25zM80.2 34.83h-.07L77.7 45.69h5.08L80.2 34.83z"/>
    </g>
    <g>
      <path class="st86" d="M26.57 9.78h1.83l1.11 5.91h.02l1.35-5.91h2.1l1.27 5.91h.02l1.06-5.91h1.75l-1.89 8.41h-1.97l-1.33-6.15h-.02l-1.48 6.15h-1.94l-1.88-8.41z"/>
    </g>
    <g>
      <path class="st86" d="M39 15.51c0 .7.02 1.75.76 1.75.59 0 .71-.56.71-1.05h1.69c-.02.64-.24 1.16-.64 1.53-.39.36-.98.57-1.76.57-2.15 0-2.43-1.29-2.43-3.14 0-1.61.24-2.98 2.43-2.98 2.24 0 2.49 1.43 2.43 3.32H39zm1.52-.92c0-.57.02-1.39-.77-1.39-.77 0-.76.89-.76 1.39h1.53zM44.68 16.3c-.01.27 0 .52.08.71.1.19.27.28.6.28.33 0 .61-.21.61-.61 0-1.25-2.93-.97-2.93-2.84 0-1.27 1.28-1.66 2.35-1.66 1.13 0 2.16.54 2.07 1.81h-1.63c0-.41-.05-.65-.17-.76-.11-.1-.25-.13-.42-.13-.37 0-.57.23-.57.63 0 .93 2.93.89 2.93 2.77 0 1.02-.85 1.79-2.23 1.79-1.45 0-2.42-.36-2.33-2h1.64zM47.94 12.31h.67v-.93l1.67-.73v1.67h.86v1.01h-.86v3.15c0 .44-.01.73.53.73.11 0 .21 0 .29-.02v1.01c-.22.02-.46.06-.86.06-1.44 0-1.63-.94-1.63-1.3v-3.62h-.67v-1.03zM53.43 15.51c0 .7.02 1.75.76 1.75.59 0 .71-.56.71-1.05h1.69c-.02.64-.24 1.16-.64 1.53-.39.36-.98.57-1.76.57-2.15 0-2.43-1.29-2.43-3.14 0-1.61.24-2.98 2.43-2.98 2.24 0 2.49 1.43 2.43 3.32h-3.19zm1.53-.92c0-.57.02-1.39-.77-1.39-.77 0-.76.89-.76 1.39h1.53zM59.38 12.31v.76h.02c.31-.68.87-.87 1.55-.87v1.47c-1.46-.09-1.49.75-1.49 1.33v3.2H57.8v-5.88h1.58zM63.4 12.9h.02c.17-.27.37-.44.59-.55.24-.12.51-.16.81-.16.79 0 1.49.47 1.49 1.28v4.72h-1.67v-4.05c0-.52-.09-.93-.62-.93s-.63.41-.63.93v4.05h-1.67v-5.88h1.67v.59z"/>
    </g>
    <g>
      <path class="st86" d="M70.36 18.19V9.78h3.16c1.36 0 2.48.38 2.48 2.18 0 .97-.48 1.67-1.45 1.85v.02c1.26.17 1.59.98 1.59 2.13 0 2.13-1.88 2.23-2.63 2.23h-3.15zm1.78-4.97h1.19c.39 0 .93-.26.93-1.07 0-.62-.42-1.07-1.03-1.07h-1.1v2.14zm0 3.68h.99c.38 0 1.23-.01 1.23-1.19 0-.75-.28-1.2-1.18-1.2h-1.04v2.39zM79 15.51c0 .7.02 1.75.76 1.75.59 0 .71-.56.71-1.05h1.69c-.02.64-.24 1.16-.64 1.53-.39.36-.98.57-1.76.57-2.15 0-2.43-1.29-2.43-3.14 0-1.61.24-2.98 2.43-2.98 2.24 0 2.49 1.43 2.43 3.32H79zm1.53-.92c0-.57.02-1.39-.77-1.39-.77 0-.76.89-.76 1.39h1.53zM84.91 15.51c0 .7.02 1.75.76 1.75.59 0 .71-.56.71-1.05h1.69c-.02.64-.24 1.16-.64 1.53-.39.36-.98.57-1.76.57-2.15 0-2.43-1.29-2.43-3.14 0-1.61.24-2.98 2.43-2.98 2.24 0 2.49 1.43 2.43 3.32h-3.19zm1.52-.92c0-.57.02-1.39-.77-1.39-.77 0-.76.89-.76 1.39h1.53zM91.84 10.79c-.67-.05-.82.21-.82.81v.71h.78v1.01h-.78v4.87h-1.66v-4.87h-.74v-1.01h.76c-.01-1.69-.15-2.59 1.88-2.59.2 0 .39.01.59.02v1.05z"/>
    </g>
    <g>
      <path class="st86" d="M27.14 23.64c0-1.87 0-3.66 2.48-3.66 1.53 0 2.15.83 2.09 2.36h-1.47c0-.94-.17-1.3-.62-1.3-.85 0-.96.78-.96 2.6s.11 2.6.96 2.6c.7 0 .67-.88.69-1.44h1.48c0 1.9-.77 2.5-2.17 2.5-2.48.01-2.48-1.8-2.48-3.66zM35.13 26.69h-.02c-.28.44-.66.6-1.18.6-.67 0-1.25-.39-1.25-1.08v-3.98h1.4v3.44c0 .44.08.77.53.77s.53-.32.53-.77v-3.44h1.4v3.98c0 .32.02.66.05.98h-1.45v-.5zM37.08 22.23h.57v-.79l1.4-.62v1.4h.73v.85h-.73v2.65c0 .37-.01.62.45.62.09 0 .18 0 .25-.02v.85c-.19.02-.39.05-.73.05-1.21 0-1.37-.79-1.37-1.1v-3.06h-.57v-.83zM44.78 20.95c-.57-.04-.69.18-.69.68v.6h.66v.85h-.66v4.11h-1.4v-4.11h-.63v-.85h.64c-.01-1.42-.13-2.18 1.58-2.18.17 0 .33.01.5.02v.88zM46.72 22.23v.64h.02c.26-.57.74-.74 1.3-.74v1.24c-1.23-.08-1.25.63-1.25 1.12v2.7h-1.4v-4.96h1.33zM48.57 24.64c0-1.36.2-2.51 2.05-2.51 1.85 0 2.05 1.16 2.05 2.51 0 1.55-.24 2.64-2.05 2.64-1.81.01-2.05-1.08-2.05-2.64zm2.7-.07c0-1.03-.05-1.55-.65-1.55s-.65.52-.65 1.55c0 1.51.13 1.84.65 1.84.52-.01.65-.33.65-1.84zM54.96 22.73h.02c.28-.44.66-.6 1.18-.6.5 0 .9.24 1.12.63.33-.43.73-.63 1.3-.63.67 0 1.25.39 1.25 1.08v3.98h-1.4v-3.42c0-.44-.08-.78-.53-.78s-.53.34-.53.78v3.42H56v-3.42c0-.44-.08-.78-.53-.78s-.53.34-.53.78v3.42h-1.4v-4.96h1.4v.5zM63.05 23.64c0-1.87 0-3.66 2.48-3.66 1.53 0 2.15.83 2.09 2.36h-1.47c0-.94-.17-1.3-.62-1.3-.85 0-.96.78-.96 2.6s.11 2.6.96 2.6c.7 0 .67-.88.69-1.44h1.48c0 1.9-.77 2.5-2.17 2.5-2.48.01-2.48-1.8-2.48-3.66zM72.39 26.27c0 .3.04.62.07.92h-1.3l-.06-.66h-.02c-.3.51-.71.76-1.31.76-.97 0-1.33-.72-1.33-1.58 0-1.64 1.28-1.71 2.59-1.69v-.38c0-.42-.06-.73-.57-.73-.49 0-.53.36-.53.76h-1.37c0-.6.19-.98.52-1.21.32-.23.77-.32 1.31-.32 1.78 0 2.01.76 2.01 1.66v2.47zm-2.58-.62c0 .35.06.78.52.78.83 0 .7-1.1.7-1.64-.71.03-1.22-.03-1.22.86zM74.96 22.73h.02c.14-.23.31-.37.5-.46.2-.1.43-.14.69-.14.67 0 1.26.39 1.26 1.08v3.98h-1.4v-3.42c0-.44-.08-.78-.53-.78s-.53.34-.53.78v3.42h-1.4v-4.96h1.4v.5zM82.34 26.27c0 .3.04.62.07.92h-1.3l-.06-.66h-.02c-.3.51-.71.76-1.31.76-.97 0-1.33-.72-1.33-1.58 0-1.64 1.28-1.71 2.59-1.69v-.38c0-.42-.06-.73-.57-.73-.49 0-.53.36-.53.76H78.5c0-.6.19-.98.52-1.21.32-.23.77-.32 1.31-.32 1.78 0 2.01.76 2.01 1.66v2.47zm-2.59-.62c0 .35.06.78.52.78.83 0 .7-1.1.7-1.64-.7.03-1.22-.03-1.22.86zM86.01 27.19v-.55h-.02c-.26.48-.65.65-1.18.65-1.45 0-1.4-1.59-1.4-2.61 0-1-.04-2.54 1.37-2.54.51 0 .86.15 1.14.57h.02v-2.6h1.4v7.09h-1.33zm-.07-2.53c0-.99.01-1.68-.57-1.68-.61 0-.6.69-.6 1.68 0 1.25.09 1.77.6 1.77.48 0 .57-.52.57-1.77zM92.28 26.27c0 .3.04.62.07.92h-1.3l-.06-.66h-.02c-.3.51-.71.76-1.31.76-.97 0-1.33-.72-1.33-1.58 0-1.64 1.28-1.71 2.59-1.69v-.38c0-.42-.06-.73-.57-.73-.49 0-.53.36-.53.76h-1.37c0-.6.19-.98.52-1.21.32-.23.77-.32 1.31-.32 1.78 0 2.01.76 2.01 1.66v2.47zm-2.59-.62c0 .35.06.78.52.78.83 0 .7-1.1.7-1.64-.7.03-1.22-.03-1.22.86z"/>
    </g>
  </g>
</svg>