<svg id="Layer_1" xmlns="http://www.w3.org/2000/svg" xmlns:xlink="http://www.w3.org/1999/xlink" viewBox="0 0 41 65">
  <style>
  </style>
  <defs>
    <path id="SVGID_20_" d="M2.03.83h37.58V63H2.03z"/>
  </defs>
  <clipPath id="SVGID_2_">
    <use xlink:href="#SVGID_20_" overflow="visible"/>
  </clipPath>
  <defs>
    <path id="SVGID_22_" d="M2.06.85h37.55V63H2.06z"/>
  </defs>
  <clipPath id="SVGID_3_">
    <use xlink:href="#SVGID_22_" overflow="visible"/>
  </clipPath>
  <path d="M39.03 58.89c0 1.95-1.6 3.55-3.55 3.55H6.13c-1.95 0-3.55-1.6-3.55-3.55V4.93c0-1.95 1.6-3.55 3.55-3.55h29.35c1.95 0 3.55 1.6 3.55 3.55v53.96z" clip-path="url(#SVGID_3_)" fill-rule="evenodd" clip-rule="evenodd" fill="#00aeaa"/>
  <path d="M35.48 62.99H6.13c-2.26 0-4.1-1.84-4.1-4.1V4.93c0-2.26 1.84-4.1 4.1-4.1h29.35c2.26 0 4.1 1.84 4.1 4.1v53.96c0 2.26-1.84 4.1-4.1 4.1M6.13 1.93c-1.65 0-3 1.34-3 3v53.96c0 1.65 1.34 3 3 3h29.35c1.65 0 3-1.34 3-3V4.93c0-1.65-1.34-3-3-3H6.13z" clip-path="url(#SVGID_3_)" fill="#fff"/>
  <defs>
    <path id="SVGID_24_" d="M2.03.83h37.58V63H2.03z"/>
  </defs>
  <clipPath id="SVGID_5_">
    <use xlink:href="#SVGID_24_" overflow="visible"/>
  </clipPath>
  <path clip-path="url(#SVGID_5_)" fill="#fff" d="M5.47 6.89V4.34h2.18v.59H6.39v.47h1v.59h-1v.9zM7.48 6.89l1-2.55h.93l1.01 2.55h-.91l-.11-.34h-.91l-.11.34h-.9zm1.47-1.78l-.29.91h.58l-.29-.91zM11.51 6v.89h-.92V4.34h1.32c.94 0 1.24.23 1.24.73 0 .29-.14.54-.47.62.3.1.47.16.47.68 0 .33-.01.45.1.45v.08h-.93c-.02-.06-.05-.22-.05-.45 0-.33-.06-.44-.49-.44h-.27zm0-.56h.36c.28 0 .44-.06.44-.24s-.16-.27-.37-.27h-.43v.51zM13.53 6.89V4.34h1.11l.49 1.59.5-1.59h1.11v2.55h-.83v-.78l.02-.4.04-.46-.52 1.64h-.63l-.51-1.64h-.01l.04.38.02.39v.87zM17.22 6.89V4.34h2.29v.59h-1.37v.37h1.16v.59h-1.16v.4h1.42v.6zM19.9 6.89V4.34h1.23c.9 0 1.46.38 1.46 1.22 0 .96-.59 1.33-1.49 1.33h-1.2zm.91-.6H21c.43 0 .66-.2.66-.69 0-.53-.19-.67-.68-.67h-.17v1.36zM6.34 9.85v.89h-.92V8.19h1.32c.94 0 1.24.23 1.24.73 0 .29-.14.54-.47.62.3.1.47.16.47.68 0 .33-.01.45.1.45v.08h-.92c-.02-.06-.05-.22-.05-.45 0-.33-.06-.44-.49-.44h-.28zm0-.56h.36c.28 0 .44-.06.44-.24s-.16-.27-.37-.27h-.43v.51zM8.45 10.74V8.19h2.28v.59H9.37v.36h1.15v.6H9.37v.4h1.42v.6zM12.56 8.93a.235.235 0 0 0-.13-.17.604.604 0 0 0-.24-.05c-.2 0-.29.05-.29.14 0 .38 1.61.14 1.61 1.07 0 .59-.54.88-1.31.88-.74 0-1.22-.39-1.24-.85h.88c.02.09.07.16.15.2.07.04.17.06.26.06.23 0 .38-.07.38-.19 0-.39-1.61-.12-1.61-1.09 0-.54.51-.81 1.22-.81.78 0 1.13.36 1.2.81h-.88zM13.79 10.74V8.19h1.35c.81 0 1.2.34 1.2.86 0 .55-.36.9-1.16.9h-.46v.79h-.93zm1.3-1.39c.21 0 .37-.08.37-.3 0-.24-.3-.27-.49-.27h-.26v.57h.38zM19.51 9.45c0 .87-.64 1.36-1.47 1.36-.88 0-1.47-.5-1.47-1.36 0-.8.6-1.32 1.47-1.32 1-.01 1.47.64 1.47 1.32m-2.02 0c0 .33.11.73.55.73.4 0 .55-.31.55-.73 0-.35-.16-.72-.56-.7-.42-.01-.54.37-.54.7M21.73 9.58L21.69 9v-.81h.89v2.55h-.87l-1-1.39.04.58v.81h-.88V8.19h.86zM24.47 8.93a.235.235 0 0 0-.13-.17.604.604 0 0 0-.24-.05c-.2 0-.29.05-.29.14 0 .38 1.61.14 1.61 1.07 0 .59-.54.88-1.31.88-.74 0-1.22-.39-1.24-.85h.88c.02.09.07.16.15.2.07.04.17.06.26.06.23 0 .38-.07.38-.19 0-.39-1.61-.12-1.61-1.09 0-.54.51-.81 1.22-.81.78 0 1.13.36 1.2.81h-.88zM25.73 8.19h.92v2.55h-.92zM27.09 10.74V8.19h1.34c.63 0 1.13.14 1.13.64 0 .26-.19.45-.37.56.3.07.47.31.47.58 0 .57-.48.77-1.21.77h-1.36zm.92-1.96v.43h.38c.18 0 .32-.07.32-.22 0-.2-.18-.2-.37-.2h-.33zm0 .89v.47h.4c.23 0 .4-.04.4-.23 0-.22-.21-.24-.51-.24h-.29zM30.06 10.74V8.19h.92v1.95h1.26v.6zM33.79 10.74h-.92v-.93l-1.05-1.62h1.03l.48.86.49-.86h1.01l-1.04 1.6zM10.92 19.85l-.14-.79c-.83.77-1.67 1-2.77 1-1.39 0-2.63-.69-2.63-2.22 0-3.35 5.25-1.83 5.25-3.21 0-.53-.65-.61-.96-.61-.41 0-.96.08-1.03.72H5.83c0-1.56 1.11-2.48 4.02-2.48 3.49 0 3.7 1.29 3.7 3.05v3.45c0 .42.01.63.39.94v.14h-3.02zm-.3-3.27c-.96.46-2.22.24-2.22 1.2 0 .37.35.62.93.62 1.03 0 1.36-.81 1.29-1.82M17.05 17.55c0 .3.11.52.31.68.18.14.44.22.72.22.45 0 .93-.14.93-.66 0-1.18-4.52-.24-4.52-3.1 0-1.88 1.96-2.43 3.49-2.43 1.6 0 3.49.37 3.66 2.32h-2.66a.766.766 0 0 0-.28-.53c-.15-.13-.37-.18-.59-.18-.51 0-.83.15-.83.52 0 1.03 4.66.34 4.66 3.09 0 1.53-1.27 2.58-3.97 2.58-1.69 0-3.55-.52-3.7-2.5h2.78zM27.62 15.29c-.01-.32-.13-.58-.31-.76-.18-.2-.44-.3-.76-.3-1.1 0-1.28 1.14-1.28 2.01 0 1.11.42 1.84 1.28 1.84.76 0 1.05-.52 1.14-1.1h2.95c-.13 1.11-.63 1.89-1.38 2.38-.73.48-1.69.69-2.72.69-2.38 0-4.21-1.34-4.21-3.83 0-2.52 1.77-3.97 4.21-3.97 1.97 0 3.83.84 4.04 3.02h-2.96zM7.54 23.14c-.05-.17-.15-.5-.7-.5-.32 0-.79.19-.79 1.01 0 .52.23.98.79.98.37 0 .62-.19.7-.54h.66c-.13.63-.58 1.06-1.38 1.06-.84 0-1.45-.52-1.45-1.51 0-1.01.64-1.52 1.46-1.52.95 0 1.33.59 1.37 1.02h-.66zM10.97 22.71H9.29v.61h1.55v.51H9.29v.74h1.76v.51H8.64V22.2h2.33zM11.52 22.2h1.6c.84 0 1 .57 1 .81a.7.7 0 0 1-.49.69c.26.1.4.19.4.73 0 .42 0 .52.14.57v.08h-.73c-.04-.14-.07-.29-.07-.58 0-.39-.03-.55-.52-.55h-.68v1.13h-.65V22.2zm1.43 1.27c.34 0 .51-.11.51-.39 0-.15-.08-.38-.46-.38h-.83v.77h.78zM16.02 25.08h-.66v-2.37h-.96v-.51h2.58v.51h-.96zM17.29 22.2h.66v2.88h-.66zM19.2 25.08h-.66V22.2h2.25v.51H19.2v.65h1.4v.51h-1.4zM21.13 22.2h.66v2.88h-.66zM24.71 22.71h-1.69v.61h1.55v.51h-1.55v.74h1.76v.51h-2.4V22.2h2.33zM25.26 22.2h1.4c1.07 0 1.29.83 1.29 1.37 0 .62-.27 1.51-1.31 1.51h-1.37V22.2zm.65 2.38h.64c.54 0 .72-.49.72-.97 0-.85-.45-.92-.73-.92h-.64v1.89zM5.95 28.99h-.57l.91-2.33h.62l.9 2.33h-.57l-.16-.48h-.95l-.18.48zm.32-.89h.65l-.32-.92-.33.92zM8.46 28.27c0 .13.08.38.54.38.25 0 .54-.06.54-.3 0-.18-.19-.23-.46-.29L8.8 28c-.42-.09-.81-.17-.81-.69 0-.26.15-.72.99-.72.79 0 1 .47 1 .75h-.52c-.01-.1-.06-.34-.52-.34-.2 0-.45.07-.45.28 0 .18.16.22.27.24l.62.14c.35.08.67.21.67.63 0 .7-.79.76-1.01.76-.94 0-1.1-.49-1.1-.78h.52zM12.06 27.42c-.04-.14-.13-.4-.57-.4-.26 0-.64.16-.64.82 0 .42.18.79.64.79.3 0 .5-.15.57-.44h.54c-.11.51-.47.86-1.11.86-.68 0-1.17-.42-1.17-1.22 0-.81.52-1.23 1.18-1.23.77 0 1.08.48 1.11.82h-.55zM12.89 27.64h1v.42h-1zM14.59 28.99h-.56l.91-2.33h.62l.9 2.33h-.58l-.16-.48h-.95l-.18.48zm.32-.89h.65l-.32-.92h-.01l-.32.92zM18.74 29.16l-.3-.26c-.24.13-.51.16-.66.16-.34 0-1.23-.13-1.23-1.23 0-1.09.89-1.23 1.23-1.23.34 0 1.23.13 1.23 1.23 0 .38-.11.65-.27.83l.28.24-.28.26zm-.66-1.07l.27.23c.07-.12.12-.28.12-.5 0-.65-.41-.81-.7-.81s-.7.16-.7.81.41.82.7.82c.09 0 .19-.02.29-.06l-.26-.22.28-.27zM21.46 28.17c0 .61-.41.88-1.05.88-.24 0-.59-.05-.81-.28-.14-.14-.19-.33-.2-.56v-1.55h.55v1.51c0 .33.21.47.46.47.37 0 .52-.16.52-.44v-1.54h.55v1.51zM22.21 28.99h-.56l.91-2.33h.62l.9 2.33h-.58l-.16-.48h-.95l-.18.48zm.32-.89h.65l-.32-.92h-.01l-.32.92zM24.44 28.51h.54v.47h-.54zM26.47 26.59c.34 0 1.23.13 1.23 1.23 0 1.09-.89 1.23-1.23 1.23-.34 0-1.23-.13-1.23-1.23 0-1.09.89-1.23 1.23-1.23m0 2.05c.29 0 .7-.16.7-.82 0-.65-.41-.81-.7-.81s-.7.16-.7.81c.01.65.41.82.7.82M28.1 26.66h1.3c.68 0 .81.46.81.66 0 .26-.14.48-.4.55.21.08.33.16.33.59 0 .34 0 .43.11.46v.06h-.59c-.04-.11-.06-.23-.06-.47 0-.32-.02-.44-.42-.44h-.55v.91h-.53v-2.32zm1.15 1.02c.28 0 .41-.09.41-.32 0-.12-.06-.3-.38-.3h-.67v.62h.64zM31.82 27.73h1.07v1.26h-.36l-.05-.29c-.14.14-.33.35-.8.35-.62 0-1.18-.4-1.18-1.22 0-.63.39-1.23 1.25-1.23h.01c.79 0 1.1.46 1.12.79h-.54c0-.09-.18-.38-.56-.38-.38 0-.74.24-.74.84 0 .64.38.8.75.8.12 0 .51-.04.62-.51h-.6v-.41z"/>
  <path d="M32.35 30.93c-.88-.13-5.42.02-7 1.31-9.7 7.9-12.93 18.09-13.49 27 0 0-2.85-5.29-6.56-8.19-.83-.65-1.46-.68-2.29.14-.15.14-.29.29-.43.42v2.32l8.03 8.51h2.81c.86 0 1.23-1.56 1.35-2.2.84-4.38 2-15.86 15.15-25.85.88-.67 4.29-3.19 2.43-3.46" clip-path="url(#SVGID_5_)" fill-rule="evenodd" clip-rule="evenodd" fill="#fff"/>
  <path d="M33.83 57.79h-.55v1.41h-.53v-1.41h-.54v-.37h1.62v.37zm1.54.71l.44-1.08h.73v1.78h-.5v-1.21h-.01l-.46 1.21h-.39l-.46-1.21h-.02v1.21h-.5v-1.78h.73l.44 1.08zM31.7 42.05c-.28-.16-.63-.04-.79.27-.15.3-.05.68.24.84.28.16.63.04.78-.27.15-.31.05-.68-.23-.84" clip-path="url(#SVGID_5_)" fill="#fff"/>
  <g>
    <defs>
      <path id="SVGID_26_" d="M2.06.85h37.55V63H2.06z"/>
    </defs>
    <clipPath id="SVGID_7_">
      <use xlink:href="#SVGID_26_" overflow="visible"/>
    </clipPath>
    <path d="M34.93 39.16c-.04-.14-.1-.26-.25-.31a.634.634 0 0 0-.24-.03c-4.12.59-7.83 3.4-9 7.45-.18.61-.34 1.23-.43 1.86-.09.59-.14 1.19-.16 1.79-.02.55-.01 1.11.02 1.66.03.52.09 1.03.1 1.55.01.56.01 1.2-.53 1.53-1.91 1.17-6.77 2.18-6.63 2.81.13.58 2.13.39 2.52.38 1.06-.03 2.13-.4 3.19-.24.55.08 1 .3 1.38.72.3.35.68 1.29 1.3 1.04.9-.36.28-2.68-.2-4.12 3.38-1.14 5.92-2.2 7.56-5.3.88-1.66 1.42-3.56 1.6-5.43.04-.42.06-.83.07-1.25.02-1.1 0-2.27-.16-3.37-.03-.23-.07-.46-.13-.68 0-.02 0-.04-.01-.06m-9.26 14.18c.17-2.14.78-5.47 2.01-7.96.08-.17.17-.33.26-.49.13.48.47.9.96 1.12.73.34 1.58.12 2.07-.47-.13.76.26 1.54 1 1.87.46.21.97.2 1.4.02-.18.49-.39.97-.63 1.41-1.36 2.57-3.95 5.07-6.78 6.22-.01 0-.1-.26-.1-.28-.24-.78-.19-1.44-.19-1.44m7.94-6.68c-.41.15-.88.14-1.3-.06-.7-.32-1.08-1.04-1.01-1.76.01-.04.02-.08.03-.13l-.01.01v-.02c-.03.03-.05.07-.07.1-.5.53-1.3.72-2 .4-.45-.2-.77-.58-.92-1.01 1.27-2.03 3.06-3.58 5.6-4.57.21-.08.6-.26.67.43.06 1.03-.13 3.94-.99 6.61" clip-path="url(#SVGID_7_)" fill-rule="evenodd" clip-rule="evenodd" fill="#fff"/>
  </g>
  <g>
    <defs>
      <path id="SVGID_28_" d="M2.03.83h37.58V63H2.03z"/>
    </defs>
    <clipPath id="SVGID_9_">
      <use xlink:href="#SVGID_28_" overflow="visible"/>
    </clipPath>
  </g>
  <g>
    <defs>
      <path id="SVGID_30_" d="M2.06.85h37.55V63H2.06z"/>
    </defs>
    <clipPath id="SVGID_11_">
      <use xlink:href="#SVGID_30_" overflow="visible"/>
    </clipPath>
  </g>
  <g>
    <defs>
      <path id="SVGID_32_" d="M2.03.83h37.58V63H2.03z"/>
    </defs>
    <clipPath id="SVGID_13_">
      <use xlink:href="#SVGID_32_" overflow="visible"/>
    </clipPath>
  </g>
</svg>