<svg id="Layer_1" xmlns="http://www.w3.org/2000/svg" xmlns:xlink="http://www.w3.org/1999/xlink" viewBox="0 0 94 65">
  <style>
    .st0{fill:none}.st15,.st16,.st17,.st21,.st22{clip-path:url(#SVGID_13_);fill:#009d57}.st16,.st17,.st21,.st22{fill:#fff}.st17,.st21,.st22{fill:#ef3e42}.st21,.st22{fill:#7c4300}.st22{fill:#ae5c10}.st26{fill:#231f20}
  </style>
  <path class="st0" d="M-2-3H98.92v64.86H-2z"/>
  <path class="st0" d="M-2-3H98.92v64.86H-2z"/>
  <path class="st0" d="M3.24 1.15h88.83v60.71H3.24z"/>
  <path class="st0" d="M-2-3H98.92v64.86H-2z"/>
  <path class="st0" d="M3.24 1.15h88.83v60.71H3.24z"/>
  <path class="st0" d="M-2-3H98.92v64.86H-2z"/>
  <defs>
    <path id="SVGID_1_" d="M28.13 40.55v.13c-.12 0-.25.01-.36.02.14-.06.26-.11.36-.15m0-3.46v2.98c-1.09-.57-5.96-1-11.81-1-6.65 0-12.04.55-12.04 1.23 0 .69 5.39 1.23 12.04 1.23 1.63 0 3.18-.03 4.6-.09-.38.12-.6.25-.6.38 0 .68 5.39 1.23 12.04 1.23 6.65 0 12.04-.55 12.04-1.23 0-.52-3.01-.95-7.31-1.14h.4v-.36c2.29.21 5.15.33 8.25.33 1.59 0 3.11-.03 4.52-.09-.32.13-.49.28-.49.42 0 .85 5.71 1.55 12.74 1.55 4.87 0 9.1-.34 11.25-.82.85.02 1.73.03 2.64.03 6.65 0 12.04-.55 12.04-1.23 0-.68-5.39-1.24-12.04-1.24-3.15 0-6.01.13-8.16.33-1.72-.1-3.67-.16-5.73-.16-1.32 0-2.59.02-3.78.07.37-.15.57-.3.57-.46 0-.89-6.07-1.61-13.56-1.61-3.1 0-5.96.13-8.25.34v-.7h-9.36z"/>
  </defs>
  <clipPath id="SVGID_2_">
    <use xlink:href="#SVGID_1_" overflow="visible"/>
  </clipPath>
  <linearGradient id="SVGID_3_" gradientUnits="userSpaceOnUse" x1="-23.935" y1="18.22" x2="-22.362" y2="18.22" gradientTransform="matrix(0 -3.2767 -3.2767 0 106.058 -35.352)">
    <stop offset="0" stop-color="#fff"/>
    <stop offset="1" stop-color="#939598"/>
  </linearGradient>
  <path clip-path="url(#SVGID_2_)" fill="url(#SVGID_3_)" d="M4.28 37.09h84.16v5.97H4.28z"/>
  <defs>
    <path id="SVGID_4_" d="M-2-3H98.92v64.86H-2z"/>
  </defs>
  <clipPath id="SVGID_5_">
    <use xlink:href="#SVGID_4_" overflow="visible"/>
  </clipPath>
  <path d="M17.71 5.87c17.94 2.3 24.85 15.49 24.85 15.49l.7-.91S35.96 7.18 18.02 4.88l-.31.99z" clip-path="url(#SVGID_5_)" fill="#009d57"/>
  <path d="M53.44 36.5s-9.3 5.89-15.93-2.98c0 0-7.67-8.16.24-13.08 0 0 1.94-.99 4.04-1.95 1.73-1.52 3.43-2.89 3.43-2.89 7.27-5.38 12.03 5.13 12.03 5.13 5.3 9.24-3.81 15.77-3.81 15.77" clip-path="url(#SVGID_5_)" fill="#ef3e42"/>
  <path d="M53.11 35.95s-8.48 5.77-15.33-2.8c0 0-6.82-7.79.74-12.19 0 0 1.79-.91 3.73-1.79 1.6-1.41 3.16-2.68 3.16-2.68 7.11-5.1 11.47 4.69 11.47 4.69 4.94 8.6-3.77 14.77-3.77 14.77" clip-path="url(#SVGID_5_)" fill="#be2f37"/>
  <path d="M55.45 18.88l.69 1.58s3 6.04-2.22 11.07c0 0-7.69 7.99-14.36 3.47l1.47 1.12c6.45 3.92 12.08-.3 12.08-.3s8-5.54 4.33-13.7c-.01 0-.39-1.18-1.99-3.24" clip-path="url(#SVGID_5_)" fill="#b22b33"/>
  <defs>
    <path id="SVGID_6_" d="M3.24 1.15h88.83v60.71H3.24z"/>
  </defs>
  <clipPath id="SVGID_7_">
    <use xlink:href="#SVGID_6_" overflow="visible"/>
  </clipPath>
  <path d="M38.34 21.5c2.12-1.4 3.94-1.28 3.94-1.28 3.42.1 3.54-2.42 3.54-2.42-.05-.69.64-1.16.64-1.16 1.56-2.02 4.38-1.39 5.43-1.2l-1.3-.46c-1.2-.13-3.46-.16-5.39 1.47 0 0-1.59 1.22-3.23 2.57-1.93.93-3.71 1.86-3.71 1.86l.08.62z" clip-path="url(#SVGID_7_)" fill="#fff"/>
  <path d="M10.43 38.75s9.78 5.05 15.6-4.37c0 0 6.92-8.81-1.38-13.01 0 0-2.02-.82-4.2-1.58-1.86-1.37-3.67-2.58-3.67-2.58-7.71-4.72-11.54 6.17-11.54 6.17-4.46 9.66 5.19 15.37 5.19 15.37" clip-path="url(#SVGID_7_)" fill="#ef3e42"/>
  <path d="M10.71 38.17s8.95 5.01 15.02-4.13c0 0 6.11-8.36-1.81-12.07 0 0-1.87-.75-3.87-1.45-1.72-1.27-3.39-2.39-3.39-2.39C9.13 13.66 5.65 23.8 5.65 23.8c-4.16 8.99 5.06 14.37 5.06 14.37" clip-path="url(#SVGID_7_)" fill="#c53135"/>
  <path d="M6.88 21.37L6.33 23s-2.46 6.28 3.2 10.83c0 0 8.36 7.29 14.61 2.19l-1.37 1.25c-6.08 4.47-12.06.77-12.06.77s-8.46-4.82-5.52-13.27c0 0 .28-1.2 1.69-3.4" clip-path="url(#SVGID_7_)" fill="#b22b33"/>
  <defs>
    <path id="SVGID_8_" d="M-2-3H98.92v64.86H-2z"/>
  </defs>
  <clipPath id="SVGID_9_">
    <use xlink:href="#SVGID_8_" overflow="visible"/>
  </clipPath>
  <path d="M41.79 4.75C24.43 6.62 19.29 22.6 19.29 22.6l-.81-.76s5.36-16.3 22.97-18.11l.34 1.02z" clip-path="url(#SVGID_9_)" fill="#009d57"/>
  <defs>
    <path id="SVGID_10_" d="M3.24 1.15h88.83v60.71H3.24z"/>
  </defs>
  <clipPath id="SVGID_11_">
    <use xlink:href="#SVGID_10_" overflow="visible"/>
  </clipPath>
  <path d="M16.4 18.13c-1.5-.49-1.68.42-1.71.95-.04.53.43 1.55 1.07 2.1 1.91 1.65 4.83 1.94 4.83 1.94 3.44.45 3.07-.75 3.07-.75-.15-.83-.53-.95-.53-.95l-.25-.12c-.22-.07-.67-.14-1.02-.14 0 0 .89.48.23.83 0 0-2.21.46-4.64-1.84 0 0-.39-.64.78-.46.5.08.45-.05.45-.05s.48-.33-1.34-1.21c-.02.01-.31-.1-.94-.3" clip-path="url(#SVGID_11_)" fill="#fff"/>
  <path d="M86.37 36.94s-8.33 7.19-16.19-.62c0 0-8.78-6.95-1.68-12.98 0 0 1.78-1.26 3.72-2.52 1.49-1.76 2.97-3.37 2.97-3.37 6.4-6.39 12.65 3.32 12.65 3.32 6.58 8.37-1.47 16.17-1.47 16.17" clip-path="url(#SVGID_11_)" fill="#ef3e42"/>
  <path d="M85.95 36.44s-7.54 6.96-15.57-.52c0 0-7.89-6.71-1.05-12.17 0 0 1.64-1.16 3.43-2.32 1.37-1.63 2.74-3.11 2.74-3.11 6.28-6.09 12.03 2.96 12.03 2.96 6.14 7.79-1.58 15.16-1.58 15.16" clip-path="url(#SVGID_11_)" fill="#c53135"/>
  <path d="M85.77 19.21l.91 1.46s3.86 5.54-.58 11.28c0 0-6.43 9.04-13.7 5.53l1.62.9c6.96 2.93 11.91-2.06 11.91-2.06s7.11-6.66 2.28-14.19c0 0-.55-1.11-2.44-2.92" clip-path="url(#SVGID_11_)" fill="#b22b33"/>
  <defs>
    <path id="SVGID_12_" d="M-2-3H98.92v64.86H-2z"/>
  </defs>
  <clipPath id="SVGID_13_">
    <use xlink:href="#SVGID_12_" overflow="visible"/>
  </clipPath>
  <path class="st15" d="M47.95 11.17c17.32-2.22 26.03 12.12 26.03 12.12l.62-.92S65.59 7.76 48.04 10.1l-.09 1.07z"/>
  <path class="st16" d="M73.76 22.16c.48-.4.99-.95 1.46-1.67 0 0 .23-.71-.86-.27-.47.19-.39.02-.39.02s-.31-.29 1.25-1.57l.54-.39c1.54-.71 2.11.24 2.11.24.38 1.27-.86 2.39-.86 2.39-1.01 1.01-1.65 1.67-2.47 2.14l-.78-.89z"/>
  <path class="st15" d="M84 4.43c-16.67 7.02-19.8 21.58-19.8 21.58l-.92-.7s3.49-14.73 20.16-21.75l.56.87z"/>
  <path class="st17" d="M58.8 39.11s10.26 3.99 15.06-5.99c0 0 5.96-9.49-2.75-12.79 0 0-2.1-.6-4.35-1.13-1.99-1.17-3.92-2.18-3.92-2.18-8.17-3.88-10.82 7.35-10.82 7.35-3.42 10.07 6.78 14.74 6.78 14.74"/>
  <path class="st17" d="M59.02 38.49s9.43 4.04 14.5-5.68c0 0 5.2-8.96-3.07-11.82 0 0-1.94-.55-4.01-1.04-1.84-1.08-3.62-2.02-3.62-2.02-7.96-3.65-10.35 6.8-10.35 6.8-3.19 9.38 6.55 13.76 6.55 13.76"/>
  <path d="M53.45 22.19l-.37 1.68s-1.79 6.51 4.32 10.44c0 0 9.08 6.37 14.76.65l-1.23 1.38C65.34 41.42 59 38.37 59 38.37s-8.92-3.91-6.88-12.62c0 0 .15-1.23 1.33-3.56" clip-path="url(#SVGID_13_)" fill="#b22b33"/>
  <path class="st16" d="M74.12 24.62c-1.44-2.39-4.38-2.14-4.38-2.14-3.9.41-4.74-1.05-4.74-1.05-.42-1.51-2.24-2.59-2.24-2.59-4.55-2.5-7.54.64-7.54.64l-.34.16c1.33-1.88 3.75-3.96 8.04-1.65 0 0 1.81.87 3.68 1.86 2.08.51 4.01 1.07 4.01 1.07 8.32 2.8 3.24 10.81 3.24 10.81l-.72.91c1.16-2.08 2.22-6.35 1.18-7.69l-.19-.33z"/>
  <path class="st15" d="M62.9 24.6c-17.3-5.29-29.03 3.89-29.03 3.89l-.26-1.12s12.12-9.08 29.41-3.79l-.12 1.02z"/>
  <path class="st17" d="M21.33 35.07s5.32 9.64 15.4 5.05c0 0 10.65-3.46 6.09-11.58 0 0-1.23-1.8-2.61-3.65-.79-2.17-1.61-4.19-1.61-4.19-3.78-8.21-13.02-1.29-13.02-1.29-9.09 5.55-4.25 15.66-4.25 15.66"/>
  <path d="M21.89 34.75s4.65 9.14 14.78 4.92c0 0 9.73-3.54 5.21-11.04 0 0-1.13-1.66-2.41-3.37-.72-2.01-1.49-3.87-1.49-3.87-3.77-7.9-12.31-1.41-12.31-1.41-8.45 5.16-3.78 14.77-3.78 14.77" clip-path="url(#SVGID_13_)" fill="#b02b2d"/>
  <path d="M28.05 18.66l-1.36 1.06s-5.54 3.85-3.38 10.78c0 0 2.89 10.71 10.92 9.95l-1.83.27c-7.54.33-10.45-6.07-10.45-6.07s-4.35-8.72 2.8-14.1c.01-.01.9-.85 3.3-1.89" clip-path="url(#SVGID_13_)" fill="#be2f37"/>
  <path class="st16" d="M42.34 33.76c.43-2.76-2-4.45-2-4.45-3.26-2.19-2.96-3.83-2.96-3.83.64-1.43-.06-3.42-.06-3.42-2.12-4.7-5.68-4.58-5.68-4.58l-.36-.1c2.23-.59 4.94-.39 6.75 4.14 0 0 .83 1.82 1.63 3.78 1.26 1.72 2.4 3.39 2.4 3.39 4.6 7.48-4.44 10.38-4.44 10.38l-1.13.23c2.22-.85 5.73-3.46 5.79-5.15l.06-.39z"/>
  <path class="st21" d="M18.15 4.95c0-.08.19 0 .19-.08-.16.02-.52-.14-.65-.25-.03-.02-.03-.14-.05-.19-.06-.08-.2 0-.25.03-.05.03-.11-.08-.22-.06 0-.08-.08-.08-.11-.14-.05-.05-.14-.02-.14-.02-.14.14-.3.16-.44.14l-.11-.11h-.11c-.08-.11-.11-.16-.22-.22-.08-.03-.17.03-.25.06a.23.23 0 0 1-.28-.03c-.06-.03-.14 0-.19 0-.03 0-.03-.06-.06-.06-.08 0-.19.03-.27 0-.05-.06-.14-.11-.22-.08-.08.08-.22.14-.19.27-.14 0-.3-.14-.35.05-.22-.05-.39-.24-.6-.22-.08.03-.11.17-.22.17.03-.05-.03-.11-.06-.14-.13-.08-.3.11-.46.03-.16-.08-.33 0-.49.05-.14.02-.25.16-.35.27-.14.11-.36-.03-.41.08a.91.91 0 0 0 0 .65c.03.09.08.17.11.27 0 .05.14.11.17.17.03.08-.03.19 0 .27.11.19-.03.44.14.54.11.06.24.16.41.14.16.41.6.68 1.04.55.03 0 .03-.14.03-.21.17.03.33.08.46 0 .03 0 .06-.08.08-.14h.08V6.7c.14 0 .27.02.41.06.19.05.41.05.57-.06.02 0-.03-.14 0-.19h.08c.05-.08.03-.19.03-.3.3.03.65.11.9-.05.08-.03.06-.22.06-.33.24 0 .52-.11.71-.03.11.05.27.05.38.08l.08.08c.22.03.46-.08.68-.08-.03-.27.06-.44.08-.71v-.22z"/>
  <path class="st22" d="M11.82 4.9c-.03.22.16.33.25.52.08.3.08.63.24.9 0 0 .05.03.11.05h.11l.06.06c-.03-.27.08-.63-.16-.85v-.11c.11.05.24.11.24.19.03.22.06.44.17.63.05.14.19.24.25.38.03.05.05.14.11.19.03.06.14.06.22.03.03-.03-.03-.11 0-.14h.08c.03-.08.03-.2 0-.27-.03-.06-.08-.08-.11-.11 0-.14-.13-.19-.16-.33s-.13-.27-.25-.41c-.08-.14-.03-.3-.08-.43-.03-.03-.08-.03-.08-.06 0-.08.06-.16.03-.25.13.03.27-.03.33.09.05.05 0 .3.05.38.08.08.22.16.25.25.08.16.08.41.13.6.06.22.14.6.38.49.03-.03-.08 0-.03.02.04.02.05-.28.03-.3-.14-.06-.08-.22-.14-.36l.11-.11c-.03-.14-.08-.25-.14-.35-.03-.06-.16-.33-.16-.39-.06-.16.03-.27-.06-.41.08.11.17-.25.17-.11.03.14.36-.08.27.41-.04.24.08.98.06 1.23.08 0 .11.11.16.11.11.03.16-.05.27-.03 0-.45-.07-.59-.11-.68-.03-.13 0-.63-.03-.76.08.13.19.57.25.68.08.16.08.38.17.54 0 .03.17.08.19.05.14-.3.06-.65-.08-.93 0-.05-.03-.49-.03-.54.03 0 .06 0 .08.03.05.17.11.74.16.9.05.11.16.17.16.3.08 0 .17.08.17.05.08-.27-.03-.55.06-.81.02.16.11.3.13.49 0 .08.17.22.22.14.08-.11-.19-1.01-.22-1.18-.03-.06.11-.08.14-.14 0 .19.11 1.15.33 1.2.02-.24-.06-.51.02-.76.11.25.19.49.41.66.06-.27-.03-.55.08-.79h.14c.08.16.03.35.08.54 0 .08.13.14.16.11.05-.11 0-.27.03-.41.03-.13.25-.22.3-.13.11.19-.22.54.05.71.03.03.03-.06.03-.11.05.03.14.06.22.06 0-.08-.03-.22.03-.27.06-.08.06.11.16.13-.03-.16.03-.35.03-.51-.05 0-.13.02-.19-.03V4.9h-.08c-.03-.11-.08-.16-.14-.19-.19-.06-.33-.14-.52-.19-.08-.03-.24-.03-.24.11-.04-.03-.09.02-.12-.03-.08-.06-.16.05-.24.08-.03.03 0 .08 0 .14h-.06c-.03-.11 0-.22-.06-.3h-.06c.03-.03-.03-.05-.03-.08-.16 0-.32.03-.43-.11-.08-.11-.25.08-.38.06 0-.06-.03-.06-.03-.11-.11 0-.24-.02-.27.06-.05.08-.03.19-.08.28h-.06a.198.198 0 0 1-.05-.14h-.08c-.08-.16-.25-.11-.38-.11l-.03.06h-.08c-.03.08 0 .19 0 .27v-.08c-.03-.02-.11.03-.11-.02 0-.11 0-.28-.14-.25v.11c-.03.02-.11 0-.14 0-.03-.11-.13-.03-.19-.11v-.08c-.08-.02-.19-.05-.27-.02v.11c-.22-.05-.3.06-.3.27H13c-.11-.02-.11-.19-.22-.24-.11-.06-.21.03-.24.08-.08.05-.19.02-.25.05-.05.05-.08.11-.16.08 0 .16.05.33-.03.44-.06.08-.02-.05-.08-.11l-.2-.03z"/>
  <path class="st21" d="M48.68 10.1c-.03-.08.18-.06.15-.14-.15.08-.53.04-.7-.02-.03-.02-.07-.12-.11-.16-.08-.06-.18.06-.22.1-.04.05-.13-.04-.22.02-.03-.08-.11-.05-.15-.09-.07-.03-.14.01-.14.01-.08.17-.23.25-.37.27-.03-.02-.1-.05-.14-.07l-.11.04c-.11-.08-.15-.12-.27-.14-.09 0-.15.08-.22.13a.2.2 0 0 1-.26.06c-.06-.01-.13.04-.18.06l-.07-.03c-.08.02-.17.08-.26.08-.07-.03-.17-.06-.23-.01-.05.1-.16.2-.09.32-.13.04-.33-.03-.32.16-.22.02-.44-.11-.64-.01-.07.05-.05.19-.16.22.01-.06-.06-.09-.09-.11-.16-.04-.25.19-.43.17-.18-.03-.31.11-.45.21-.12.07-.18.23-.25.37-.1.14-.35.09-.36.21-.02.21.06.44.21.62.06.07.13.13.19.22.02.05.16.06.21.1.05.07.04.19.09.26.17.15.11.42.3.48.12.02.29.08.43 0 .28.34.79.45 1.15.19.03-.01-.01-.14-.04-.22.16-.03.34-.03.44-.15.03-.01.03-.09.04-.16l.08-.02-.02-.05c.13-.04.27-.06.41-.08.2-.01.41-.08.53-.24.03-.01-.07-.12-.06-.18l.08-.03c.03-.09-.03-.19-.07-.29.3-.07.66-.11.84-.34.07-.06-.02-.23-.05-.33.23-.08.46-.27.66-.25.12.02.28-.03.39-.04.03.02.08.06.1.05.22-.04.42-.23.62-.29-.11-.25-.09-.43-.15-.7l-.09-.2z"/>
  <path class="st22" d="M42.66 12.06c.05.21.26.26.4.41.17.26.28.57.52.78 0 0 .06 0 .12.02l.1-.04c.03-.01.04.02.07.04-.11-.25-.12-.62-.42-.75l-.04-.1c.12.02.27.03.29.1.09.2.19.4.36.54.1.11.26.17.35.28.04.04.09.11.16.15.04.04.15.01.22-.04.02-.04-.06-.09-.05-.13l.08-.03a.48.48 0 0 0-.09-.26c-.04-.04-.1-.05-.14-.07-.04-.13-.19-.14-.26-.26s-.22-.22-.36-.31c-.12-.1-.12-.28-.22-.39-.03-.02-.09 0-.09-.03-.03-.08 0-.17-.05-.24.14-.02.25-.12.34-.03.07.03.09.28.17.34.11.05.26.09.31.16.13.13.21.36.32.53.12.19.32.53.52.34.02-.04-.08.03-.02.03.03 0-.04-.29-.07-.29-.15-.01-.15-.18-.24-.29l.07-.14c-.07-.12-.16-.21-.24-.29-.05-.04-.26-.26-.28-.31-.1-.14-.06-.27-.18-.37.11.08.08-.28.12-.16.07.12.31-.19.39.3.04.25.39.91.44 1.15.08-.03.14.07.19.05.11-.01.14-.1.25-.11-.14-.43-.26-.54-.32-.61-.07-.12-.2-.59-.27-.72.12.1.36.48.45.57.13.13.2.34.33.47.01.03.18.03.2-.01.03-.33-.16-.64-.37-.86l-.2-.51c.02-.01.05-.02.09 0 .1.14.34.67.44.8.08.09.21.1.25.23.08-.03.18.03.17 0-.01-.29-.2-.51-.21-.79.08.15.2.25.29.42.03.08.22.16.25.06.04-.13-.5-.9-.58-1.04-.04-.05.08-.11.09-.17.06.18.47 1.05.69 1.03-.05-.24-.22-.48-.22-.73.18.2.34.4.6.49-.03-.28-.2-.51-.18-.78l.13-.04c.13.13.14.33.25.49.03.08.17.08.19.05.02-.12-.09-.26-.1-.4-.02-.13.16-.29.24-.22.16.15-.03.59.28.65.03.02.01-.06-.01-.11.06.01.15.01.22-.02-.03-.08-.1-.2-.06-.27.02-.1.08.09.2.08-.08-.15-.09-.35-.14-.5-.05.02-.12.07-.19.04l-.02-.05-.08.02c-.06-.1-.13-.13-.19-.14-.2.01-.35-.03-.55-.02-.08 0-.24.05-.2.18-.03-.02-.07.06-.11.01-.09-.03-.14.1-.21.16-.02.03.03.08.05.13l-.05.02c-.06-.09-.07-.21-.15-.27l-.05.02c.02-.03-.05-.04-.05-.06-.16.05-.3.12-.45.03-.11-.08-.21.15-.35.17-.02-.05-.04-.04-.06-.09-.1.04-.24.05-.24.14-.02.1.04.19.01.28l-.05.02a.186.186 0 0 1-.09-.12l-.08.03c-.13-.13-.27-.03-.4.02l-.01.06-.08.03c0 .08.06.18.08.25l-.02-.05c-.04-.02-.09.06-.11 0-.03-.1-.08-.26-.21-.19l.04.1c-.02.03-.11.03-.13.04-.06-.09-.14.02-.22-.04-.01-.03-.03-.08-.03-.08-.09 0-.2.01-.27.06l.03.1c-.22.02-.26.15-.2.36l-.1.03c-.11.01-.17-.15-.29-.16-.12-.02-.2.09-.2.15-.06.08-.17.09-.21.13-.04.06-.05.13-.13.13.05.16.15.29.11.42-.03.09-.04-.04-.11-.08l-.17.08z"/>
  <path class="st21" d="M39.95 4.04c.01-.08-.19-.02-.18-.11.16.05.53-.07.68-.16.03-.02.04-.13.08-.18.06-.07.19.02.24.06.06.03.12-.07.23-.03 0-.08.08-.08.12-.12.06-.05.14-.01.14-.01.12.15.28.2.42.19.03-.02.09-.07.12-.09.03 0 .08.01.11.01.09-.1.13-.15.24-.19.09-.02.16.05.24.09.07.06.18.08.27.01.06-.02.13.01.19.02l.06-.05c.08.01.19.05.27.03.06-.04.15-.09.22-.05.07.09.2.16.16.3.13.02.31-.1.34.09.22-.03.41-.19.62-.14.08.03.09.17.2.19-.02-.06.04-.1.07-.13.14-.06.28.14.46.08.17-.06.32.04.48.11.13.04.22.2.32.31.12.13.36.02.4.14.06.2.03.44-.08.65-.04.08-.1.15-.14.26-.01.06-.15.09-.18.14-.04.08 0 .19-.04.27-.13.18-.02.44-.2.53-.11.04-.26.13-.42.09-.21.38-.68.6-1.1.41-.03 0-.01-.14 0-.22-.17.01-.34.04-.46-.06-.03-.01-.04-.09-.06-.15l-.08-.01.01-.06c-.14-.02-.27-.01-.41 0-.2.03-.41 0-.56-.12-.03 0 .04-.13.02-.19l-.08-.01c-.05-.09 0-.19.01-.3-.3-.01-.66.03-.89-.16-.08-.04-.03-.22-.01-.33-.24-.03-.5-.17-.7-.12-.12.04-.28.02-.39.04-.03.03-.07.07-.09.07-.22 0-.45-.14-.67-.16.06-.27 0-.44 0-.71l.02-.23z"/>
  <path class="st22" d="M46.24 4.76c0 .22-.2.3-.3.49-.12.28-.16.61-.35.86l-.12.04c-.03 0-.08-.01-.11-.01-.03-.01-.03.02-.06.04.06-.27 0-.63.27-.82 0-.03.01-.08.01-.11-.12.04-.26.08-.27.16-.05.21-.11.43-.24.61-.07.13-.22.22-.29.35-.03.05-.07.12-.13.17-.03.05-.14.04-.22 0-.02-.03.04-.1.02-.14h-.09c-.02-.09 0-.2.03-.27.03-.05.09-.07.12-.09.01-.14.15-.18.2-.31.04-.13.17-.25.29-.38.1-.13.06-.29.14-.42l.08-.04c.01-.08-.03-.17 0-.25-.14.01-.27-.06-.34.04-.06.05-.04.3-.1.37-.09.07-.24.13-.27.21-.1.16-.13.4-.21.58-.08.21-.21.57-.44.44-.02-.03.08.01.02.03-.04.01-.02-.29.01-.3.14-.04.11-.21.17-.34.03 0-.09-.09-.09-.12.04-.13.11-.23.18-.33.03-.05.2-.31.21-.36.08-.16 0-.28.1-.4-.09.1-.13-.26-.15-.13-.02.14-.31-.12-.29.38.01.24-.2.96-.21 1.21-.08-.02-.12.09-.17.08-.11.02-.15-.07-.27-.06.05-.45.14-.58.19-.67.04-.13.08-.62.12-.75-.1.12-.26.54-.32.65-.1.15-.13.37-.23.52 0 .03-.17.06-.2.03-.1-.32.03-.66.2-.91 0-.05.08-.48.09-.54-.03 0-.05-.01-.08.02-.07.16-.2.72-.27.87-.07.1-.18.14-.2.28-.08-.01-.17.06-.17.04-.05-.28.09-.54.05-.82-.05.16-.14.28-.2.47-.01.09-.19.2-.23.11-.07-.12.32-.98.36-1.14.04-.05-.1-.1-.12-.15-.02.19-.25 1.12-.47 1.15 0-.25.12-.51.06-.76-.14.23-.25.47-.48.6-.02-.28.09-.54.01-.8 0-.03-.13-.04-.14-.02-.1.15-.07.35-.15.53-.01.08-.15.12-.18.09-.04-.11.03-.27.02-.41-.01-.14-.22-.25-.28-.17-.13.18.15.57-.14.7-.03.02-.02-.06-.01-.11-.06.02-.14.04-.22.03.01-.08.05-.21.01-.28-.04-.09-.07.1-.18.12.05-.16.02-.36.03-.52.06.01.13.04.19 0l.01-.06c.03 0 .08.01.08.01.04-.1.1-.15.16-.17.2-.03.35-.09.54-.13.08-.02.25 0 .23.14.03-.02.08.04.11-.01.09-.04.16.07.23.11.03.03-.01.08-.02.13l.06.01c.04-.11.03-.22.09-.29h.05c-.03-.03.03-.05.04-.08.16.02.32.07.45-.05.1-.1.23.11.37.1.01-.06.03-.05.04-.1.11.01.25 0 .26.08.05.09.01.2.05.28l.06.01c.03-.02.06-.07.07-.13.03 0 .06.01.08.01.1-.15.26-.08.39-.06l.02.06.08.01c.02.08-.03.19-.03.27 0-.03.01-.06.01-.06.03-.02.11.04.11-.02.01-.11.03-.27.16-.22 0 .03-.01.08-.01.11.02.03.11.01.14.02.04-.11.14-.01.2-.08l.01-.08c.08-.02.2-.03.28 0 0 .03-.01.08-.01.11.22-.02.29.1.26.31.03 0 .08.01.11.01.11-.01.13-.17.24-.22.11-.04.21.06.23.11.08.07.19.05.24.09.05.06.06.12.15.1-.02.16-.09.32-.03.44.05.08.03-.05.09-.1h.21z"/>
  <path class="st21" d="M62.89 23.69c.03-.08-.18-.07-.15-.14.14.08.53.06.7.01.03-.02.08-.11.12-.16.08-.06.17.07.22.11.04.05.13-.03.22.03.03-.08.1-.05.15-.09.07-.03.14.03.14.03.08.18.22.26.36.29.04-.02.1-.05.14-.06l.1.04c.11-.07.16-.11.28-.12.08 0 .14.08.21.14.06.08.16.12.26.08.06-.01.13.05.18.07l.07-.03c.08.03.17.1.25.1.07-.03.17-.05.23.01.05.11.15.21.08.33.13.05.33-.02.31.18.22.03.44-.09.64.02.07.06.04.19.14.23 0-.06.07-.09.1-.11.16-.03.24.22.42.2.18-.02.31.12.44.23.11.08.17.24.23.38.08.15.34.11.35.23 0 .21-.09.44-.24.61-.06.07-.14.12-.2.21-.02.05-.17.05-.21.09-.05.06-.04.19-.1.25-.17.14-.13.42-.33.46-.12.01-.29.06-.43-.03-.3.32-.81.41-1.16.12-.03-.01.03-.14.05-.21-.16-.04-.33-.05-.43-.17-.03 0-.03-.09-.03-.15l-.08-.03.02-.05c-.13-.05-.26-.07-.4-.1-.2-.02-.4-.1-.51-.26-.03-.01.08-.12.07-.18 0 0-.05-.02-.08-.03-.02-.1.05-.19.09-.29-.29-.09-.65-.14-.82-.39-.07-.05.03-.22.07-.32-.23-.09-.44-.3-.65-.29-.12.01-.27-.05-.39-.06-.03.01-.08.06-.11.05-.21-.06-.4-.25-.61-.33.13-.24.11-.42.19-.69l.1-.21z"/>
  <g>
    <defs>
      <path id="SVGID_14_" d="M3.24 1.15h88.83v60.71H3.24z"/>
    </defs>
    <clipPath id="SVGID_15_">
      <use xlink:href="#SVGID_14_" overflow="visible"/>
    </clipPath>
    <path d="M68.79 25.98c-.06.22-.28.25-.42.39-.19.25-.31.55-.56.75 0 0-.06 0-.12.01l-.1-.04c-.02-.01-.03.02-.07.03.13-.24.16-.61.47-.73l.04-.1c-.13.01-.27.01-.3.08-.11.19-.21.39-.38.52-.1.11-.27.15-.37.26-.05.04-.1.11-.17.14-.04.04-.15 0-.21-.06-.02-.04.06-.09.05-.13l-.08-.03a.55.55 0 0 1 .1-.25c.05-.04.11-.05.14-.06.05-.12.2-.12.27-.24.08-.12.23-.2.38-.29.13-.1.14-.27.24-.38.04-.02.09 0 .1-.02.03-.07.01-.17.06-.24-.14-.02-.24-.13-.34-.04-.07.03-.11.28-.19.33-.11.04-.27.07-.32.14-.14.12-.23.35-.35.51-.13.18-.35.5-.54.31-.01-.03.08.03.02.04-.04 0 .06-.29.08-.29.15 0 .16-.17.26-.28.02.01-.07-.12-.06-.14.08-.11.17-.2.26-.28.05-.04.27-.25.3-.29.11-.13.07-.27.2-.36-.12.07-.06-.29-.11-.16-.07.12-.3-.21-.4.28-.05.24-.44.88-.51 1.12-.08-.03-.14.06-.19.04-.11-.02-.13-.11-.24-.13.16-.42.28-.53.35-.59.08-.12.23-.58.31-.7-.13.1-.39.46-.48.54-.14.12-.22.32-.36.44-.01.03-.18.02-.2-.02-.02-.33.19-.62.42-.83.02-.06.21-.45.23-.5-.02-.01-.05-.02-.08 0-.11.13-.37.64-.49.78-.09.08-.21.09-.26.22-.07-.03-.18.01-.17-.01.03-.28.23-.5.25-.78-.08.14-.21.24-.31.4-.03.08-.23.14-.25.05-.04-.13.55-.87.64-1.01.04-.04-.07-.11-.08-.18-.07.18-.53 1.02-.75.99.07-.24.24-.46.26-.72-.19.19-.36.39-.62.46.05-.28.23-.5.22-.77l-.13-.05c-.14.12-.16.32-.28.48-.03.08-.17.08-.19.04-.01-.12.1-.25.13-.39s-.15-.3-.23-.24c-.17.14 0 .59-.31.64-.04.01 0-.06.01-.11-.06 0-.14 0-.22-.03.03-.07.11-.19.08-.26-.02-.1-.09.08-.2.07.09-.14.11-.34.17-.49.05.02.12.08.19.05l.02-.05.08.03c.07-.09.14-.12.2-.13.2.02.35 0 .55.01.08.01.24.07.19.2.04-.01.07.06.11.01.1-.02.13.12.2.17.02.03-.03.07-.05.12l.05.02c.06-.09.08-.2.16-.26l.05.02c-.02-.03.04-.04.06-.06.15.06.29.14.44.06.12-.07.2.17.34.19.02-.05.04-.04.07-.09.1.04.24.06.23.15.02.09-.05.19-.02.28l.05.02a.29.29 0 0 0 .11-.11l.07.03c.14-.12.27-.01.39.04l.01.06.07.03c0 .08-.07.18-.1.25l.02-.05c.04-.02.09.07.11.02.04-.1.1-.25.22-.18-.01.03-.03.08-.04.1.02.04.1.04.13.05.07-.09.14.03.22-.03l.03-.08c.09 0 .2.02.27.08l-.04.11c.22.03.26.16.18.36l.1.04c.11.02.17-.13.29-.15.12-.01.19.11.2.17.06.08.17.09.21.14.03.07.03.13.12.13-.06.15-.17.28-.14.42.02.1.05-.04.12-.07l.13.06z" clip-path="url(#SVGID_15_)" fill="#ae5c10"/>
    <path d="M83.26 3.82c-.03-.08-.18.06-.21-.01.16-.03.44-.3.53-.45.02-.03-.02-.14-.01-.2.02-.1.18-.07.24-.06.06.01.07-.11.19-.13-.03-.08.05-.1.06-.16.04-.07.12-.07.12-.07.17.08.34.05.46-.02.02-.03.05-.1.07-.14l.1-.04c.04-.13.05-.19.13-.28.06-.05.16-.02.25-.03.09.03.2-.01.24-.11.04-.04.13-.04.18-.06.03-.01.01-.06.03-.07.08-.03.19-.04.25-.09.03-.07.09-.15.18-.15.11.05.25.06.27.19.13-.05.24-.23.35-.07.19-.12.28-.36.49-.41.09 0 .16.12.26.08-.04-.05-.01-.11 0-.15.1-.12.32 0 .45-.13s.31-.11.48-.11c.14-.02.29.07.43.14.17.06.33-.14.41-.06.14.15.22.38.22.62 0 .09-.02.18-.01.29.02.05-.09.15-.1.21 0 .09.09.17.09.25-.04.22.17.4.05.56-.06.09-.16.24-.32.27-.02.44-.34.85-.79.86-.03.01-.07-.12-.1-.2-.14.08-.28.19-.44.16-.02.01-.08-.06-.12-.1-.03.01-.05.02-.08.03l-.01-.05c-.13.04-.25.12-.37.19-.16.11-.37.19-.56.14-.02.01-.02-.14-.06-.18l-.08.02c-.08-.06-.09-.17-.13-.27-.27.12-.58.32-.87.25-.09 0-.12-.19-.16-.29-.23.08-.52.07-.68.21-.08.08-.24.14-.33.2-.02.03-.02.09-.05.1-.2.1-.46.08-.67.15-.07-.27-.2-.39-.32-.64l-.06-.19z" clip-path="url(#SVGID_15_)" fill="#7c4300"/>
  </g>
  <path d="M89.2 1.64c.1.2-.04.36-.06.57.02.31.14.62.07.93 0 0-.04.05-.08.09l-.1.04c-.03.01-.02.04-.03.07-.07-.27-.29-.56-.13-.85l-.04-.1c-.08.09-.2.18-.17.26.05.21.1.43.06.64 0 .15-.1.3-.1.44-.01.06-.01.15-.04.22-.01.06-.11.1-.2.1-.04-.02-.01-.11-.05-.13l-.08.03a.48.48 0 0 1-.09-.26c0-.06.05-.1.06-.14-.05-.13.06-.23.04-.36-.02-.14.04-.3.09-.47.03-.15-.07-.29-.07-.44.02-.04.07-.05.06-.08-.03-.08-.11-.14-.11-.22-.12.07-.27.06-.28.19-.03.07.1.28.08.38-.03.1-.13.22-.13.31-.02.18.06.41.07.61.02.23.07.61-.2.59-.03-.02.08-.03.03.02-.02.03-.14-.25-.13-.27.11-.1 0-.23.01-.38l-.14-.07c-.02-.14 0-.26.01-.38.01-.06.05-.36.03-.41 0-.18-.12-.25-.09-.4-.04.13-.24-.18-.19-.05.02.14-.36.04-.12.48.12.21.25.95.36 1.17-.08.03-.07.14-.11.16-.1.06-.17.01-.27.07-.16-.43-.13-.58-.13-.68-.02-.14-.21-.59-.23-.73-.03.16.01.61 0 .73-.02.18.05.39.03.57 0 .03-.13.13-.17.12-.23-.24-.27-.6-.23-.9-.02-.05-.14-.47-.16-.52-.03.01-.05.02-.07.05.01.17.14.73.15.9-.02.12-.1.21-.05.34-.08.03-.13.13-.14.11-.17-.23-.16-.52-.33-.75.03.17 0 .32.04.51.03.07-.08.26-.16.2-.11-.07-.16-1.01-.19-1.18.01-.06-.13-.04-.18-.08.07.18.28 1.11.09 1.24-.11-.22-.12-.51-.28-.71-.02.27-.01.53-.17.75-.14-.24-.16-.52-.34-.71-.01-.03-.14.02-.13.04-.02.18.09.34.11.54.03.08-.08.18-.12.16-.09-.09-.09-.26-.16-.38s-.31-.12-.33-.03c-.01.2.42.42.21.67-.02.03-.04-.04-.06-.09-.05.04-.11.09-.19.12-.03-.08-.05-.22-.12-.25-.08-.06-.02.12-.11.18-.03-.16-.14-.32-.2-.48.05-.02.14-.02.17-.09l-.01-.05c.03-.01.08-.02.08-.02-.01-.12.02-.18.06-.23.16-.11.26-.24.42-.35.07-.05.22-.11.27.02.02-.03.08 0 .09-.06.06-.08.17 0 .26 0 .03.02.03.08.05.13l.05-.02c-.01-.11-.07-.21-.05-.3 0 0 .02-.01.05-.02-.04-.02 0-.06 0-.09.15-.05.32-.08.37-.25.04-.13.26 0 .38-.07-.02-.05.01-.06-.01-.11.1-.03.22-.11.28-.04.08.06.09.18.17.23l.05-.02c.01-.04.02-.1 0-.15l.08-.03c.02-.18.2-.18.33-.23l.04.04.08-.03c.06.07.06.18.09.26l-.02-.06c.02-.03.11-.01.09-.06-.04-.1-.09-.26.05-.28l.04.1c.03.02.1-.04.13-.05-.01-.11.12-.07.14-.17l-.03-.08c.07-.05.16-.12.25-.12l.04.1c.19-.13.3-.05.37.16l.1-.02c.1-.06.04-.21.12-.3.08-.09.21-.05.26-.01.1.03.19-.04.25-.03.07.03.11.08.18.02.06.15.06.33.17.4.09.07.02-.06.05-.13l.17-.09z" fill="#ae5c10"/>
  <path class="st26" d="M8.43 46.06c.81-.67 1.83-1 2.98-1 .6 0 1.43.13 1.95.28.13.03.21.06.31.05.01.27.07 1.01.15 1.72-.06.08-.22.09-.3.02-.17-.8-.66-1.71-2.26-1.71-1.69 0-3.12 1.14-3.12 3.57 0 2.46 1.47 3.82 3.28 3.82 1.42 0 2.05-.98 2.31-1.68.08-.06.24-.04.29.05-.08.61-.36 1.38-.53 1.61-.13.02-.26.07-.39.12-.24.09-1.04.27-1.74.27-.99 0-1.94-.21-2.75-.79-.88-.65-1.57-1.71-1.57-3.23 0-1.29.55-2.41 1.39-3.1M19.22 47.19c.12-.35.23-.63.26-.69h.02c.07.14.17.46.25.74l.6 1.91c.1.32.08.36-.24.36h-1.36c-.31 0-.32-.01-.23-.28l.7-2.04zm1.97 4.68c.09.28.14.49.14.62 0 .12-.15.19-.39.21l-.32.03c-.08.06-.07.25.02.29.32-.01.74-.04 1.27-.04.5 0 .88.01 1.33.04.06-.05.08-.24 0-.29l-.3-.03c-.48-.06-.62-.23-.94-1.24l-1.51-4.72c-.17-.52-.34-1.06-.48-1.57-.02-.08-.1-.11-.17-.11-.12.15-.31.36-.57.45.03.19-.03.41-.19.83l-1.12 3.17c-.46 1.31-.77 2.08-.97 2.62-.15.42-.4.55-.66.58l-.36.03c-.07.06-.04.25.02.29.3-.01.7-.04 1.06-.04.52.01.86.01 1.15.04.1-.05.1-.24.02-.29l-.36-.03c-.26-.02-.32-.09-.32-.23 0-.13.08-.45.24-.98l.39-1.23c.08-.25.14-.28.42-.28h1.67c.33 0 .37.03.45.29l.48 1.59zM26.49 47.01c0-1.23-.02-1.42-.72-1.48l-.28-.02c-.07-.05-.04-.26.02-.29.62.02.99.04 1.43.04.43 0 .8-.01 1.36-.04.07.04.09.25.02.29l-.26.02c-.65.06-.67.25-.67 1.48v4.08c0 .74.03 1.04.23 1.27.12.13.33.27 1.2.27.94 0 1.17-.05 1.35-.15.22-.14.51-.56.73-1.16.07-.06.28-.01.28.07 0 .13-.31 1.33-.46 1.64-.28-.01-.68-.02-1.16-.02-.48-.01-1.02-.01-1.59-.01h-1.01c-.46 0-.82.01-1.43.04-.07-.04-.09-.22-.02-.29l.33-.03c.64-.07.66-.23.66-1.47v-4.24zM34.57 47.04c0-1.24-.02-1.44-.67-1.5l-.28-.02c-.07-.05-.04-.26.02-.29.55.02.93.03 1.39.03.44 0 .82-.01 1.37-.03.07.03.09.25.02.29l-.28.02c-.65.06-.67.26-.67 1.5v4.18c0 1.24.02 1.41.67 1.49l.28.03c.07.05.04.26-.02.29-.55-.02-.92-.03-1.36-.03-.46 0-.84.01-1.39.04-.07-.04-.09-.22-.02-.29l.28-.03c.65-.08.67-.25.67-1.49v-4.19zM41.19 48.56c0 .32.03.32.36.32h.75c.45 0 .81-.02.94-.07.12-.05.21-.11.28-.41l.1-.47c.05-.07.24-.07.29 0 0 .28-.04.75-.04 1.19 0 .42.04.87.04 1.14-.04.07-.21.07-.29 0l-.11-.46c-.04-.21-.14-.37-.35-.45-.15-.05-.43-.06-.85-.06h-.75c-.33 0-.36.01-.36.32v1.63c0 1.23.02 1.41.67 1.47l.37.04c.07.05.04.26-.02.29a29.354 29.354 0 0 0-2.85-.01c-.07-.03-.09-.22-.02-.29l.28-.04c.64-.08.66-.23.66-1.47v-4.22c0-1.23-.02-1.4-.66-1.48l-.18-.02c-.07-.05-.04-.26.02-.29.23.01.44.02.65.02.21.01.41.01.63.01h2.03c.71 0 1.35 0 1.49-.04 0 .54.01 1.1.03 1.55-.03.07-.19.11-.26.03-.09-.53-.22-.95-.77-1.11-.24-.06-.61-.07-1.07-.07h-.67c-.33 0-.33.02-.33.47v2.48zM51.37 52.82c-2.17 0-2.97-2.25-2.97-3.99 0-2.57 1.49-3.4 2.64-3.4 2.11 0 2.91 2.09 2.91 4.03.01 2.3-1.25 3.36-2.58 3.36m-.14.37c2.13 0 3.83-1.73 3.83-4.1 0-2.06-1.28-4.02-3.83-4.02-2.27 0-3.93 1.79-3.93 4.14 0 2.11 1.48 3.98 3.93 3.98M59.87 45.96c0-.33.03-.37.72-.37 1.22 0 1.76.88 1.76 1.81 0 .8-.25 1.21-.55 1.46-.32.26-.74.31-1.14.31-.56 0-.73-.02-.76-.06-.03-.05-.03-.18-.03-.39v-2.76zm-.91 5.28c0 1.23-.02 1.38-.66 1.47l-.28.04c-.07.08-.04.26.02.29a30.34 30.34 0 0 1 2.69 0c.07-.03.09-.23.02-.29l-.23-.04c-.64-.09-.66-.23-.66-1.47v-1.48c0-.25.02-.26.52-.26.44 0 .62.12.78.38.34.53.79 1.34 1.08 1.77.78 1.18 1.35 1.48 2.28 1.48.21 0 .39-.02.49-.06.05-.05.04-.14-.01-.17-.3-.02-.57-.15-.76-.33-.75-.67-1.34-1.61-2.22-3.12-.06-.09-.11-.21-.06-.28.55-.23 1.38-.84 1.38-1.96 0-.82-.39-1.35-.92-1.64-.51-.29-1.16-.35-1.84-.35-1.08 0-1.84.04-2.46.09-.09.05-.09.23-.01.29l.35.05c.45.06.49.26.49 1.37v4.22zM74 51c0 .35 0 1.75.03 2.05-.02.07-.09.13-.21.13-.13-.2-.45-.61-1.41-1.77l-2.56-3.1c-.3-.36-1.05-1.33-1.28-1.58h-.02c-.04.14-.06.41-.06.76v2.56c0 .55.02 2.08.2 2.43.08.13.29.2.56.22l.34.04c.07.09.06.23-.02.29-.5-.02-.88-.03-1.29-.03-.46 0-.76.01-1.15.03-.08-.06-.09-.22-.02-.29l.3-.04c.25-.02.43-.11.48-.23.15-.42.14-1.85.14-2.42v-3.39c0-.33-.01-.58-.24-.84-.15-.17-.42-.25-.68-.28l-.19-.02c-.07-.07-.07-.25.02-.29.46.04 1.05.04 1.25.04.18 0 .36-.01.51-.04.22.6 1.53 2.15 1.89 2.58l1.07 1.28c.75.92 1.3 1.56 1.82 2.13h.02c.04-.06.04-.25.04-.49V48.2c0-.55-.01-2.08-.22-2.43-.07-.11-.24-.18-.68-.23l-.19-.02c-.08-.07-.07-.26.02-.29.51.02.88.04 1.3.04.47 0 .76-.01 1.14-.04.09.06.09.22.02.29l-.15.02c-.35.06-.57.15-.62.25-.18.41-.16 1.87-.16 2.41V51zM78.69 47.04c0-1.24-.02-1.44-.67-1.5l-.28-.02c-.07-.05-.04-.26.02-.29.55.02.93.03 1.39.03.44 0 .82-.01 1.37-.03.07.03.09.25.02.29l-.28.02c-.65.06-.67.26-.67 1.5v4.18c0 1.24.02 1.41.67 1.49l.28.03c.07.05.04.26-.02.29-.55-.02-.93-.03-1.37-.03-.46 0-.84.01-1.39.04-.07-.04-.09-.22-.02-.29l.28-.03c.65-.08.67-.25.67-1.49v-4.19zM85.99 47.19c.12-.35.23-.63.26-.69h.02c.07.14.17.46.25.74l.6 1.91c.1.32.08.36-.24.36h-1.36c-.31 0-.32-.01-.23-.28l.7-2.04zm1.98 4.68c.09.28.14.49.14.62 0 .12-.15.19-.39.21l-.32.03c-.08.06-.07.25.02.29.32-.01.74-.04 1.27-.04.5 0 .88.01 1.33.04.06-.05.08-.24 0-.29l-.3-.03c-.48-.06-.62-.23-.94-1.24l-1.51-4.72c-.17-.52-.34-1.06-.49-1.57-.02-.08-.1-.11-.17-.11-.12.15-.31.36-.57.45.03.19-.03.41-.19.83l-1.12 3.17c-.46 1.31-.77 2.08-.97 2.62-.15.42-.4.55-.66.58l-.36.03c-.07.06-.04.25.02.29.3-.01.7-.04 1.06-.04.52.01.86.01 1.15.04.1-.05.1-.24.02-.29l-.36-.03c-.26-.02-.32-.09-.32-.23 0-.13.08-.45.24-.98l.39-1.23c.08-.25.14-.28.42-.28h1.67c.33 0 .37.03.45.29l.49 1.59zM8.27 56.36c.34-.28.77-.42 1.25-.42.25 0 .6.06.82.12.06.02.09.03.13.02 0 .11.03.42.07.73-.02.03-.09.04-.13.01-.07-.34-.28-.72-.95-.72-.71 0-1.32.48-1.32 1.5 0 1.04.62 1.61 1.38 1.61.6 0 .86-.42.97-.71.03-.03.1-.02.12.02-.03.26-.15.58-.22.68a.75.75 0 0 0-.16.05c-.1.04-.44.11-.73.11-.42 0-.82-.09-1.16-.33-.37-.27-.66-.72-.66-1.36.01-.55.24-1.02.59-1.31M20.52 57.68c-.22 0-.23.01-.23.16v.7c0 .52.02.59.28.62l.14.01c.03.02.02.11-.01.12-.25-.01-.41-.02-.59-.02-.2 0-.36.01-.54.02-.03-.02-.04-.09-.01-.12l.08-.01c.26-.05.27-.1.27-.62v-1.78c0-.52-.03-.6-.27-.62l-.12-.01c-.03-.02-.02-.11.01-.12.23 0 .39.02.59.02.18 0 .34-.01.54-.02.03.02.04.1.01.12l-.09.01c-.27.03-.28.1-.28.62v.57c0 .15.01.16.23.16h1.33c.22 0 .23 0 .23-.16v-.57c0-.52-.01-.59-.28-.62l-.09-.01c-.03-.02-.02-.11.01-.12.21.01.37.02.56.02.18 0 .34-.01.55-.02.03.02.04.1.01.12l-.1.01c-.27.03-.28.1-.28.62v1.78c0 .52.01.58.28.62l.11.01c.03.02.02.11-.01.12-.22-.01-.38-.02-.56-.02-.19 0-.36 0-.56.02-.03-.02-.04-.09-.01-.12l.09-.01c.28-.04.27-.1.28-.62v-.7c0-.15-.01-.16-.23-.16h-1.34zM32.24 56.76c0-.51-.01-.59-.28-.62l-.07-.01c-.03-.02-.02-.11.01-.12.1 0 .19.01.28.01H33.32c.3 0 .57 0 .63-.01.03.08.06.44.07.66-.02.03-.09.04-.12.01-.07-.23-.11-.4-.35-.47-.1-.02-.25-.03-.45-.03h-.33c-.14 0-.14.01-.14.2v.99c0 .14.01.14.15.14h.27c.2 0 .34-.01.39-.03.06-.02.09-.05.11-.17l.04-.2c.02-.03.1-.03.12 0 0 .12-.02.31-.02.5 0 .18.02.36.02.48-.02.03-.1.03-.12 0l-.04-.19c-.02-.09-.05-.16-.14-.19-.06-.02-.18-.03-.36-.03h-.27c-.14 0-.15 0-.15.13v.7c0 .26.01.43.09.51.06.06.15.11.56.11.36 0 .49-.02.59-.08.08-.05.21-.22.33-.48.03-.03.1-.01.12.03-.03.17-.15.55-.21.69-.21 0-.42-.01-.62-.01h-1.04c-.2 0-.36 0-.63.01-.03-.01-.04-.09-.01-.12l.15-.02c.26-.02.29-.1.29-.62v-1.77zM43.92 56.31c0-.14.01-.16.3-.16.52 0 .74.37.74.76 0 .34-.11.51-.23.61-.14.11-.31.13-.48.13-.24 0-.31-.01-.32-.03-.01-.02-.01-.07-.01-.16v-1.15zm-.38 2.23c0 .52-.01.58-.28.62l-.12.01c-.03.03-.02.11.01.12.22-.01.39-.02.58-.02.19 0 .34 0 .55.02.03-.02.04-.1.01-.12l-.1-.01c-.27-.04-.28-.1-.28-.62v-.62c0-.1.01-.11.22-.11.19 0 .26.05.33.16.14.22.34.56.46.75.33.5.57.62.96.62.09 0 .16-.01.2-.03v-.07a.498.498 0 0 1-.32-.14c-.32-.28-.56-.68-.93-1.31-.02-.04-.05-.09-.02-.12.23-.1.58-.36.58-.82 0-.35-.16-.57-.39-.69-.21-.14-.48-.16-.77-.16-.45 0-.78.01-1.04.04-.04.02-.04.1 0 .12l.15.02c.19.03.2.11.2.58v1.78zM55.51 56.31c0-.14.01-.16.3-.16.52 0 .74.37.74.76 0 .34-.11.51-.23.61-.14.11-.31.13-.48.13-.24 0-.31-.01-.32-.03-.01-.02-.01-.07-.01-.16v-1.15zm-.38 2.23c0 .52-.01.58-.28.62l-.12.01c-.03.03-.02.11.01.12.22-.01.39-.02.58-.02.19 0 .34 0 .55.02l.01-.12-.1-.01c-.27-.04-.28-.1-.28-.62v-.62c0-.1.01-.11.22-.11.19 0 .26.05.33.16.14.22.34.56.46.75.33.5.57.62.96.62.09 0 .16-.01.2-.03v-.07a.498.498 0 0 1-.32-.14c-.31-.28-.56-.68-.93-1.31-.02-.04-.05-.09-.02-.12.23-.1.58-.36.58-.82 0-.35-.16-.57-.39-.69-.21-.14-.48-.16-.77-.16-.45 0-.78.01-1.04.04-.04.02-.04.1 0 .12l.15.02c.19.03.2.11.2.58v1.78zM66.72 56.77c0-.52-.01-.61-.28-.63l-.12-.01c-.03-.02-.02-.11.01-.12.23.01.39.02.59.02.19 0 .34-.01.58-.02l.01.12-.12.01c-.27.03-.28.11-.28.63v1.76c0 .52.01.59.28.63l.12.01-.01.12c-.23-.01-.39-.01-.58-.01-.2 0-.35 0-.59.01-.03-.01-.04-.09-.01-.12l.12-.01c.27-.03.28-.1.28-.63v-1.76zM76.88 56.76c0-.51-.01-.59-.28-.62l-.07-.01c-.03-.02-.02-.11.01-.12.1 0 .19.01.28.01H77.96c.3 0 .57 0 .63-.01.03.08.06.44.08.66-.02.03-.09.04-.12.01-.07-.23-.11-.4-.35-.47-.1-.02-.25-.03-.45-.03h-.35c-.14 0-.14.01-.14.2v.99c0 .14.01.14.15.14h.27c.2 0 .34-.01.39-.03.06-.02.09-.05.11-.17l.04-.2c.02-.03.1-.03.12 0 0 .12-.02.31-.02.5 0 .18.02.36.02.48-.02.03-.1.03-.12 0l-.04-.19c-.02-.09-.05-.16-.14-.19-.06-.02-.18-.03-.36-.03h-.27c-.14 0-.15 0-.15.13v.7c0 .26.01.43.09.51.06.06.15.11.56.11.36 0 .49-.02.59-.08.08-.05.21-.22.33-.48.03-.03.1-.01.12.03-.03.17-.15.55-.21.69-.21 0-.42-.01-.62-.01h-1.04c-.2 0-.36 0-.63.01-.03-.01-.04-.09-.01-.12l.15-.02c.26-.02.29-.1.29-.62v-1.77zM88.63 59.36c-.39 0-.64-.13-.73-.18-.06-.11-.11-.46-.12-.69.02-.03.09-.04.11-.01.07.25.26.74.8.74.39 0 .58-.27.58-.57 0-.22-.04-.46-.38-.69l-.44-.31c-.23-.16-.5-.44-.5-.85 0-.47.34-.85.95-.85.14 0 .31.02.43.06.06.01.13.03.16.03.04.12.08.4.08.6-.02.03-.09.04-.12.01-.06-.24-.19-.56-.63-.56-.45 0-.55.32-.55.55 0 .29.22.49.4.61l.37.25c.29.19.58.48.58.95 0 .53-.38.91-.99.91"/>
  <path fill="#ed1c24" d="M7.59 54.44h82.35v.31H7.59z"/>
  <path class="st0" d="M-2-3H98.92v64.86H-2z"/>
</svg>