<svg id="Layer_1" xmlns="http://www.w3.org/2000/svg" xmlns:xlink="http://www.w3.org/1999/xlink" viewBox="0 0 65 65">
  <style>
  </style>
  <defs>
    <path id="SVGID_18_" d="M-.11-.35H65V64H-.11z"/>
  </defs>
  <clipPath id="SVGID_2_">
    <use xlink:href="#SVGID_18_" overflow="visible"/>
  </clipPath>
  <path d="M18.01 26.91c0-1.2.97-2.17 2.16-2.17s2.17.97 2.17 2.17-.97 2.17-2.17 2.17-2.16-.98-2.16-2.17M26.37 20.72c0-1.2.97-2.16 2.16-2.16 1.2 0 2.16.97 2.16 2.16 0 1.19-.97 2.16-2.16 2.16-1.19.01-2.16-.96-2.16-2.16M41.98 30.5a2.166 2.166 0 0 1 4.33 0c0 1.19-.97 2.17-2.17 2.17-1.19 0-2.16-.97-2.16-2.17M37.13 22.09c0-1.2.97-2.16 2.17-2.16 1.19 0 2.16.97 2.16 2.16 0 1.2-.97 2.16-2.16 2.16-1.2.01-2.17-.96-2.17-2.16M38.66 40.2a2.166 2.166 0 0 1 4.33 0c0 1.19-.97 2.16-2.17 2.16-1.19.01-2.16-.96-2.16-2.16M33.67 31.77a2.166 2.166 0 1 1 4.33 0 2.166 2.166 0 0 1-4.33 0M24.19 30.75c0-1.2.97-2.17 2.17-2.17s2.17.97 2.17 2.17c0 1.19-.97 2.16-2.17 2.16s-2.17-.97-2.17-2.16M23.87 40.2c0-1.19.97-2.16 2.17-2.16a2.166 2.166 0 1 1 0 4.33c-1.21 0-2.17-.97-2.17-2.17M16.19 36.08c0-1.2.97-2.16 2.17-2.16a2.166 2.166 0 1 1 0 4.33 2.18 2.18 0 0 1-2.17-2.17" clip-path="url(#SVGID_2_)" fill="#f7e03e"/>
  <path d="M25.28 20.57s-3.61-.17-4.76 3.44c0 0 .52.52 2.75-.75 0 0-.06 1.03.11 1.32 0 0 2.53-.74 1.9-4.01M17.36 28.54s-1.89 2.64-.51 5.1c0 0 2.52-.97 2.81-3.04 0 0-1.09.4-1.26.4-.18 0-.01-1.31-1.04-2.46M29.35 23.95s-3.5-.8-5.68 2.92c0 0 1.84.92 4.59-.97 0 0-.63 1.55.69 3.04-.01 0 2.69-1.61.4-4.99M30.95 22.98s-.17 2.24 3.5 2.98c0 0-3.55 1.09-3.61 3.44 0 0 4.87.75 5.1-3.21.23-3.96-5.16-3.27-4.99-3.21M21.72 29.8s-2.11 4.36.8 6.37c2.58 1.78 5.73.57 7.11-.52 0 0-1.43-1.89-6.08-.86.01 0 .87-3.44-1.83-4.99M37.37 19.02s-3.1-1.95-5.85-.17c0 0-.17 3.44 4.47 3.96 0 0 0-1.78-1.66-2.7.01 0 1.95.57 3.04-1.09M37.09 25.73s-.43 4.65 3.94 6.48c0 0 1.6-4.01-3.94-6.48M43.11 22.12s3.5 1.15 2.98 4.99c0 0-5.22 1.03-6.71-2.01 0 0 1.66-.74 3.5-.11 0-.01-.29-1.38.23-2.87M47.81 30.26s-2.69 2.29-.4 5.45c0 0 2.92-2.35.4-5.45M21.72 36.91s-1.38 1.89-.92 3.9c0 0-2.01-1.89-3.9-1.72 0 0-.12 3.04 4.82 3.73 0 0 2.92-3.33 0-5.91M30.21 31.06s-1.03 5.05 3.38 6.42c0 0 1.83-4.24-3.38-6.42" clip-path="url(#SVGID_2_)" fill="#39b54a"/>
  <path d="M31.18 42.41s4.47.57 6.25-3.44c0 0-2.18-1.2-5.45 1.49 0 0 .57-2.12-1.43-4.36 0 .01-2.81 2.7.63 6.31M41.16 33.93s-4.42.17-5.62 3.73c0-.01 3.27 1.43 5.62-3.73M41.9 33.99s-.23 3.21 3.21 4.87c0 0-1.72 2.06-1.26 3.55 0 0 2.81-.57 3.27-3.21.38-2.14-1.26-5.1-5.22-5.21" clip-path="url(#SVGID_2_)" fill="#39b54a"/>
  <path d="M37.5 48.31H27.44v-.51c2.89-.02 2.91-4.13 2.91-4.17v-.26h4.24v.26c0 .17.02 4.15 2.91 4.17v.51z" clip-path="url(#SVGID_2_)" fill="#754c29"/>
  <path clip-path="url(#SVGID_2_)" fill="#f58e84" d="M16.9 56.02h-1.52v-5.33h4.27v1.35H16.9v.82h2.49v1.28H16.9zM24.3 56.02h-4.06v-5.33h1.52v3.98h2.54zM27.03 56.12c-1.6 0-2.86-1.21-2.86-2.75 0-1.57 1.26-2.78 2.87-2.78 1.6 0 2.86 1.21 2.86 2.75 0 1.56-1.26 2.78-2.87 2.78m0-4.15c-.74 0-1.29.59-1.29 1.37 0 .79.57 1.4 1.31 1.4.74 0 1.3-.59 1.3-1.37-.01-.79-.59-1.4-1.32-1.4M35.37 56.01L33.59 56l-1.05-1.57h-.58v1.59h-1.53V50.7h2.52c.77 0 1.36.2 1.73.58.31.31.48.73.48 1.25 0 .77-.37 1.33-1.06 1.64l1.27 1.84zm-3.41-2.8h.92c.47 0 .74-.22.74-.59 0-.39-.27-.6-.75-.6h-.92v1.19zM36.15 50.69h1.54v5.32h-1.54zM40.91 56.02h-2.03V50.7h2.06c1.82 0 3 1.03 3 2.63 0 1.61-1.22 2.69-3.03 2.69m-.5-1.37h.56c.88 0 1.41-.48 1.41-1.29s-.54-1.31-1.41-1.31h-.56v2.6zM49.61 56.02h-1.64l-.38-.94h-1.98l-.37.94h-1.61l2.27-5.36h1.45l.01.02 2.25 5.34zm-3.54-2.15h1.07l-.53-1.36-.54 1.36z"/>
  <path clip-path="url(#SVGID_2_)" fill="#39b54a" d="M4.29 41.87l.19.85-.76.17-.58-2.58.77-.17.19.85 4.35-.97.2.88zM8.11 38.12l-5.24.34-.06-.9 2.13-.14-.06-.95-2.13.14-.06-.9 5.23-.35.06.9-2.32.15.07.96 2.32-.15zM7.96 33.96l-5.23-.48.22-2.41.79.08-.14 1.5 1.34.13.11-1.16.78.07-.11 1.16 1.54.14.15-1.61.78.07zM8.62 29.36l-.22.88-5.08-1.31.32-1.22c.25-.98.8-1.37 1.88-1.09.82.21 1.06.61 1.12.94l2.49-.14-.23.87-2.26.07c-.02.12-.06.3-.1.46l2.08.54zm-2.8-.72l.08-.31c.12-.47-.01-.69-.61-.85-.61-.16-.83-.02-.95.45l-.08.31 1.56.4zM9.56 26.24l-4.8-2.11.97-2.21.72.32-.61 1.38 1.24.55.47-1.07.72.32-.47 1.06 1.41.62.65-1.47.72.31zM7.86 19.89l.51.89-.19.34-.6-.77-.16.28-.74-.44.44-.74zM10.25 17.25c-.38-.25-.63-.14-.76.02-.18.23-.12.47.13.67.71.55 2.17-.64 3.29.23.68.53.71 1.28.19 1.95-.51.66-1.33.63-1.98.18l.43-.76c.44.3.78.29.96.06.19-.25.19-.52-.06-.71-.82-.64-2.16.64-3.35-.28-.66-.51-.72-1.2-.18-1.9.45-.58 1.13-.6 1.77-.21l-.44.75z"/>
  <path d="M17.1 15.91l-1.04.77-3.51-7.11 1.33-.99 5.81 5.39-1.04.77-1.22-1.24-1.18.88.85 1.53zm-1.38-2.58l.87-.65-2.43-2.37-.02.01 1.58 3.01zM22.48 4.15l3.03 7.19-1.07.45-2.37-5.61-.02.01 1.25 6.08-.59.25-3.48-5.14-.02.01L21.57 13l-1.07.45-3.03-7.18 1.62-.69 2.65 3.83.02-.01-.9-4.56zM27.74 10.92l-1.28.2.2-7.92 1.64-.26 2.64 7.48-1.28.2-.5-1.67-1.46.23.04 1.74zm-.03-2.93l1.07-.17-1.05-3.22h-.02v3.39zM32.45 3.79l.05-1.16 3.54.16-.06 1.28-2.71 5.23 2.46.12-.06 1.16-3.83-.18.05-1.27 2.75-5.23z" clip-path="url(#SVGID_2_)" fill="#f58e84"/>
  <path transform="rotate(-77.473 38.78 7.244)" clip-path="url(#SVGID_2_)" fill="#f58e84" d="M34.88 6.57h7.8v1.34h-7.8z"/>
  <path clip-path="url(#SVGID_2_)" fill="#f58e84" d="M40.33 11.62l3.06-7.17 1.14.49-.25 4.74.02.01 1.75-4.1 1.12.47-3.06 7.17-1.08-.46.35-5.15h-.02l-1.91 4.48zM49.29 11.91l1.77 1.3-2.34 3.19-.52-.38.14-.62c-.6.15-.99.13-1.5-.24-.85-.63-1-1.67-.27-2.67l2.38-3.24c.65-.89 1.7-1.23 2.77-.45 1.08.79 1.04 1.97.36 2.91l-.29.4-1.03-.75c.69-.94.68-1.32.25-1.64-.26-.19-.59-.19-.98.34l-2.37 3.23c-.29.4-.35.76.02 1.03.43.32.77.19 1.23-.44l.45-.61-.69-.51.62-.85z"/>
  <path transform="rotate(-39.24 53.684 17.859)" clip-path="url(#SVGID_2_)" fill="#39b54a" d="M51.06 17.41h5.25v.9h-5.25z"/>
  <path clip-path="url(#SVGID_2_)" fill="#39b54a" d="M53.46 21.96l4.59-2.54.4.73-2.09 2.42v.01l2.63-1.45.39.71-4.59 2.54-.38-.69 2.31-2.59v-.01l-2.87 1.59zM59.99 27.02c.42-.17.47-.44.41-.63-.09-.28-.31-.37-.63-.28-.85.27-.72 2.14-2.08 2.57-.83.26-1.46-.16-1.71-.96-.25-.8.25-1.46.99-1.72l.37.78c-.5.19-.68.47-.6.75.09.3.31.45.61.36.99-.31.71-2.14 2.15-2.59.8-.25 1.4.1 1.66.94.22.7-.16 1.27-.84 1.57l-.33-.79z"/>
  <path transform="rotate(-7.406 59.578 31.53)" clip-path="url(#SVGID_2_)" fill="#39b54a" d="M56.96 31.08h5.25v.9h-5.25z"/>
  <path d="M62.47 35.15l-.06 1.34c-.04.93-.58 1.4-1.65 1.35l-2.08-.1c-1.07-.05-1.56-.57-1.51-1.5l.06-1.34 5.24.25zm-4.54.69l-.02.31c-.02.48.15.65.7.68l2.29.11c.55.03.74-.13.76-.61l.01-.31-3.74-.18zM56.71 40.06l5.09 1.31-.6 2.33-.76-.19.37-1.47-1.31-.33-.29 1.13-.75-.2.28-1.13-1.49-.38-.4 1.57-.76-.2zM14.91 58.8c0-1.07.83-1.9 1.95-1.9.64 0 1.09.19 1.47.52l-.59.72c-.26-.22-.51-.34-.88-.34-.52 0-.93.43-.93.99v.01c0 .59.41 1.01.98 1.01.25 0 .44-.05.58-.15v-.44h-.69v-.74h1.66v1.63c-.38.32-.91.57-1.57.57-1.14 0-1.98-.78-1.98-1.88M19.02 56.98h1.72c.55 0 .94.14 1.18.39.21.21.32.49.32.84v.01c0 .56-.29.93-.75 1.12l.86 1.26H21.2l-.73-1.1h-.45v1.1h-1.01v-3.62zm1.67 1.74c.34 0 .54-.17.54-.43v-.01c0-.29-.21-.44-.54-.44h-.66v.88h.66zM23.94 56.95h.97l1.55 3.65h-1.08l-.26-.65h-1.41l-.26.65H22.4l1.54-3.65zm.88 2.22l-.4-1.03-.42 1.03h.82zM26.8 56.98h1.56c.91 0 1.5.47 1.5 1.27v.01c0 .86-.66 1.31-1.55 1.31h-.5v1.04H26.8v-3.63zm1.49 1.8c.35 0 .57-.19.57-.48v-.01c0-.31-.22-.47-.58-.47h-.48v.96h.49zM30.29 56.98h2.92v.85h-1.92v.55h1.74v.79h-1.74v.58h1.95v.85h-2.95zM33.75 56.98h2.91v.88h-1.9v.61h1.72v.84h-1.72v1.29h-1.01zM37.12 56.98h1.72c.55 0 .94.14 1.18.39.21.21.32.49.32.84v.01c0 .56-.3.93-.75 1.12l.86 1.26H39.3l-.73-1.1h-.45v1.1h-1.01v-3.62zm1.67 1.74c.34 0 .54-.17.54-.43v-.01c0-.29-.21-.44-.54-.44h-.66v.88h.66zM40.81 59.01v-2.04h1.02v2.02c0 .52.26.77.67.77.41 0 .67-.24.67-.75v-2.04h1.01v2.01c0 1.17-.67 1.69-1.7 1.69-1.03 0-1.67-.52-1.67-1.66M44.8 56.98h1.01v3.63H44.8zM47.36 57.86h-1.08v-.88h3.17v.88h-1.09v2.74h-1zM49.66 59.8h-.16v-.14h.48v.14h-.16v.8h-.16zM50.73 59.66v.94h-.14v-.74l-.15.74h-.08l-.15-.74v.74h-.14v-.94h.21l.12.55.12-.55z" clip-path="url(#SVGID_2_)" fill="#39b54a"/>
</svg>