<svg id="Layer_1" xmlns="http://www.w3.org/2000/svg" xmlns:xlink="http://www.w3.org/1999/xlink" viewBox="0 0 194 65">
  <style>
  </style>
  <defs>
    <path id="SVGID_16_" d="M5.08 1.37h185V60.9h-185z"/>
  </defs>
  <clipPath id="SVGID_2_">
    <use xlink:href="#SVGID_16_" overflow="visible"/>
  </clipPath>
  <path d="M139.09 33.06l-.01-.08c-.35.09-8.62 2.28-8.95 3.97-.03.17.04.38.2.57.19.23.54.47.94.47.04 0 .04 0 .71-.43 1.52-.96 5.54-3.5 7.19-4.04l-.08-.44v-.02m-.2.05c.08-.03.13-.05.13-.06v.02c-.03.02-.07.03-.13.04" clip-path="url(#SVGID_2_)" fill="#231f20"/>
  <path d="M157.02 40.56c-2.01.97-3.77 1.81-4.41 2.14-.05.02-.1.04-.14.05-.02-.25-.06-.32-.12-.4-.08-.1-.2-.25-.13-2.18.05-1.49 1.02-2.75 1.86-2.95.31-.07.76-.05 1.13-.01.42.05.74.06.89-.06.11-.08.08-.19.03-.42 0-.29 0-.88-.59-.88h-.26c-1.23 0-2.62 0-11.56 8.52-.04 0-.04 0-5.74 4.88-.83.59-1.78 1.36-2.67 2.07-1.22.99-2.49 2.01-2.98 2.05-.08.02-.18.06-.39.03-.54-.32-.35-1.89-.06-2.85.66-2.12 2.22-4.27 2.8-4.72 0 0 .32.02.79.02.97 0 2.26-.06 2.93-.38 4.81-2.31 5.02-4.44 5.02-4.46 0-1.06-2.14-1.97-2.8-1.97-2.17 0-5.55 2.04-7.24 4.36-5.21 7.16-7.81 9.53-8.51 10.12 0 0-.19.1-.51.01-.07-.18.1-.58.16-.71l2.22-3.95c.16-.3.81-1.17 1.56-2.17 1.61-2.17 3.62-4.86 3.62-5.57 0-.67-.97-1.24-1.43-1.52l-.21-.12-.8 1.12c-1.39 1.95-2.08 2.92-4.46 5.69-.47.55-1.04 1.25-1.64 1.99-1.55 1.9-3.48 4.27-3.88 4.29-.08-.09-.22-.29-.16-.39.42-.78 1-1.76 1.6-2.78 1.39-2.35 2.82-4.78 2.82-5.57 0-1.18-.85-1.67-1.6-2.11-.56-.32-1.03-.6-1.03-1.09 0-.28.34-.92.66-1.53.31-.6.64-1.21.75-1.65a.49.49 0 0 0-.09-.44c-.12-.16-.33-.25-.58-.25-.75 0-1.95.99-2.2 1.46-.26.48-.13 1.42-.05 2.04.03.25.07.52.05.57-.13.31-1.23 1.82-3.05 4.33l-.18.25c-1.5 2.07-5.55 6.67-6.56 7.13-.2-.2.16-.76.3-.93 2.95-3.25 6.13-7.42 6.13-8.5 0-1.03-.8-1.71-1.44-2.26-.41-.35-.76-.65-.76-.92 0-.12.44-.89.79-1.5.55-.96.88-1.56.88-1.73 0-.29-.07-.67-.67-.67-.85 0-1.51.25-1.97.74-.88.94-.77 2.5-.73 3.17.01.12.02.24.01.26-.09.21-1.21 1.64-4.02 5.11-2.56 3.16-8.3 8.28-9.07 8.28-.16 0-.4-.34-.4-.75 0-.9.6-2.51 1.6-4.31.91-1.63 1.77-2.73 2-2.73l.34.01c5.16 0 6.37-4.05 6.39-4.11 0-.71-.9-2.45-2.57-2.45-2.53 0-6.37 5.01-7.81 6.89l-.19.25c-5.21 6.75-6.11 7.59-6.4 7.86-.08.07-.12.11-.16.18 0 0-.31.2-.74.13-.13-.11-.15-.42-.16-.5 1.5-3.76 3.74-6.45 5.54-8.62 1.61-1.94 2.88-3.47 2.88-4.93 0-.43-.18-1.14-1.38-1.14-2.72 0-6.37 3.33-8.78 5.54-.76.7-1.39 1.28-1.78 1.57l-.21.08h-.06c.17-.46.99-1.35 1.48-1.88.19-.2.33-.36.4-.45 1.15-1.51 3.89-4.69 4.83-5.69 4.16-4.38 5.46-4.7 7.63-5.23l.37-.09c.14-.03.33-.05.58-.05.85 0 2.02.22 2.09.18l.08-.24-.02-.05c-.24-.61-2.75-1.5-3.15-1.5l-1.33.09c-3.98.27-9.24 6.79-10.97 8.92-4.64 5.74-7.49 10.8-7.49 11.91 0 .74.09 1.48.84 1.95.1-.09.39-.47.85-1.07 2.19-2.86 8.01-10.48 12.74-12.2h.34l-.06.27c-.03.08-.39.49-.8.97-2.01 2.33-7.36 8.51-6.35 12.13.28.99 1.16 1.69 1.53 1.69.79 0 1.72-1.02 3.25-2.7.75-.83 1.65-1.81 2.68-2.87l.28-.08v.81c-.24.9-.08 1.81.44 2.49.45.58 1.11.93 1.77.93 1.9 0 7-5.56 7.41-6.08.69-.85 3.53-3.64 3.56-3.68 2.54-3.34 3.05-3.74 3.14-3.77.48 0 .75.69.75.88 0 .49-1.03 1.67-2.23 3.03-1.81 2.06-4.06 4.63-4.06 6.34v1.66c0 .41.46 1.14.91 1.14 1.72 0 5.79-5 6.31-5.78l5.27-6.8c.43.31 1.03.83 1.03 1.01 0 .36-.56 1.26-1.25 2.4-1.34 2.18-3.37 5.47-3.37 8.16 0 1.04.46 1.74 1.14 1.74.82 0 2.68-2.2 4.18-3.97.62-.73 1.17-1.38 1.39-1.68.03-.03.06-.05.08-.07.04.37-.17 1.06-.39 1.79-.23.76-.47 1.54-.47 2.09 0 1.14.82 1.83 1.03 1.83 1.04 0 2.36-1.36 3.53-2.55.74-.76 1.44-1.48 1.9-1.8.06-.04.13-.06.18-.09v1.51c0 .6.76 2.57 2.45 2.57 1.5 0 3.82-1.83 5.14-2.98 1.83-1.39 4.68-4.04 7.19-6.38 2.27-2.12 4.62-4.31 4.91-4.33.18.72.19 1.03.2 1.46.01.38.02.84.18 1.65-.36.23-1.01.62-1.83 1.11-4.17 2.51-11.93 7.17-12.08 9.15-.05.68.4.84.81.99.22.08.6.12 1.13.12.73 0 1.5-.08 1.57-.08.13 0 13.48-1.44 13.48-7.78v-3.44c0-.48.79-.84 1.48-1.16.28-.13.55-.25.76-.38 2.79-1.64 5.22-2.54 6.99-3.2 1.65-.61 2.65-.98 2.82-1.54.06-.21.01-.43-.24-.71-.88.22-4.36 1.89-7.43 3.37m-15.43.04c.26 0 .28.1.28.39-.09.29-2.83 3.21-5.04 3.73-.4.09-.61.05-.88.04.02-.3 4.54-4.16 5.64-4.16m-34.75.61c.01-.01.58-.4.95-.4.14 0 .21.06.24.18.1.44-.13 1.05-.65 1.72-1.02 1.29-2.8 2.33-4 2.37-.08-.02-.18-.06-.17-.16.05-.81 2.04-2.42 3.63-3.71m43.2 6.55l-.09 1.51c-.18 2.96-8.94 5.06-11.69 5.06-.18 0-.3-.01-.4-.01l-.19-.01c-.08 0-.15 0-.17.07-.03-.08-.05-.23-.01-.29.72-.99 2.41-2.15 3.9-3.17.64-.44 1.25-.85 1.74-1.23.69-.53 5.59-3.76 6.2-3.9l.44.02c.01.16.05.32.1.51.1.33.22.75.17 1.44" clip-path="url(#SVGID_2_)" fill="#231f20"/>
  <path d="M189.96 10.76l-.02-.21c-.01 0-.02.01-.02.02l-.02-.08c-.04.03-.09.09-.17.19-1.54 1.96-4.67 3.11-9.31 3.42-4.59.3-4.84.26-6.34.12-.65-.06-1.5-.13-2.96-.21-.27-.01-.55-.18-.55-.55 0-.08.15-.31.27-.47.16-.22.25-.36.25-.45 0-.56-1.32-2.06-2.03-1.51-.32.24-.5.87-.5.88-.75 1.36-1.07 1.6-1.18 1.62-1.09 0-1.99-.05-2.86-.11-1.29-.08-2.53-.15-4.2-.04-3.74.24-7.13 2.31-7.19 3.84-.01.38-.02.42.13.51l.23.15.03-.09c.65-2.09 3.92-2.67 5.3-2.82 1.8-.2 3.79-.06 5.41.05.73.05 1.39.09 1.85.02h.1c-.33 1.14-3.89 4.28-6.03 6.16-.92.81-1.58 1.39-1.72 1.59l-.28.05c-.16-.51-.34-1.25-.35-1.28v-.96c0-.03.5-2.65 1.82-2.65.11 0 .25.03.39.06.58.12 1.1.05 1.1-.49 0-.67-.66-1.02-.79-1.02-2.35 0-8.89 6.72-8.95 6.79-.45.47-8.39 7.42-8.94 7.42-.15 0-.28-.06-.38-.2-.14-.18-.19-.41-.16-.51.94-3.83 2.29-4.75 2.27-4.75 6.17-.72 8.62-5.34 8.64-5.71.03-.72-.17-1.31-.58-1.74-.69-.72-1.71-.74-1.75-.74l-.95.03c-.33.01-1.12.14-2.06.3-1.39.23-3.12.53-4.02.53-.29 0-.47-.13-.65-.27-.2-.15-.43-.32-.83-.32-.19 0-.81.07-.81.91v1.07c0 1.22-2.27 5.36-2.72 6.13-1.63 2.73-4.13 5.51-4.44 5.54-.15 0-.23-.07-.23-.43 0-2.59 1.98-6 3.42-8.5.81-1.4 1.39-2.41 1.39-2.85 0-.71-.47-1.14-.91-1.14-1.53 0-2.64 2.78-2.68 2.88-3.43 6.08-7.43 8.8-8.51 8.8h-.02c-.16-.24-.16-.55.01-1.02 1.02-2.82 3.58-5.74 5.28-7.68 1.13-1.29 1.72-1.99 1.72-2.32 0-.5-.6-.91-1.79-1.47-.01.01-.11.11-.26.25-1.12 1.1-2.64 2.61-2.84 2.96-.37.65-2.19 2.77-2.78 3.46l-1.7 2.01c-1.91 2.27-3.59 4.25-4.3 4.76a.97.97 0 0 1-.21.1c-.01-.61 1.12-2.22 2.43-4.07 1.82-2.6 4.1-5.84 4.1-7.64 0-.78-.78-1.26-1.5-1.26-2.14 0-6.07 3.6-7.34 4.93-.18.17-.31.31-.39.39.13-1.02 1.76-3.03 2.64-4.13l.29-.36c.08-.09.26-.33.52-.68.51-.67 1.35-1.76 2.33-2.99.41.04.8.07 1.18.1 1.04.09 1.94.16 2.72.27 1.45.2 3 .31 4.49.31 1.17 0 2.26-.06 3.24-.19 2.32-.3 5.57-1.49 6.32-1.97.98-.64 1.25-1.47 1.25-1.81.01-.06.02-.1.02-.1s-.01.01-.02.03c-.01-.04-.02-.06-.03-.08-.01.01-1.09 1.23-1.74 1.4-.07.02-.25.1-.5.21-.85.38-2.63 1.18-4.08 1.27-4.9.31-8.47-.18-11.83-.71 1.96-2.43 4.17-5 5.33-5.77.03-.03 2.98-2.85 6.01-3.42.53-.1 1.13-.11 1.71-.13.38-.01.76-.03 1.12-.13.06-.01.13-.01.19-.02-.01-.01-.03-.02-.04-.03l.09-.03-.34-.27c-.78-.63-1.29-1.05-3.06-1.11l-1.03-.03c-2.71 0-6.08 2.49-7.56 4.06-2.66 2.8-4.15 4.64-5.38 6.42-.49-.07-.97-.15-1.47-.21-.25-.03-.74-.14-1.42-.29l.24-.4c.13-.27.23-.43.3-.55.12-.18.18-.29.18-.55 0-.64-1.14-1.74-1.38-1.74-.46 0-.82.56-1.21 1.15-.36.56-.77 1.17-1.32 1.4-2.43-.5-5.59-1.06-8.92-1.4l-1.62-.09c-3.37-.2-5.54-.41-8.98 1.25-.84.41-1.82 1.24-2.08 1.78-.25.52-.22 1.3-.12 1.6.01.06.01.09.01.09s.01-.01.02-.03c.02.03.04.06.05.06.01-.01.51-1.04 1.73-2.2.98-.93 4.78-1.03 6.37-1.03 1.15 0 2.32.05 3.21.13l.65.06c2.14.19 4.17.38 8.71 1.32l-.12.3c-.89.91-1.87 2-2.94 3.18-1.13 1.26-2.35 2.62-3.68 3.99-2.04 2.34-4 4.14-6.72 6.63l-1.07.98c-.06.05-.17.08-.42.08-.01-.25 1.68-2.08 3.16-3.69 1.3-1.41 2.65-2.87 3.39-3.82.57-.73.05-1.67-.41-2.5-.28-.51-.55-.99-.55-1.37 0-.61.64-.94 1.32-1.29.67-.34 1.37-.7 1.49-1.37.04-.23 0-.44-.13-.6-.15-.17-.38-.26-.69-.26h-1.01c-.2 0-1.03.35-1.57.91-.2.21-.3.5-.4.78-.11.32-.21.61-.45.78-.98.67-3.37 2.24-4.36 2.24-.32 0-.37-.17-.39-.29-.08-.7-.29-.87-.44-1 0-.06.13-.15.25-.24.22-.16.49-.36.46-.66-.05-.48-.51-.55-.96-.61-.12-.02-.23-.03-.34-.05-.43-.09-1.35.03-1.35.03-1.67.04-5.67 3.82-6.64 5.01-3.31 4.1-4.63 7.66-3.68 9.8-.87-.3-1.81-.4-2.66-.4-.48 0-.98.04-1.5.1l.03-.06c.48-2.43 7.7-12.86 9.92-15.59 8.41-10.4 12.23-11.14 14.28-11.55.24-.05.46-.09.65-.14.29-.08.72-.11 1.25-.11.36 0 .66.02.79-.05h.02l-.01-.01c.02-.01.04-.03.05-.06l-.35-.23c-.68-.46-1.38-.94-2.38-1.08-.63-.09-1.64.03-1.64.03-4.75.09-11.01 8.05-13.69 11.45l-.72.91c-1.88 2.33-9.42 15.34-9.41 15.34-.16.3-.39.64-.4.69-.1-.16.04-1.7.4-4.56.04-.3.06-.49.06-.5.11-1.1.25-2.14.38-3.14.35-2.67.69-5.19.45-8.49-.03-.43-.15-.89-.26-1.33-.11-.43-.21-.84-.21-1.15 0-.66.49-.85 1.17-1.13.47-.19 1.01-.41 1.54-.96.02-.02.04-.03.06-.05v-.02c.03-.04.07-.07.1-.11.02-.11.05-.2-.01-.28-.1-.12-.31-.12-1.05-.03-.91.11-1.81.71-2.5 1.18-.03-.02-.06-.16-.1-.28-.17-.62-.56-2.08-2.78-3.44-1.36-.83-3.97-1.83-7.64-1.4-3.96.46-9.88 2.42-10.65 5.3-.12.44-.03 1.09.09 1.34.01.04.01.07.01.07l.01-.02c.02.03.04.05.06.06l.31-.54c5.75-5.17 10.41-5.23 10.47-5.23l2.25.03c2.5.03 6.12 2.19 6.12 5.5 0 .23-.32.89-1.97 2.83-.34.49-2.07 2.82-3.44 4.59-.55.71-1.03 1.35-1.48 1.95-1.37 1.82-2.44 3.25-4.44 5.26-2.05 2.23-9.17 9.49-14.88 9.57l.11.93s1.42-.05 2.32-.18c5.32-.75 8.17-3.41 11.77-6.78l1.44-1.34c2.47-2.27 3.67-3.84 5.65-6.45l.2-.26c1.23-1.62 2.4-3.54 3.34-5.09.61-1.01 1.12-1.84 1.43-2.39.06-.09.13-.17.19-.24l.01.66c.01 1.07.02 2.55-.09 4.34-.26 3.89-1.26 10.25-1.27 10.32-.02.34-.19 1.71-.39 3.23-2.05.83-4.02 1.98-5.57 3.3-3.45 2.95-4.58 4.22-7.51 8.49-1.43 1.48-4.54 9.46-2.64 14.14.86 2.12 2.62 3.24 5.22 3.33l1.17.04c4.24 0 9.7-4.26 13.09-7.92 1.8-1.9 2.99-3.73 3.02-3.79l-.08-.88v-.6c-.02.02-.03.04-.05.05l-.01-.11c-.2.22-.39.46-.6.74-.76.99-2.03 2.64-6.63 6.55-3.18 2.7-7.05 4.52-9.63 4.52-1.23 0-2.11-.39-2.62-1.16-.34-.52-.62-.99-.79-2.01-.89-5.37 4.44-13.03 4.49-13.11l.18-.24c1.89-2.51 4.94-6.07 8.57-8.46a83.89 83.89 0 0 1-.3 2.2l-.01.11.11-.02c.08-.02 1.84-.36 2.69-1.14l1.7-3.19c1.03-.32 2.08-.5 3.15-.51 1.2 0 2.21.4 2.84 1.12.64.73.9 1.79.73 3.06-.15 1.16-.54 2.51-.82 2.78-.04.06-.36.61-.1.84.16.15.66.02.67.02 1.88-.62 2.56-2.36 1.98-5.31-.2-1.07-.61-1.89-1.15-2.5.09-.01.18-.03.27-.05 5.83-1.35 10.08-11.4 10.07-11.45.14-.23 3.22-1.68 5.09-2.54.11.03.24.77.29 1.54-.13.2-.57.67-1.18 1.32-2.17 2.3-6.22 6.59-6.21 9.59-.01.02-.18.62.01.95.2.36.34.51.9.51 1.67 0 3.27-1.58 4.13-2.43.14-.14.26-.26.36-.35 2.97-2.68 5.14-5.21 6.57-6.89.72-.84 1.29-1.51 1.62-1.84l.18-.08h.08c-1.13 1.45-4.68 8.82-4.76 9.9-.04.63-.04.67.04 1.02.11.51.28.78.51.78l.22-.08.17-.23c.18-.3.53-.95 1-1.84 2.05-3.84 6.8-12.77 9.98-15.56 1.04.18 2.01.32 2.91.43-.41.65-.82 1.31-1.27 2.05-1.01 1.66-2.28 3.72-4.24 6.58-4.03 5.88-4.86 8.77-4.88 8.82 0 .42.22.6.5.81.11.09.23.18.48.29 3.78-6.31 9.63-11.67 12.08-13.16.34-.2.62-.32.83-.38l.01.41c-.04.05-.15.19-.32.39-3.89 4.7-5.87 8.3-5.87 10.69 0 1.16.43 1.85 1.14 1.85 1.12 0 3.21-2.33 4.88-4.2.68-.76 1.29-1.44 1.64-1.86.06-.06.12-.11.17-.15-.18.46-.77 2.07-.36 3.08.05.13.1.27.15.41.2.61.4 1.18 1.23 1.18 1.18 0 2.86-1.51 4.22-2.72.69-.62 1.3-1.16 1.62-1.42.05-.03.09-.04.13-.06l-.1.86c-.26.32-.25 1.46-.25 1.59v1.19c0 .79.37 1.97 1.38 1.97 1.11 0 1.93-.85 2.79-1.75l.31-.32c3.47-3.56 6.9-11.42 6.94-11.53-.01-.23 1.07-.39 1.78-.49.55-.08 1.07-.16 1.35-.26l.4-.07.05.2c-4.1 3.53-4.98 5.34-6.45 9.61-.2.58.07 1.8.08 1.84.02.35.9 2.16 2.23 1.82 2.53-.63 6.32-4.33 9.66-7.59.91-.89 1.78-1.74 2.49-2.5.15-.14.29-.27.44-.4-.02.39-.11 2.13.31 3.01-2.7 2.28-6.37 4.6-6.41 4.62-3.66 2.93-5.84 4.99-5.84 5.52 0 .45.26.67.79.67 2.6 0 7.11-2.24 7.15-2.26l.29-.16c3.06-1.65 6.86-3.69 6.86-6.91l-.02-1.49c2.87-2.57 4.62-4.04 5.37-4.6.12-.07.21-.12.29-.16-.05.11-.18.33-.35.61-1.08 1.83-3.94 6.68-3.67 11.86.04.85 1.08 1.32 1.98 1.23 4.24-.49 9.75-7.7 9.8-7.82l-.12-.85-.03-.64s-.01.02-.03.05c-.01-.01-.01-.03-.02-.04l-.01-.05s-.17.25-.29.42c-2.97 4.13-7.61 8.03-9.55 8.03-.56 0-.75-.15-.75-.99 0-2.15 2.24-5.83 3.31-7.6.22-.36.38-.63.47-.79 3.94-7.31 5.48-7.76 5.48-7.76l9.55-.21c4.77-.1 9.08-2.13 9.96-3.14l.55-.71-.13-.47zM92.35 25.93c-.13.2-3.81 4.63-4.74 4.63-.07 0-.13-.02-.16-.16-.09-.49 0-.75.16-1.23l.07-.22c1.74-5.28 6.84-9.49 8.1-10.45.02.91.18 1.13.3 1.3.07.09.11.15.11.32.01.48-2.29 3.73-3.84 5.81m58.62-7.6l.08-.09v.08l.16-.02c.02.03.46.7-.17 1.33-2.94 2.94-4.85 4.43-5.66 4.43-.12 0-.2-.04-.25-.06l-.01-.23h-.01c.6-1.13 4.72-5.21 5.86-5.44m-4.58 15.54c-.13.05-.33.07-.57.07-.12 0-.21 0-.25.01l-.02-.25c.08-.07 8.49-6.83 9.26-7.11.18-.09.32-.14.43-.14l.18.07c.15.16.14.58.12.99l-.01.38c.38 2.34-5.04 4.54-9.14 5.98" clip-path="url(#SVGID_2_)" fill="#231f20"/>
  <path clip-path="url(#SVGID_2_)" fill="#06863c" d="M6.1 7.2h13.39L6.1 20.59z"/>
  <path d="M5.08 23.05V6.18h16.87L5.08 23.05zM7.12 8.22v9.91l9.91-9.91H7.12z" clip-path="url(#SVGID_2_)" fill="#231f20"/>
  <path transform="rotate(-44.996 18.609 20.242)" clip-path="url(#SVGID_2_)" fill="#231f20" d="M17.59 11.91h2.04v16.68h-2.04z"/>
  <path d="M17.13 18.23s-.38-8.75 9.36-10.57c9.32-1.75 12.32 5.4 12.32 5.4l-21.68 5.17z" clip-path="url(#SVGID_2_)" fill="#06863c"/>
  <path d="M17.13 19.25c-.22 0-.43-.07-.61-.2-.24-.18-.39-.47-.4-.77-.01-.1-.3-9.65 10.19-11.62 1.04-.19 2.05-.29 3.01-.29 7.7 0 10.33 6.04 10.44 6.3.12.28.11.59-.03.86s-.38.46-.67.53l-21.68 5.17c-.09.01-.17.02-.25.02M29.31 8.4c-.84 0-1.72.09-2.64.26-6.66 1.25-8.13 5.96-8.44 8.26l19.02-4.54c-1.02-1.49-3.41-3.98-7.94-3.98" clip-path="url(#SVGID_2_)" fill="#231f20"/>
  <path d="M14.41 41.01s-8.48-2.19-7.38-12.04c1.05-9.42 8.77-10.21 8.77-10.21l-1.39 22.25z" clip-path="url(#SVGID_2_)" fill="#06863c"/>
  <path d="M14.41 42.03c-.09 0-.17-.01-.26-.03-.09-.03-9.32-2.54-8.13-13.14 1.13-10.12 9.59-11.1 9.68-11.11.31-.04.6.07.81.28.22.21.33.5.31.8l-1.39 22.24c-.02.3-.17.58-.42.76-.17.13-.38.2-.6.2m.29-21.97c-2.03.64-5.94 2.68-6.65 9.03-.75 6.73 3.33 9.51 5.43 10.49l1.22-19.52zM39.49 24.5c-.22 0-.43-.07-.62-.21-9.84-7.58-18.25-2.38-18.61-2.16-.47.3-1.1.16-1.41-.31-.3-.47-.17-1.1.3-1.41.1-.06 9.94-6.23 20.95 2.25.44.34.53.98.19 1.43-.19.27-.49.41-.8.41" clip-path="url(#SVGID_2_)" fill="#231f20"/>
  <path d="M21.84 36.64s1.98-4.79 6.31-3.96l.3.08s5.29.51 7 7.32c0 0 .84 4.87-2.51 8.2 0 0-2.51 2.78-6.68 2.97 0 0-4.05-.08-6.41-2.81 0 0-3.88-3.65-2.05-7.68l.08-.38c.01-.02.92-2.53 3.96-3.74" clip-path="url(#SVGID_2_)" fill="#900028"/>
  <path d="M26.29 52.26h-.03c-.18 0-4.54-.12-7.16-3.17-.11-.09-4.25-4.07-2.26-8.66l.05-.27c.08-.26 1.07-2.89 4.2-4.31.63-1.26 2.93-5.01 7.26-4.17l.36.09c.12 0 5.87.66 7.73 8.06.05.3.9 5.51-2.78 9.17-.08.09-2.81 3.05-7.35 3.26h-.02zm.87-18.66c-2.9 0-4.36 3.39-4.37 3.43l-.16.4-.4.16c-2.55 1.02-3.37 3.11-3.38 3.13l-.11.45c-1.5 3.31 1.79 6.49 1.83 6.52 2.01 2.32 5.36 2.52 5.7 2.53 3.68-.19 5.91-2.61 5.93-2.63 2.95-2.94 2.27-7.3 2.26-7.35-1.5-5.96-6.04-6.47-6.09-6.48l-.46-.11c-.23-.02-.49-.05-.75-.05" clip-path="url(#SVGID_2_)" fill="#231f20"/>
  <path d="M24.89 26.52s1.98-4.79 6.31-3.96l.3.08s5.29.51 7 7.32c0 0 .84 4.87-2.51 8.2 0 0-2.51 2.78-6.67 2.97 0 0-4.05-.08-6.41-2.81 0 0-3.88-3.65-2.05-7.68l.08-.38c-.01-.01.9-2.52 3.95-3.74" clip-path="url(#SVGID_2_)" fill="#900028"/>
  <path d="M29.33 42.14h-.03c-.18 0-4.54-.12-7.16-3.17-.11-.09-4.24-4.07-2.26-8.66l.05-.27c.08-.26 1.07-2.89 4.2-4.31.63-1.26 2.92-5.01 7.26-4.17l.35.09c.11 0 5.88.65 7.75 8.06.05.3.9 5.51-2.78 9.17-.08.09-2.81 3.06-7.35 3.26h-.03zm.87-18.65c-2.9 0-4.36 3.39-4.37 3.43l-.16.39-.4.16c-2.55 1.02-3.37 3.11-3.38 3.13l-.11.45c-1.51 3.33 1.79 6.49 1.82 6.52 2.01 2.33 5.37 2.52 5.7 2.54 3.64-.18 5.91-2.61 5.93-2.63 2.95-2.93 2.27-7.3 2.26-7.34-1.49-5.9-5.91-6.46-6.1-6.48l-.44-.1c-.23-.05-.49-.07-.75-.07" clip-path="url(#SVGID_2_)" fill="#231f20"/>
  <path d="M39.57 23.93s1.98-4.79 6.31-3.96l.3.08s5.29.51 7 7.32c0 0 .84 4.87-2.51 8.2 0 0-2.51 2.78-6.68 2.97 0 0-4.05-.08-6.41-2.81 0 0-3.88-3.65-2.06-7.69l.08-.38c.01 0 .93-2.51 3.97-3.73" clip-path="url(#SVGID_2_)" fill="#900028"/>
  <path d="M44.01 39.56h-.03c-.18 0-4.54-.12-7.16-3.16-.11-.09-4.25-4.06-2.26-8.66l.05-.27c.08-.26 1.07-2.89 4.2-4.31.63-1.26 2.93-5 7.26-4.17l.35.09c.11 0 5.88.65 7.74 8.06.05.3.9 5.51-2.78 9.17-.08.09-2.81 3.06-7.35 3.26h-.02zm.87-18.66c-2.9 0-4.36 3.39-4.37 3.43l-.17.39-.4.16c-2.55 1.02-3.35 3.05-3.38 3.13l-.1.45c-1.5 3.31 1.79 6.49 1.83 6.52 1.99 2.31 5.36 2.52 5.7 2.53 3.67-.18 5.9-2.61 5.93-2.63 2.95-2.94 2.27-7.3 2.26-7.34-1.48-5.9-5.91-6.46-6.1-6.48l-.44-.1c-.23-.04-.5-.06-.76-.06" clip-path="url(#SVGID_2_)" fill="#231f20"/>
  <path d="M58.78 10.83s-.01-.04-.02-.09l.09-.16-.07.25zM51.8 34.91v.02-.02zm138.06-24.28l.01-.08.01.06-.02.02" clip-path="url(#SVGID_2_)" fill="#900028"/>
</svg>