<svg id="Layer_1" xmlns="http://www.w3.org/2000/svg" xmlns:xlink="http://www.w3.org/1999/xlink" viewBox="0 0 65 65">
  <style>
  </style>
  <defs>
    <path id="SVGID_20_" d="M14.03-245.17h37.58V-183H14.03z"/>
  </defs>
  <clipPath id="SVGID_2_">
    <use xlink:href="#SVGID_20_" overflow="visible"/>
  </clipPath>
  <path d="M54.58 95.8c0 2.02-1.65 3.67-3.67 3.67H20.54c-2.02 0-3.67-1.65-3.67-3.67V39.98c0-2.02 1.65-3.67 3.67-3.67h30.37c2.02 0 3.67 1.65 3.67 3.67V95.8z" clip-path="url(#SVGID_2_)" fill-rule="evenodd" clip-rule="evenodd" fill="#00aeaa"/>
  <path d="M50.91 100.04H20.54c-2.34 0-4.24-1.9-4.24-4.24V39.98c0-2.34 1.9-4.24 4.24-4.24h30.37c2.34 0 4.24 1.9 4.24 4.24V95.8c0 2.34-1.9 4.24-4.24 4.24M20.54 36.87c-1.71 0-3.1 1.39-3.1 3.1V95.8c0 1.71 1.39 3.1 3.1 3.1h30.37c1.71 0 3.1-1.39 3.1-3.1V39.98c0-1.71-1.39-3.1-3.1-3.1H20.54z" clip-path="url(#SVGID_2_)" fill="#fff"/>
  <path d="M21.74 40.69c-.03-.29-.23-.45-.54-.45-.35 0-.56.27-.56.8 0 .38.09.74.59.74.32 0 .47-.2.51-.46h.95c-.09.71-.64 1.13-1.44 1.13-1 0-1.6-.55-1.6-1.44 0-.89.66-1.44 1.5-1.44.92 0 1.43.42 1.51 1.12h-.92zM22.91 39.64h.99v1.64c0 .27.06.5.46.5.36 0 .46-.21.46-.5v-1.64h.99v1.55c0 .88-.45 1.26-1.45 1.26-.93 0-1.45-.32-1.45-1.27v-1.54zM26.21 42.38v-2.74h.99v2.1h1.36v.64zM28.17 39.64h2.76v.72h-.88v2.02h-.99v-2.02h-.89zM31.09 39.64h.99v1.64c0 .27.06.5.46.5.36 0 .46-.21.46-.5v-1.64h.99v1.55c0 .88-.45 1.26-1.45 1.26-.93 0-1.45-.32-1.45-1.27v-1.54zM35.35 41.42v.95h-.99v-2.73h1.42c1 0 1.33.25 1.33.78 0 .31-.15.58-.51.67.32.11.51.17.51.73 0 .36-.01.48.1.48v.08h-1a1.87 1.87 0 0 1-.05-.48c0-.36-.07-.47-.53-.47h-.28zm0-.6h.39c.31 0 .47-.07.47-.26s-.17-.29-.4-.29h-.46v.55zM37.49 42.38v-2.74h2.45v.64h-1.47v.39h1.25v.64h-1.25v.43H40v.64zM20.81 45.6v.95h-.99v-2.73h1.42c1 0 1.33.25 1.33.78 0 .32-.15.58-.51.67.32.11.51.18.51.73 0 .36-.01.48.1.48v.08h-1a1.87 1.87 0 0 1-.05-.48c0-.36-.07-.48-.53-.48h-.28zm0-.6h.39c.31 0 .47-.07.47-.26s-.17-.29-.4-.29h-.46V45zM22.95 46.55v-2.73h2.45v.63h-1.47v.4h1.25v.63h-1.25v.43h1.53v.64zM27.3 44.61a.258.258 0 0 0-.14-.19.655.655 0 0 0-.25-.05c-.22 0-.31.06-.31.16 0 .41 1.73.15 1.73 1.15 0 .63-.58.94-1.41.94-.79 0-1.31-.42-1.33-.92h.95c.02.1.08.17.16.22.08.05.18.07.28.07.25 0 .41-.07.41-.2 0-.41-1.73-.13-1.73-1.17 0-.58.55-.87 1.3-.87.84 0 1.22.39 1.29.87h-.95zM28.55 46.55v-2.74H30c.87 0 1.28.36 1.28.92 0 .59-.39.96-1.25.96h-.5v.85h-.98zm1.4-1.49c.23 0 .4-.08.4-.32 0-.25-.32-.29-.53-.29h-.28v.61h.41zM34.49 45.17c0 .93-.69 1.46-1.58 1.46-.95 0-1.58-.53-1.58-1.46 0-.86.64-1.42 1.58-1.42 1.08-.01 1.58.7 1.58 1.42m-2.17 0c0 .35.12.79.59.79.43 0 .59-.33.59-.79 0-.37-.17-.77-.6-.76-.45 0-.58.41-.58.76M36.75 45.31l-.04-.62v-.87h.95v2.73h-.93l-1.07-1.49.04.63v.86h-.95v-2.73h.92zM39.63 44.61a.258.258 0 0 0-.14-.19.669.669 0 0 0-.26-.05c-.22 0-.31.06-.31.16 0 .41 1.73.15 1.73 1.15 0 .63-.58.94-1.41.94-.79 0-1.31-.42-1.33-.92h.95c.02.1.08.17.16.22.08.05.18.07.28.07.25 0 .41-.07.41-.2 0-.41-1.73-.13-1.73-1.17 0-.58.55-.87 1.3-.87.84 0 1.22.39 1.29.87h-.94zM40.57 46.55l1.08-2.74h1l1.08 2.74h-.98l-.12-.36h-.98l-.11.36h-.97zm1.57-1.91l-.31.98h.62l-.31-.98zM43.86 46.55v-2.73h1.44c.68 0 1.22.14 1.22.69 0 .28-.2.49-.39.6.33.08.5.33.5.63 0 .61-.51.82-1.3.82h-1.47zm.98-2.1v.46h.41c.2 0 .34-.08.34-.24 0-.21-.19-.22-.4-.22h-.35zm0 .96v.51h.43c.24 0 .43-.05.43-.25 0-.24-.23-.25-.54-.25h-.32zM46.91 46.55v-2.73h.99v2.09h1.36v.64zM49.43 46.55v-2.73h2.46v.63h-1.47v.4h1.24v.63h-1.24v.43h1.52v.64zM25.73 56.3l-.15-.85c-.89.83-1.8 1.07-2.98 1.07-1.5 0-2.82-.74-2.82-2.39 0-3.6 5.63-1.96 5.63-3.44 0-.57-.7-.65-1.03-.65-.44 0-1.03.09-1.1.77h-3.02c0-1.68 1.19-2.66 4.32-2.66 3.75 0 3.97 1.39 3.97 3.28v3.7c0 .45.02.68.42 1.01v.15h-3.24zm-.32-3.51c-1.03.5-2.39.26-2.39 1.28 0 .39.38.67 1 .67 1.11 0 1.47-.86 1.39-1.95M32.32 53.83c0 .32.12.56.33.72.2.15.47.24.77.24.48 0 1-.15 1-.71 0-1.27-4.85-.26-4.85-3.32 0-2.02 2.1-2.61 3.75-2.61 1.72 0 3.75.39 3.93 2.49h-2.86a.818.818 0 0 0-.3-.57c-.17-.14-.39-.2-.63-.2-.54 0-.89.17-.89.56 0 1.1 5 .36 5 3.32 0 1.65-1.36 2.76-4.26 2.76-1.81 0-3.81-.56-3.97-2.69h2.98zM43.66 51.4c-.02-.35-.14-.62-.33-.82-.2-.21-.47-.32-.82-.32-1.18 0-1.38 1.22-1.38 2.16 0 1.19.45 1.98 1.38 1.98.82 0 1.13-.56 1.22-1.18h3.17c-.14 1.19-.68 2.02-1.48 2.55-.79.51-1.81.74-2.92.74-2.55 0-4.52-1.44-4.52-4.11 0-2.7 1.9-4.26 4.52-4.26 2.12 0 4.11.91 4.34 3.25h-3.18zM20.46 61.55h-.66l1.07-2.73h.72l1.06 2.73h-.68l-.19-.56h-1.11l-.21.56zm.37-1.04h.76l-.37-1.08h-.01l-.38 1.08zM23.39 60.7c0 .15.09.44.64.44.3 0 .63-.06.63-.35 0-.21-.23-.27-.54-.34l-.32-.07c-.48-.1-.95-.2-.95-.8 0-.3.18-.84 1.15-.84.92 0 1.17.55 1.17.88h-.6c-.02-.12-.07-.41-.61-.41-.24 0-.52.08-.52.33 0 .21.19.26.32.29l.73.16c.41.09.79.24.79.73 0 .82-.92.89-1.18.89-1.1 0-1.28-.57-1.28-.91h.57zM27.6 59.71c-.05-.16-.15-.47-.67-.47-.3 0-.74.18-.74.95 0 .49.21.93.74.93.35 0 .59-.18.67-.51h.63c-.13.59-.55 1.01-1.3 1.01-.8 0-1.37-.49-1.37-1.43 0-.95.61-1.44 1.38-1.44.9 0 1.26.56 1.3.97h-.64zM28.56 59.92h1.17v.49h-1.17zM30.55 61.55h-.66l1.07-2.73h.72l1.06 2.73h-.68l-.19-.56h-1.11l-.21.56zm.37-1.04h.76l-.37-1.08h-.01l-.38 1.08zM35.39 61.74l-.36-.31c-.28.15-.59.18-.77.18-.4 0-1.44-.16-1.44-1.44s1.04-1.44 1.44-1.44c.4 0 1.44.16 1.44 1.44 0 .45-.13.76-.31.97l.33.28-.33.32zm-.77-1.24l.32.27c.08-.14.14-.33.14-.58 0-.76-.48-.95-.81-.95-.34 0-.82.19-.82.95s.48.95.82.95c.1 0 .22-.02.34-.07l-.3-.26.31-.31zM38.57 60.59c0 .72-.48 1.03-1.23 1.03-.28 0-.69-.06-.95-.33-.16-.17-.23-.39-.23-.66v-1.81h.64v1.77c0 .38.24.55.53.55.43 0 .61-.19.61-.52v-1.8h.64v1.77zM39.43 61.55h-.66l1.07-2.73h.72l1.06 2.73h-.68l-.19-.56h-1.11l-.21.56zm.38-1.04h.76l-.37-1.08h-.01l-.38 1.08zM42.04 60.99h.63v.56h-.63zM44.41 58.74c.4 0 1.44.15 1.44 1.44 0 1.28-1.04 1.44-1.44 1.44-.4 0-1.44-.15-1.44-1.44 0-1.28 1.05-1.44 1.44-1.44m0 2.39c.34 0 .81-.19.81-.95s-.48-.95-.81-.95c-.34 0-.82.19-.82.95.01.76.48.95.82.95M46.31 58.82h1.52c.8 0 .95.54.95.77 0 .3-.17.56-.46.65.25.1.38.18.38.69 0 .4 0 .5.13.54v.07h-.69c-.04-.13-.07-.27-.07-.55 0-.37-.03-.52-.49-.52h-.65v1.07h-.61v-2.72zm1.35 1.2c.33 0 .48-.1.48-.37 0-.14-.07-.36-.44-.36h-.78v.73h.74zM50.66 60.07h1.25v1.47h-.42l-.06-.34c-.16.17-.39.41-.94.41-.72 0-1.38-.47-1.38-1.43 0-.74.45-1.44 1.46-1.44h.01c.92 0 1.28.54 1.32.92h-.63c0-.11-.21-.45-.66-.45-.45 0-.86.28-.86.98 0 .74.45.94.87.94.14 0 .6-.05.73-.6h-.7v-.46z" clip-path="url(#SVGID_2_)" fill="#fff"/>
  <g>
    <defs>
      <path id="SVGID_32_" d="M14.03-245.17h37.58V-183H14.03z"/>
    </defs>
    <clipPath id="SVGID_3_">
      <use xlink:href="#SVGID_32_" overflow="visible"/>
    </clipPath>
  </g>
  <g>
    <defs>
      <path id="SVGID_43_" d="M16.89 34.64c0-9.08 7.36-16.43 16.43-16.43 9.08 0 16.43 7.36 16.43 16.43s-7.36 16.43-16.43 16.43-16.43-7.36-16.43-16.43m-5.45 0c0 12.09 9.8 21.88 21.88 21.88 12.08 0 21.89-9.8 21.89-21.88 0-12.09-9.8-21.88-21.89-21.88-12.08-.01-21.88 9.79-21.88 21.88"/>
    </defs>
    <clipPath id="SVGID_5_">
      <use xlink:href="#SVGID_43_" overflow="visible"/>
    </clipPath>
    <radialGradient id="SVGID_7_" cx=".503" cy="-448.118" r="1" gradientTransform="matrix(21.883 0 0 -21.883 22.322 -9771.53)" gradientUnits="userSpaceOnUse">
      <stop offset="0" stop-color="#fff"/>
      <stop offset=".113" stop-color="#fafdfb"/>
      <stop offset=".253" stop-color="#eaf7ee"/>
      <stop offset=".407" stop-color="#d1eeda"/>
      <stop offset=".572" stop-color="#aee1bd"/>
      <stop offset=".745" stop-color="#81d198"/>
      <stop offset=".923" stop-color="#4abd6c"/>
      <stop offset="1" stop-color="#30b357"/>
    </radialGradient>
    <path clip-path="url(#SVGID_5_)" fill="url(#SVGID_7_)" d="M11.44 12.75h43.77v43.77H11.44z"/>
  </g>
  <g>
    <defs>
      <path id="SVGID_46_" d="M.64-.21H64v65.95H.64z"/>
    </defs>
    <clipPath id="SVGID_9_">
      <use xlink:href="#SVGID_46_" overflow="visible"/>
    </clipPath>
    <path d="M13.72 32.58c0-10.28 8.33-18.61 18.6-18.61s18.6 8.33 18.6 18.61-8.33 18.61-18.6 18.61-18.6-8.33-18.6-18.61" clip-path="url(#SVGID_9_)" fill="#fff"/>
    <path d="M32.32 6.36C17.84 6.36 6.09 18.1 6.09 32.58s11.74 26.23 26.23 26.23 26.23-11.74 26.23-26.23S46.81 6.36 32.32 6.36m0 44.87c-10.29 0-18.64-8.35-18.64-18.64 0-10.3 8.35-18.64 18.64-18.64 10.3 0 18.64 8.35 18.64 18.64 0 10.29-8.34 18.64-18.64 18.64" clip-path="url(#SVGID_9_)" fill="#f9c81e"/>
    <path d="M32.32 6.96c-14.15 0-25.63 11.47-25.63 25.63 0 14.15 11.47 25.63 25.63 25.63s25.63-11.47 25.63-25.63c0-14.16-11.48-25.63-25.63-25.63m0 44.87c-10.63 0-19.24-8.62-19.24-19.24 0-10.63 8.61-19.24 19.24-19.24 10.63 0 19.24 8.62 19.24 19.24s-8.61 19.24-19.24 19.24" clip-path="url(#SVGID_9_)" fill="#231f20"/>
    <path d="M22.97 45.59s-2.57.08-4.17-1.52c-1.61-1.61-3.37-5.22-6.83-4.58 0 0 2.09-1.21 4.5-.73 0 0-2.57-2.97-3.37-5.14-.8-2.17-3.85-7.31-5.54-6.42 0 0 2.65-1.53 4.66.48 0 0-1.85-7.39 1.36-9.07 0 0 2.17-1.29 5.38 2.41 0 0 1.77.24 2.65 1.29 0 0 .4-2.49-1.04-3.85 0 0 .8.48 1.44 1.53 0 0 .48-5.86 3.45-6.1 2.97-.24 4.74 3.37 5.54 4.82 0 0 1.36.32 1.61.64 0 0 1.52-2.65-.08-4.02 0 0 1.53 1.68 1.53 3.93 0 0 1.68-5.7 4.74-5.3 0 0 2.97-.08 3.45 7.87 0 0 1.85-1.37 1.85-5.06 0 0 1.04 2.33-.56 6.67l.32 1.28s3.53-6.9 7.47-5.54c3.93 1.37 1.2 9.64 1.2 9.64s3.85-2.73 3.77-4.66c0 0 1.12 2.41-5.06 9.47 0 0 2.97-.72 3.69-.48 0 0-2.17-.64-5.78 7.23 0 0-1.93 3.77-6.42 5.3 0 0-.88.8-1.04 1.44-.16.64-1.77 1.76-3.05.56l.32-3.21-4.42-1.36-2.21 2.33s-1.97.72-2.85 0l-1.05-2.73s-.8-.48-1.61-.32c0 0-.88 1.77-.4 2.89 0 0 1.04 2.73-1.77 2.65l-1.68-2.34z" clip-path="url(#SVGID_9_)" fill="#2fb357"/>
    <path d="M12.01 20.04s-.14 2.33.81 1.73c.95-.6-.64-1.7-.81-1.73M12.4 23.42s-.14-.6.42-.77c.57-.17.81.46.92.88.11.42.25 1.16-.21 1.23-.46.07-.92.11-1.13-1.34M12.92 26.17s0-.53.67-.6c.67-.07.7.39.7.39s.85.95.04 1.13c-.8.17-1.44.46-1.41-.92M13.49 29.06s-.17-.7.64-.74c.81-.04 1.23-.18 1.37.78.14.95-.18 1.23-.74 1.27-.57.03-1.23-.36-1.27-1.31M14.37 32.09s.07.91 1.09.79 1.09-.57.92-.97c-.18-.39-.49-.88-1.27-.74-.77.15-.74.47-.74.92M15.11 34.74s-.28-.88.56-.99c.85-.11 1.38-.28 1.55.42.18.7-.07.77-.46.88-.38.11-1.44.61-1.65-.31M15.92 36.98s-.12-.68.96-.8 1.45.2 1.49.48c.04.28-.12.76-1.09.8-.96.04-1.24-.16-1.36-.48M17.85 38.58s-1.41-.08-.96 1.08c.44 1.17 1.25.85 1.53.85s1.72-.12 1.08-1.13c-.65-.99-.89-.99-1.65-.8M19.17 41.24s-1.37.16-.96 1.04c.4.88 1.04.68 1.24.68.2 0 1.57.16 1.33-.92-.24-1.09-1.41-.92-1.61-.8M20.58 43.84s-1.75.22-.48 1.48c1.04 1.05 1.73.68 1.73.68s1.48-.14.16-1.52c-.89-.92-1.41-.64-1.41-.64M14.2 19.46s0 1.14.3 1.39c.3.24 1.14.42.84-.3-.3-.73-.9-1.45-1.14-1.09M15.2 23.41s-.48-1.33.36-1.61 1.28 1.2 1.32 1.45c.04.24-1.36 1.32-1.68.16M16.57 24.34s-.68.16-.52 1.45c.16 1.28 1.28 1 1.64.72.36-.28.84-.76.32-1.69-.52-.93-1.29-.65-1.44-.48M16.84 28.67s-.4-.76.84-1.41c1.24-.64 1.49-.4 1.81.44.32.84-.1 1.22-.88 1.44-.56.17-1.48.21-1.77-.47M17.93 31.32s-.44-.76.52-1.28 1.81-.96 2.25-.12c.44.84-.06.99-.84 1.61-.57.43-1.69.59-1.93-.21M20.06 32.48s1.74-1 2.09.4c.28 1.13-.84 1.21-1.17 1.29-.32.08-2.05.64-2.21-.4-.16-1.05 1.29-1.29 1.29-1.29M19.86 36.34s-.2-.64.4-.96c.6-.32 2.29-1.33 2.65-.88.36.44 0 .96-.8 1.45-.81.47-1.73 1.11-2.25.39M21.02 38.91s-.69-1.16.76-1.76c1.44-.6 2.25-.8 2.49.24.24 1.04-.08 1.77-1.49 2.01-1.4.23-1.4.19-1.76-.49M22.47 42s-.96-1.25.16-1.81 3.17-1.12 3.09.6c-.08 1.73-2.89 1.61-3.25 1.21M17.73 21.52s-.44-.36-.04-.76.6.44.6.44.52.52.28.76c-.24.25-.84-.44-.84-.44M19.09 23.73s-.71-.59-.16-1.04c.44-.36.84.2 1.04.44.2.24.8.88.24 1.24-.55.37-.84 0-1.12-.64M20.54 25.26s.44-.72.92.08c.48.8 1.08 1.37.2 1.85-.88.48-1.04-.52-1.24-1-.12-.29-.52-.33.12-.93M21.94 27.59s-.56.32-.16 1.37c.4 1.04.97.8 1.25.72.28-.08.84-.76.2-1.56-.64-.81-1.13-.61-1.29-.53M23.3 17.8s-.5-.23-.05-.85c.45-.63.95-.72.99-.27.05.44-.31 1.25-.94 1.12M22.53 20s0-.81.59-.95c.59-.13 1.31-.63 1.31.41 0 1.03-.45 1.26-.9 1.31-.46.05-1 .5-1-.77M23.35 22.17s-.95.09-.9 1.44c.04 1.35.72 1.22 1.31.9.59-.31 1.04-.68.95-1.71-.1-1.04-.91-.95-1.36-.63" clip-path="url(#SVGID_9_)" fill="#231f20"/>
    <path d="M22.58 26.9s-.15-.69.86-1.13c1.04-.45 1.31-.58 1.71.41.4.99-.68 1.4-.95 1.4-.27-.01-1.62.67-1.62-.68M23.98 28.39s1.62-.59 1.67.23c.04.81.27 1.71-1.04 1.8-1.31.09-1.62-.09-1.67-.54-.04-.46-.09-.82 1.04-1.49" clip-path="url(#SVGID_9_)" fill="#231f20"/>
    <path d="M23.93 32.17s-.72.05-.9-.81c-.18-.86.23-1.13.5-1.22.27-.09 1.04-.09 1.08.77.04.85-.68 1.26-.68 1.26" clip-path="url(#SVGID_9_)" fill="#231f20"/>
    <path d="M24.02 33.39s-.59-.9.13-1.4c.72-.5 1.35.68 1.35 1.13 0 .45-.32 1.03-.54 1.08-.22.04-.67.22-.94-.81" clip-path="url(#SVGID_9_)" fill="#231f20"/>
    <path d="M24.47 31.95s.27-.32.68-.36c.41-.05 1.13-.32 1.08.36-.05.67-.9 1.03-.9 1.03l-.86-1.03zM26.05 15.59s-.45.36-.09.9.54.58 1.08.58.68-.36.36-.99c-.32-.62-.77-1.26-1.35-.49M25.78 19.06s-.23-1.03 1.17-1.17c1.4-.13 1.63.63 1.63.77 0 .13.58 1.4-.99 1.4-1.59-.01-1.81-1-1.81-1M26.18 22.21s-.32-1.22 1.4-1.4c1.71-.18 1.8.95 1.8 1.08 0 .13.54 1.35-1.31 1.35-1.84.01-1.8-.49-1.89-1.03M26.68 25.59s-.31-.9.63-1.22c.95-.32 2.75-.76 3.16.77.41 1.53-1.26 1.21-1.8 1.26-.55.05-1.81.27-1.99-.81M27.26 28.65s-.4-1.26 1.62-1.58c2.03-.32 2.16.77 2.16 1.13 0 .36-.05.99-1.58 1.17-1.11.14-1.83.09-2.2-.72M27.85 31.31s.18-1.04 1.71-1.04c1.63 0 2.07.18 2.07.72s-1.08.63-1.8.63c-.72.01-1.39.64-1.98-.31M28.35 33.88s-.32-1.04 1.44-1.31 2.21-.04 2.3.5c.09.54-.45 1.21-1.57 1.26-1.14.05-1.81.36-2.17-.45M29.16 36.85s-.77-1.53 1.12-1.62c1.89-.09 2.57.32 2.16 1.89-.4 1.58-3.28-.27-3.28-.27M30.94 20s-.6 0-.96-.9 0-.78.18-.85c.17-.06.84 1.03.78 1.75M30.94 22.25s-.6-1.17.16-1.29c.67-.11.96.73 1.04.88.08.16.8 1.08.2 1.33-.6.24-1.24-.16-1.4-.92M32.46 24.05s-1.35-.21-.6 1.41c.56 1.2 1.12 1 1.12 1s1.12.4 1.12-.24-.12-2.33-1.64-2.17M36.76 16.75s-.52 0-.2-.72c.23-.53.48-.6.6-.52.12.07.48 1.28-.4 1.24M35.87 18.31s.04-.8.64-.76c.6.04.36 1.61-.2 1.64-.56.05-.48-.64-.44-.88M34.95 20.64s0-.76.84-.76c.76 0 .48.72.48.84s0 .76-.76.64-.56-.72-.56-.72M34.39 22.97s0-1.12.72-.92c.87.24 1.22.58.76 1.37-.28.48-.48.64-.96.48-.48-.17-.52-.73-.52-.93" clip-path="url(#SVGID_9_)" fill="#231f20"/>
    <path d="M33.95 25.06s-.04-.64.8-.4c.84.24.72.68.68.96-.04.28-.24.76-.96.48-.73-.28-.52-1.04-.52-1.04M38.96 17.15s-.64.16-.4-.8c.24-.96.64-.84.68-.08.05.76-.28.88-.28.88M38 18.79s.24-.84.84-.84.52.93.48 1.08c-.04.16 0 .6-.76.48-.76-.11-.56-.52-.56-.72M37.6 21.2s-.16-.88.97-.96c1.12-.08 1 .88.96 1-.04.12-.04 1.08-1 1.04-.97-.03-.97-.48-.93-1.08M37.12 23.65s-.08-.76 1.12-.84c1.2-.08 1.24.6 1.24.84s-.04 1.13-.92 1.04c-.88-.08-1.32-.4-1.44-1.04M36.8 26.1s-.16-1.08 1.37-.92c1.52.16 1.28.52 1.28.92s-.08.84-1.16.81c-1.09-.05-1.45-.29-1.49-.81M36.39 28.31s.04-.68 1.57-.6c.8.04 1.41.4 1.32 1.04-.07.57-.4.76-1.56.48-1.16-.28-1.16-.44-1.33-.92M36.15 30.52s-.04-.72 1.2-.52c1.24.2 1.89-.32 1.89.64 0 .72-1 .48-1.44.48-.44 0-1.52 0-1.65-.6M35.99 32.88s-.16-1.12 1.16-1.04c1.32.08 1.81.28 1.81 1.04s-.4 1.08-1.45 1.08c-1.03.01-1.6-.23-1.52-1.08M35.83 35.37s-.24-1.04 1.24-.97c1.49.08 1.69.32 1.53 1.2-.16.88-.84.84-1.48.72-.64-.1-1.45-.18-1.29-.95M40.57 18.71s-.04-.64.24-.6c.28.04.44.36.44.52 0 .16.04.72-.2.72-.24.01-.4-.35-.48-.64M40.73 20.76s-.2-.8.36-.88c.56-.08.52.52.52.8s.16 1.08-.4 1.08-.52-.64-.48-1M40.69 23.41s-.32-.8.48-.93c.8-.12.76 1 .76 1s-.12.92-.64.92-.72-.35-.6-.99M40.61 25.82s-.12-.88.6-.97c.72-.08.84.68.8.88-.04.2.04.84-.64.92-.68.08-.68-.04-.8-.12-.12-.07-.12-.55.04-.71M40.61 28.27s-.12-.84.6-.88c.72-.04.72.68.68.84-.04.16-.32.68-.64.72-.32.04-.72.04-.64-.68M40.37 30.52s-.24-.65.6-.76c.84-.12.88.16.88.4 0 .24-.52.6-.52.6s-.92.48-.96-.24M40.05 32.77s.12-.72.52-.92c.4-.2.96.16 1 .36.04.2-.04.6-.32.88s-.76.4-1.13.24c-.35-.16-.07-.56-.07-.56M39.73 36.34s-.24-.8.16-1.68c.4-.89 1.13-1.13 1.69-1.17.56-.04 1.16 1.05-.12 2.41-1.29 1.36-1.73.44-1.73.44M45.99 23.89s-.52-.08.04-.92c.56-.84.73-.72.84-.68.12.04.16.48-.24 1s-.64.6-.64.6M44.26 25.66s.44-.88 1-.8c.56.08.6.4.2 1.24-.4.85-.92.81-1.04.76-.12-.04-.96-.12-.16-1.2M42.18 28.75s.24-1.32 1.41-1.28c1.17.04.76 1.2.52 1.61-.24.4-.64.84-1.32.8-.7-.05-.74-.61-.61-1.13" clip-path="url(#SVGID_9_)" fill="#231f20"/>
    <path d="M41.21 31.44s.12-.72 1.16-.84c1.05-.12.76.8.56 1.2-.2.4-.56.76-1.17.76-.59 0-1.15-.56-.55-1.12M49.24 24.45s1.17.04 1.25-1c.08-1.04-1.25-.96-1.25-.96s-1.4-.12-1.44 1c-.04 1.12 1.44.96 1.44.96M46.87 25.86s.28-1.12 1.6-.76c1.67.45 1.21 1.49 1.13 1.77-.08.28-.44 1.13-1.69.68-1.24-.45-1.4-.89-1.04-1.69M45.51 28.79s.36-1.2 2.13-.44 1.04 1.73 1.04 1.73-.28.89-1.89.32c-1.6-.57-1.56-.93-1.28-1.61M44.46 31.56s.08-1.09 1.96-.6c1.89.48 1.32 1.77 1.29 1.93-.04.16-.68.84-2.01.36-1.32-.49-1.56-.85-1.24-1.69M43.5 34.21s.4-.52 1.89-.08c1.48.44 1.52.96 1.41 1.24-.12.28-.92.32-1.69.04-.77-.28-1.97-.36-1.61-1.2M43.02 40.51s1.24.92 1.81.04c.56-.88-.28-1.57-1.17-1.57s-1.04 1.21-.64 1.53M43.18 41.4s1.04.64.68 1.57c-.36.92-1.44.4-1.69.4s-1.6-.48-1.28-1.56c.32-1.1 2.09-.57 2.29-.41M41.25 46.17s1 .44 1.37-.68 0-1.45-.8-1.61c-.8-.16-1.24.52-1.24 1.04-.01.53.03 1.05.67 1.25M40.85 46.98s1.08.44.36 1.36c-.72.93-1.61.24-1.41-.68.21-.93 1.05-.68 1.05-.68M49.64 21.65s-.76-.36-.08-1.12c.68-.76.68-.56.88-.44.2.12.64.16.32 1.04-.31.88-.92.67-1.12.52M50.77 27.91s.04-1.44 1.12-1.04c1.09.4.92 1.61.88 1.81-.04.2-.22 1.39-1.28.68-.97-.65-.72-1.45-.72-1.45M49.96 30.88s.32-.76 1.32-.36.84 1.16.8 1.44c-.04.28-.48.76-1.32.32-.83-.44-1-.92-.8-1.4M49.16 33.49s.16-1.12 1.44-.36c1.28.76.64 1.81.64 1.81s-.4.8-1.44.12c-1.04-.69-.64-1.57-.64-1.57M48.76 37.26s-.76-.6-.56-1.2c.2-.6.8-.16 1.12.04.32.2 1.12 1 .88 1.44-.24.44-1.36-.16-1.44-.28M47.31 38.62s.32-.72 1.16-.16c.85.56.85 1.08.61 1.37-.24.28-.48.56-1.21 0-.72-.56-.68-.96-.56-1.21M46.31 40.99s.56-.92 1.4-.2c.84.72.44 1.21.16 1.49s-.64.2-1-.04c-.36-.24-.92-.44-.56-1.25M45.15 43.44s.52-.88 1.28-.36c.76.53.44 1.49.24 1.69-.2.2-.72.56-1.4 0-.69-.56-.25-1.21-.12-1.33M24.71 35.58s-.8-1.09.64-1.41c1.44-.32 1.41.4 1.44.88.04.48.36 1.44-.48 1.69-.83.24-1.44-.85-1.6-1.16M32.74 37.02s-.16-.89.28-.89c.44 0 1.05.2 1.05.2s-.2-.64-.24-.84c-.04-.2-1.21-.32-1.21-1.28s1.01-.52 1.01-.52l-.04-.6s-1.08-.52-.97-1.41c.12-.88.6-.56.6-.56s-.08-.8.4-1c0 0-.84-.12-.48-1.08 0 0-.52-.44-.52-.76s-.44-1.12.85-1.12c0 0 .24-.64.96-.2s1.17.88.36 1.28c0 0 .16.88-.12 1.12 0 0 .6.76-.04 1.04 0 0 .64.64.4 1.08-.24.44-.36.36-.36.36s.16.64.12.76c0 0 .8.36.76 1.24 0 0-.08.6-.8.56l-.12.64s1.49.28 1.32 1.41c-.16 1.12-.68 1.16-.68 1.16s-2.41.45-2.53-.59" clip-path="url(#SVGID_9_)" fill="#231f20"/>
    <path d="M11.71 19.74s-.14 2.33.81 1.73c.95-.61-.64-1.7-.81-1.73M12.09 23.12s-.14-.6.42-.77c.56-.18.81.46.92.88.11.42.25 1.17-.21 1.24-.46.06-.91.1-1.13-1.35M12.62 25.87s0-.53.67-.6c.67-.07.71.39.71.39s.85.95.04 1.13c-.82.17-1.45.46-1.42-.92M13.19 28.76s-.18-.71.64-.74c.81-.04 1.23-.18 1.37.77.14.95-.18 1.23-.74 1.27-.57.04-1.23-.35-1.27-1.3M14.07 31.79s.07.91 1.09.79 1.09-.58.92-.97c-.18-.39-.49-.88-1.27-.74-.77.15-.74.47-.74.92M14.81 34.44s-.28-.88.56-.99c.85-.11 1.38-.28 1.55.42.18.71-.07.77-.46.88-.38.11-1.44.61-1.65-.31M15.62 36.68s-.12-.69.96-.8c1.08-.12 1.44.2 1.48.48.04.28-.12.76-1.09.8-.95.04-1.23-.16-1.35-.48M17.55 38.28s-1.41-.08-.96 1.09c.44 1.16 1.24.84 1.52.84s1.73-.12 1.08-1.12c-.64-1.01-.88-1.01-1.64-.81M18.87 40.93s-1.36.16-.96 1.04c.4.88 1.04.68 1.24.68.2 0 1.56.16 1.32-.92-.23-1.08-1.4-.92-1.6-.8M20.28 43.54s-1.75.22-.48 1.48c1.04 1.04 1.73.68 1.73.68s1.48-.14.16-1.53c-.89-.91-1.41-.63-1.41-.63M13.89 19.16s0 1.14.3 1.39c.3.24 1.14.42.84-.3-.29-.73-.89-1.46-1.14-1.09M14.9 23.11s-.48-1.33.36-1.61 1.28 1.2 1.33 1.44c.03.25-1.37 1.33-1.69.17M16.26 24.03s-.68.16-.52 1.44c.16 1.28 1.28 1 1.64.72.36-.28.84-.76.32-1.69-.51-.91-1.28-.63-1.44-.47M16.54 28.37s-.4-.76.84-1.41c1.24-.64 1.48-.4 1.81.44.32.84-.1 1.22-.88 1.45-.56.16-1.48.2-1.77-.48M17.63 31.02s-.44-.76.53-1.28c.96-.52 1.81-.96 2.25-.12.44.84-.07.99-.84 1.61-.58.43-1.7.59-1.94-.21M19.76 32.18s1.74-.99 2.09.4c.28 1.12-.84 1.21-1.16 1.29-.32.08-2.05.64-2.21-.4-.17-1.05 1.28-1.29 1.28-1.29M19.55 36.04s-.2-.64.4-.97c.6-.32 2.29-1.32 2.65-.88.36.44 0 .96-.8 1.44-.8.49-1.72 1.13-2.25.41M20.72 38.61s-.68-1.17.76-1.77c1.44-.6 2.25-.8 2.49.24.24 1.04-.08 1.77-1.49 2.01-1.4.24-1.4.2-1.76-.48M22.16 41.7s-.96-1.24.16-1.81c1.12-.56 3.17-1.13 3.09.6-.07 1.73-2.88 1.61-3.25 1.21M17.43 21.22s-.44-.36-.04-.76.6.44.6.44.52.52.28.76c-.24.25-.84-.44-.84-.44M18.79 23.43s-.72-.59-.16-1.04c.44-.36.84.2 1.04.44.2.24.8.88.24 1.24s-.84 0-1.12-.64M20.24 24.95s.44-.72.92.08c.48.8 1.09 1.37.2 1.85-.88.48-1.04-.52-1.24-1-.12-.28-.52-.32.12-.93M21.64 27.29s-.56.32-.16 1.36c.4 1.05.97.8 1.24.72.28-.08.85-.76.2-1.57-.64-.8-1.12-.6-1.28-.51M23 17.5s-.5-.23-.05-.86.95-.72.99-.27c.05.45-.31 1.26-.94 1.13M22.23 19.7s0-.81.59-.94c.59-.14 1.31-.63 1.31.4 0 1.04-.45 1.26-.9 1.3-.46.06-1 .51-1-.76M23.05 21.87s-.95.09-.9 1.44c.04 1.35.72 1.22 1.31.9.58-.31 1.04-.67.95-1.71-.1-1.04-.92-.95-1.36-.63" clip-path="url(#SVGID_9_)" fill="#f9c81e"/>
    <path d="M22.28 26.6s-.15-.69.86-1.13c1.04-.45 1.31-.58 1.71.4.4.99-.68 1.4-.95 1.4-.27 0-1.62.68-1.62-.67M23.67 28.08s1.62-.58 1.67.23c.05.81.27 1.71-1.04 1.8-1.31.09-1.62-.09-1.67-.54-.04-.45-.08-.81 1.04-1.49" clip-path="url(#SVGID_9_)" fill="#f9c81e"/>
    <path d="M23.63 31.87s-.72.04-.9-.81c-.18-.86.22-1.13.49-1.22.27-.09 1.04-.09 1.08.76.05.86-.67 1.27-.67 1.27" clip-path="url(#SVGID_9_)" fill="#f9c81e"/>
    <path d="M23.72 33.08s-.59-.9.13-1.4c.72-.5 1.35.68 1.35 1.13 0 .45-.31 1.04-.54 1.08-.22.05-.67.23-.94-.81" clip-path="url(#SVGID_9_)" fill="#f9c81e"/>
    <path d="M24.17 31.64s.27-.32.68-.36c.4-.05 1.13-.32 1.08.36-.04.68-.9 1.04-.9 1.04l-.86-1.04zM25.75 15.29s-.45.36-.09.9.54.59 1.08.59.68-.36.36-.99c-.32-.64-.77-1.27-1.35-.5M25.48 18.76s-.23-1.04 1.17-1.17c1.4-.13 1.62.63 1.62.77 0 .13.59 1.4-.99 1.4-1.58-.01-1.8-1-1.8-1M25.88 21.91s-.32-1.21 1.4-1.39c1.71-.18 1.8.94 1.8 1.08 0 .13.54 1.35-1.31 1.35-1.84 0-1.8-.5-1.89-1.04M26.38 25.29s-.32-.9.63-1.22c.95-.32 2.75-.77 3.15.76.4 1.53-1.27 1.21-1.8 1.26-.54.06-1.8.28-1.98-.8M26.96 28.36s-.4-1.26 1.62-1.58c2.03-.31 2.16.77 2.16 1.13 0 .36-.05.99-1.58 1.17-1.12.13-1.84.09-2.2-.72M27.55 31.01s.18-1.04 1.71-1.04c1.63 0 2.07.18 2.07.72s-1.08.63-1.8.63c-.72.01-1.4.64-1.98-.31M28.05 33.58s-.32-1.03 1.44-1.3 2.21-.05 2.3.49c.09.54-.45 1.22-1.58 1.26-1.13.04-1.8.36-2.16-.45M28.86 36.55s-.77-1.53 1.13-1.62c1.89-.09 2.57.31 2.16 1.89-.41 1.58-3.29-.27-3.29-.27M30.63 19.7s-.6 0-.96-.9 0-.78.18-.84c.18-.07.85 1.02.78 1.74M30.63 21.95s-.6-1.17.16-1.28c.68-.11.97.72 1.04.88.08.16.8 1.09.2 1.33s-1.24-.17-1.4-.93M32.16 23.75s-1.36-.21-.6 1.41c.56 1.2 1.12 1 1.12 1s1.12.4 1.12-.24-.11-2.33-1.64-2.17M36.46 16.44s-.52 0-.2-.72c.24-.53.48-.6.6-.52.12.08.48 1.29-.4 1.24M35.57 18.01s.04-.8.64-.76c.6.04.36 1.61-.2 1.65-.56.04-.48-.65-.44-.89M34.65 20.34s-.01-.76.84-.76c.76 0 .48.72.48.84s0 .76-.76.64-.56-.72-.56-.72M34.09 22.67s0-1.13.72-.92c.87.24 1.22.58.76 1.36-.28.48-.48.64-.96.48-.48-.16-.52-.72-.52-.92" clip-path="url(#SVGID_9_)" fill="#f9c81e"/>
    <path d="M33.64 24.75s-.04-.64.8-.4c.84.24.72.68.68.96-.04.28-.24.76-.97.48-.71-.27-.51-1.04-.51-1.04M38.66 16.85s-.64.16-.4-.8c.24-.96.64-.84.68-.08.04.76-.28.88-.28.88M37.7 18.49s.24-.84.84-.84.52.92.48 1.08c-.04.16 0 .6-.76.48-.76-.11-.56-.52-.56-.72M37.3 20.9s-.16-.88.97-.96c1.12-.08 1 .89.96 1-.04.12-.04 1.09-1 1.05-.97-.04-.97-.48-.93-1.09M36.82 23.35s-.08-.76 1.12-.84c1.2-.08 1.24.6 1.24.84s-.04 1.12-.92 1.04c-.88-.08-1.32-.4-1.44-1.04M36.49 25.8s-.16-1.08 1.37-.92c1.53.16 1.28.52 1.28.92s-.08.84-1.16.8c-1.08-.04-1.45-.28-1.49-.8M36.09 28.01s.04-.68 1.56-.6c.8.04 1.41.4 1.32 1.04-.07.57-.4.76-1.56.48-1.16-.28-1.16-.44-1.32-.92M35.85 30.22s-.04-.72 1.2-.52c1.24.2 1.89-.32 1.89.64 0 .72-1 .48-1.45.48-.43 0-1.52 0-1.64-.6M35.69 32.58s-.16-1.13 1.16-1.04c1.32.08 1.81.28 1.81 1.04s-.4 1.09-1.45 1.09c-1.04 0-1.6-.24-1.52-1.09M35.53 35.07s-.24-1.04 1.25-.96c1.49.08 1.68.32 1.52 1.2-.16.88-.84.84-1.48.72-.65-.11-1.45-.19-1.29-.96M40.27 18.41s-.04-.64.24-.6c.28.04.44.36.44.52 0 .16.04.72-.2.72-.24 0-.4-.36-.48-.64M40.43 20.46s-.2-.8.36-.88c.56-.08.52.52.52.8s.16 1.08-.4 1.08-.52-.64-.48-1M40.39 23.11s-.32-.8.48-.93c.8-.12.76 1 .76 1s-.12.92-.64.92c-.52.01-.72-.35-.6-.99M40.31 25.52s-.12-.88.6-.96c.72-.08.84.68.8.88-.04.2.04.84-.64.92-.68.08-.68-.04-.8-.12-.12-.08-.12-.56.04-.72M40.31 27.97s-.12-.84.6-.88c.72-.04.72.68.68.84-.04.16-.32.68-.64.72-.32.04-.72.04-.64-.68M40.07 30.22s-.24-.65.6-.76c.84-.12.88.16.88.4s-.52.6-.52.6-.92.48-.96-.24M39.75 32.46s.12-.72.52-.92c.4-.2.96.16 1 .36.04.2-.04.6-.32.88s-.76.4-1.12.24c-.36-.16-.08-.56-.08-.56M39.42 36.04s-.24-.8.16-1.69c.4-.88 1.13-1.12 1.69-1.16.56-.04 1.17 1.04-.12 2.41-1.28 1.36-1.73.44-1.73.44M45.69 23.59s-.52-.08.04-.92c.56-.84.73-.72.85-.68.12.04.16.48-.24 1-.41.52-.65.6-.65.6M43.96 25.36s.44-.88 1-.8c.56.08.6.4.2 1.25-.4.84-.92.8-1.04.76-.12-.05-.96-.13-.16-1.21M41.88 28.45s.24-1.33 1.4-1.29c1.16.04.76 1.21.52 1.61-.24.4-.64.84-1.32.8-.69-.04-.73-.6-.6-1.12" clip-path="url(#SVGID_9_)" fill="#f9c81e"/>
    <path d="M40.91 31.14s.12-.72 1.16-.84.76.8.56 1.2c-.2.4-.56.76-1.16.76s-1.16-.56-.56-1.12M48.94 24.15s1.17.04 1.25-1c.08-1.04-1.25-.97-1.25-.97s-1.41-.12-1.44 1c-.04 1.13 1.44.97 1.44.97M46.57 25.56s.28-1.12 1.6-.76c1.66.45 1.2 1.49 1.12 1.77-.08.28-.44 1.12-1.68.68-1.24-.45-1.4-.89-1.04-1.69M45.21 28.49s.36-1.21 2.13-.44c1.76.76 1.04 1.72 1.04 1.72s-.28.88-1.89.33c-1.61-.57-1.56-.93-1.28-1.61M44.16 31.26s.08-1.08 1.97-.6c1.89.48 1.32 1.77 1.28 1.93-.04.16-.68.84-2.01.36-1.32-.49-1.56-.85-1.24-1.69M43.2 33.91s.4-.52 1.89-.08c1.49.44 1.53.96 1.41 1.24-.12.28-.92.33-1.69.04-.77-.28-1.97-.36-1.61-1.2M42.72 40.21s1.25.92 1.81.04-.28-1.57-1.16-1.57-1.05 1.21-.65 1.53M42.88 41.09s1.04.64.68 1.57c-.36.92-1.44.4-1.68.4s-1.61-.48-1.29-1.57c.32-1.08 2.09-.56 2.29-.4M40.95 45.87s1 .44 1.37-.68c.36-1.12 0-1.45-.8-1.61-.8-.16-1.24.52-1.24 1.04-.01.53.03 1.05.67 1.25M40.55 46.68s1.09.44.36 1.36c-.72.92-1.61.24-1.41-.68.21-.93 1.05-.68 1.05-.68M49.34 21.34s-.76-.36-.08-1.12c.68-.76.68-.56.88-.44.2.12.64.16.32 1.05-.32.88-.92.68-1.12.51M50.46 27.61s.04-1.45 1.12-1.04c1.08.4.92 1.61.88 1.81-.04.2-.22 1.39-1.28.68-.96-.65-.72-1.45-.72-1.45M49.66 30.58s.32-.76 1.32-.36.84 1.16.8 1.44c-.04.28-.48.76-1.33.32-.83-.44-.99-.92-.79-1.4M48.86 33.19s.16-1.12 1.44-.36c1.28.76.64 1.81.64 1.81s-.4.8-1.44.12c-1.04-.69-.64-1.57-.64-1.57M48.46 36.96s-.76-.6-.56-1.2c.2-.6.81-.16 1.13.04.32.2 1.12 1 .88 1.44-.25.44-1.37-.16-1.45-.28M47.01 38.32s.32-.72 1.16-.16c.84.56.84 1.08.6 1.36s-.48.56-1.2 0c-.72-.55-.68-.95-.56-1.2M46.01 40.69s.56-.92 1.41-.2c.84.72.44 1.2.16 1.48s-.64.2-1-.04c-.37-.23-.93-.44-.57-1.24M44.85 43.14s.52-.89 1.28-.36c.76.52.44 1.49.24 1.69-.2.2-.72.56-1.41 0-.68-.56-.23-1.21-.11-1.33M24.41 35.27s-.8-1.08.64-1.4c1.44-.32 1.41.4 1.44.88.04.48.36 1.44-.48 1.68-.83.25-1.44-.84-1.6-1.16M32.44 36.72s-.16-.88.28-.88c.44 0 1.04.2 1.04.2s-.2-.64-.24-.84c-.04-.2-1.2-.32-1.2-1.28s1-.52 1-.52l-.04-.6s-1.08-.52-.96-1.41c.12-.88.6-.56.6-.56s-.08-.8.4-1c0 0-.84-.12-.48-1.08 0 0-.52-.44-.52-.76s-.44-1.13.84-1.13c0 0 .24-.64.96-.2s1.17.88.36 1.28c0 0 .16.88-.12 1.12 0 0 .6.76-.04 1.05 0 0 .64.64.4 1.08-.24.44-.36.36-.36.36s.16.64.12.76c0 0 .8.36.76 1.24 0 0-.08.6-.8.56l-.12.64s1.48.28 1.32 1.4c-.16 1.12-.68 1.17-.68 1.17s-2.4.44-2.52-.6" clip-path="url(#SVGID_9_)" fill="#f9c81e"/>
    <path d="M24.59 48.9c.17-1.66 1.36-3.62 1.36-3.62s1.48-.83 2-.83c0 0 2.04 1.09 2.95 1.09.92 0 2.43-.3 3.31-.74.88-.44 2.43.44 2.48.57.04.13.79 1.96.76 2.88-.05 1.05.55 2.88.55 2.88.96.57 1.4-.22 1.4-.22l-.24-.35c.44.22.84-.22.84-.22s-.4-1.31-.28-2.96c.12-1.66.6-3.45.6-3.45 1.36-.44 1.48-1.48 1.52-2.01.04-.52.24-1 1.12-1.44.88-.43.92-1.13.92-1.13 1.24-.22 1.87-.78 1.87-.78s1.16.13 1.2-.83c.04-.96-.56-1.05-1.04-1.22-.48-.17-1.67-1.79-1.67-1.79s-.32-.65-1.24-.61c-.92.04-1.48.09-1.48.09s-.44-.04-.6.87c-.03.15-.88.7-1.76.78-.88.09-1.56.26-3.15.57s-8.82-.09-9.74-.31c-.92-.22-2.31-.65-3.07.35-.31.4-.68 1.27-.68 1.27-.21.99-.29 1-.4 3.01 0 0-.32 2.61-.4 2.96-.08.35-.4 1.35.32 1.48 0 0 .48-.04.52-.7.04-.65.04-1.79 0-1.96-.04-.18-.32-2.18.2-3.79l.32 3.75s0 .92-.2 1.27-.2 2.05-.2 2.05.08 2.01-.04 2.88c-.12.87-.2 1.92-.2 1.92s.56.26 1.16 0c0 0-.12-.7-.08-1.4.04-.7 0-.92.16-1.09 0 0 .04 1.31.12 1.53.08.22.16.74.16.74s.6.26 1.04.04c-.01 0-.45-1.13-.41-1.53" clip-path="url(#SVGID_9_)" fill="#231f20"/>
    <path d="M22.7 13.32c.59.95.5 1.69-.71 2.44-1.2.75-1.93.51-2.52-.44l-1.06-1.72c-.5-.81-.2-1.62.84-2.27 1.04-.65 1.88-.54 2.38.27l1.07 1.72zm-2.22-.92c-.16-.26-.38-.55-.77-.31-.38.23-.23.57-.07.83l1.08 1.73c.15.24.42.57.81.33.38-.24.19-.61.04-.86l-1.09-1.72zM24.11 11.46l-.01.01 1.06 2.57-1.26.44-1.67-4.67 1.36-.49 1.95 2.25.02-.01L24.5 9l1.25-.45 1.67 4.68-1.34.48zM27 8.24l3.59-.51.14.99-1.11.15.56 3.94-1.39.2-.56-3.94-1.08.16zM30.91 12.64l1.48-4.92 1.68.06 1.11 5.01-1.41-.05-.16-.98-1.1-.04-.2.96-1.4-.04zm2.29-3.99h-.02l-.49 2.21.81.03-.3-2.24zM36.7 13.19l-1.36-.34 1.21-4.82 1.98.5c1.11.28 1.57.79 1.33 1.75-.13.51-.37.84-.99.92v.01c.36.17.57.45.51.79-.06.4-.26 1.23-.26 1.56.02.07.04.14.09.2l-.02.06-1.48-.37c-.01-.1-.02-.2-.01-.3.08-.43.21-.82.25-1.12.04-.31-.02-.53-.33-.62l-.45-.11-.47 1.89zm.7-2.77l.46.12c.39.1.56-.18.64-.48.14-.57-.14-.67-.8-.82l-.3 1.18z" clip-path="url(#SVGID_9_)" fill="#fff"/>
    <path transform="rotate(-66.791 41.085 12.019)" clip-path="url(#SVGID_9_)" fill="#fff" d="M38.6 11.32h4.97v1.4H38.6z"/>
    <path d="M45.33 15.44c-.6.95-1.31 1.19-2.5.43-1.2-.76-1.3-1.51-.7-2.46l1.08-1.71c.51-.81 1.37-.89 2.4-.23 1.03.65 1.31 1.45.8 2.26l-1.08 1.71zm-.15-2.39c.16-.26.33-.58-.06-.83-.37-.24-.62.04-.78.3l-1.09 1.72c-.15.24-.33.63.05.87s.63-.1.79-.34l1.09-1.72zM13.51 43.31l.28-.15c.37-.2.48-.47.35-.7-.2-.39-.43-.38-.71-.23l-2.16 1.18c-.24.13-.32.33-.15.65.23.42.61.26.87.11l.4-.22.67 1.23-.54.29c-.75.41-1.55.18-2.24-1.07-.62-1.13-.36-1.84.53-2.33l1.79-.98c.95-.52 1.68-.24 2.29.88.57 1.05.54 1.88-.34 2.36l-.36.2-.68-1.22zM15.76 49.03c-.85.72-1.6.75-2.52-.33-.92-1.08-.79-1.83.06-2.55l1.54-1.31c.72-.62 1.57-.44 2.36.49.79.93.82 1.78.09 2.4l-1.53 1.3zm.57-2.32c.23-.2.49-.46.19-.81-.29-.34-.6-.14-.83.05l-1.55 1.32c-.21.18-.5.5-.21.85.29.35.64.1.85-.09l1.55-1.32zM16.61 51.83l-1.1-.86 3.06-3.92 1.61 1.26c.9.7 1.12 1.36.51 2.14-.33.42-.68.62-1.28.44l-.01.01c.26.3.34.64.15.93-.21.34-.73 1.01-.86 1.32a.41.41 0 0 0 0 .22l-.04.05-1.2-.94c.03-.1.06-.19.11-.27.25-.36.53-.66.69-.93.16-.26.19-.49-.05-.7l-.36-.28-1.23 1.53zm1.75-2.25l.38.29c.32.25.58.06.77-.18.36-.46.15-.67-.4-1.08l-.75.97zM21.93 52.04l-.02.01-1.12 2.54L19.6 54l2.21-4.45 1.29.63-.27 2.97.03.01 1.1-2.55 1.19.59-2.2 4.45-1.28-.63zM26.46 56.76l.85-4.9 3.24.57-.17.97-1.86-.32-.16.87 1.72.3-.17.97-1.71-.29-.36 2.07zM30.95 57.41l-.05-4.96 3.21-.03.01.99-1.81.02.01.91 1.75-.02.01 1-1.75.01.01 1.08 1.9-.02.01.99zM35.56 57.26l-1-4.87 1.49-.3c.5-.1 1.1-.22 1.59-.09.58.15.77.61.86 1.08l.44 2.16c.09.49-.01.88-.37 1.17-.32.27-.75.39-1.17.48l-1.84.37zm1.19-1.16c.93-.14.87-.45.72-1.09l-.33-1.59c-.12-.57-.36-.55-1.03-.43l.64 3.11zM42.64 55.24l-2.39-4.36 1.59-.87c.93-.51 1.79-.65 2.27.22.21.38.23.82-.09 1.24l.01.01c.71-.04.95.13 1.25.67.48.88.09 1.59-.91 2.13l-1.73.96zm-.21-3.31c.52-.32.79-.43.5-.95-.24-.43-.58-.22-1.01.02l.51.93zm1.01 1.86c.61-.35.88-.45.56-1.04-.28-.51-.62-.3-1.15-.03l.59 1.07zM47.01 52.68l-3.18-3.82 2.47-2.05.63.76-1.38 1.16.58.7 1.34-1.12.64.77-1.34 1.12.68.82 1.46-1.22.64.77zM50.45 49.66l-3.82-3.18 2.05-2.46.77.64-1.16 1.38.7.59 1.12-1.35.77.64-1.12 1.34.82.69 1.22-1.46.76.64zM53.3 46.05l-4.34-2.44 1.61-2.87.87.49-.93 1.65.77.43.85-1.52.87.49-.85 1.52 1.83 1.03zM53.3 37.61h-.45v-.17h1.08v.17h-.44v1.29h-.19zM55.32 38.27c-.01-.2-.02-.45-.02-.63-.06.17-.11.35-.19.55l-.26.71h-.14l-.24-.7c-.07-.2-.13-.39-.17-.57-.01.18-.02.43-.03.65l-.04.62h-.18l.1-1.46h.24l.25.71c.06.18.11.34.15.49h.01c.04-.15.09-.31.15-.49l.26-.71h.24l.09 1.46h-.19l-.03-.63z" clip-path="url(#SVGID_9_)" fill="#fff"/>
    <path d="M5.53 21.26l-.01.33c-.28.12-.49.35-.62.7-.1.27-.11.51-.04.73.07.22.22.37.43.45.22.08.43.07.62-.05.2-.11.35-.31.45-.6.13-.34.12-.65-.02-.92l.25-.22c.11.2.17.4.17.6.01.2-.04.42-.13.67-.13.34-.32.59-.57.75-.29.18-.59.22-.91.1a.953.953 0 0 1-.61-.68c-.09-.29-.07-.6.06-.94.19-.48.5-.79.93-.92M8.15 19.48l-.95 1.93-1.84-.91.91-1.86.28.14-.77 1.56.48.23.53-1.08.28.13-.54 1.08.55.27.8-1.62zM9.58 17.15l-.21.34-.96.06-.55.88.67.41-.18.29-1.75-1.08.85-1.38c.11-.18.25-.3.42-.34.16-.04.33-.01.5.09.15.09.24.21.28.35.04.13.02.27-.04.42l.97-.04zm-1.33.07c.14-.22.12-.39-.06-.5-.19-.12-.37-.06-.52.18l-.63 1.02.56.35.65-1.05zM9.64 14.15l-.59.79 1.4 1.05-.21.27-1.39-1.05-.59.78-.25-.18 1.39-1.84zM11.47 14.73l-.22.26-1.57-1.33.22-.26zM12.02 11.57l-1.2 1.25.38.37.83-.87.23.21-.84.87.66.63-.23.25-1.49-1.42 1.44-1.5z" clip-path="url(#SVGID_9_)" fill="#f9c81e"/>
    <path transform="rotate(-42.803 12.947 11.718)" clip-path="url(#SVGID_9_)" fill="#f9c81e" d="M12.78 10.69h.34v2.06h-.34z"/>
    <path clip-path="url(#SVGID_9_)" fill="#f9c81e" d="M15.86 10.59l-1.67 1.37-1.3-1.6 1.61-1.31.19.24-1.34 1.09.33.41.94-.76.19.24-.93.76.38.47 1.41-1.14zM16.13 7.93c.3-.2.59-.28.87-.23.28.04.51.2.68.47.16.24.2.51.13.79-.07.27-.23.48-.49.65l-1.14.76-1.14-1.71 1.09-.73zm1.04 1.4c.17-.11.27-.26.31-.44a.65.65 0 0 0-.12-.53.739.739 0 0 0-.47-.33c-.19-.04-.38.01-.57.14l-.82.54.8 1.2.87-.58zM20.39 6.75c.06.12.06.25.01.39a.53.53 0 0 1-.65.31.428.428 0 0 1-.29-.25.458.458 0 0 1-.01-.38c.05-.13.13-.22.26-.28.13-.06.26-.07.38-.03.14.04.24.12.3.24M24.46 4.62l-.26.2c-.27-.15-.58-.16-.94-.04-.27.08-.47.22-.59.42-.12.19-.15.4-.08.61.07.22.22.37.43.45.21.08.46.08.75-.02.35-.11.58-.31.71-.59l.33.06c-.09.21-.21.38-.36.51a1.7 1.7 0 0 1-.6.32c-.34.11-.66.12-.95.02a.983.983 0 0 1-.65-.65 1 1 0 0 1 .14-.9c.17-.25.43-.43.77-.54.49-.15.92-.11 1.3.15M27.49 5.55l-2.1.47-.44-2.01 2.02-.45.07.3-1.69.38.11.51 1.18-.26.06.3-1.17.26.13.6 1.77-.4zM30.2 5.21l-.39.05-.65-.71-1.03.12.09.78-.34.04-.25-2.04 1.61-.2c.21-.03.39.01.53.11s.22.25.24.45c.02.17-.01.32-.1.44-.08.11-.2.19-.36.23l.65.73zm-.89-.99c.26-.03.38-.15.35-.36-.03-.23-.18-.32-.46-.29l-1.19.14.08.65 1.22-.14zM32.58 3.38l-.98.03.05 1.75-.34.01-.05-1.75-.99.04-.01-.31 2.31-.07zM33.28 5.17l-.34-.01.06-2.05h.34zM36.08 3.62l-1.72-.15-.05.53 1.2.1-.03.31-1.2-.11-.08.91-.34-.03.18-2.05 2.07.19zM36.56 5.48l-.34-.05.3-2.04.34.06zM39.25 6.01l-2.11-.45.43-2.01 2.03.43-.06.3-1.7-.36-.11.52 1.18.25-.07.3-1.17-.25-.13.59 1.77.38zM41.5 4.55c.34.11.58.29.72.53.14.25.16.52.06.82-.09.28-.27.48-.54.6-.25.11-.52.12-.81.03l-1.3-.42.63-1.96 1.24.4zm-.45 1.7c.19.06.37.05.54-.03.17-.09.28-.23.34-.42.07-.21.06-.4-.04-.57-.09-.17-.25-.29-.47-.36l-.94-.3-.44 1.37 1.01.31zM45.07 7.15c-.06.12-.15.2-.29.25a.5.5 0 0 1-.38-.03.495.495 0 0 1-.27-.28.458.458 0 0 1 .01-.38c.06-.12.15-.2.29-.25a.53.53 0 0 1 .39.03c.13.06.22.15.26.28a.5.5 0 0 1-.01.38M49.28 8.99l-.32-.08c-.05-.3-.24-.55-.55-.76-.24-.16-.47-.22-.7-.2a.67.67 0 0 0-.53.32c-.13.2-.16.4-.09.62.07.22.23.41.48.57.31.2.6.26.9.19l.16.3c-.22.06-.43.08-.62.04-.2-.04-.41-.13-.62-.27-.3-.2-.51-.44-.61-.72a.977.977 0 0 1 .1-.91.96.96 0 0 1 .79-.45c.3-.02.6.07.9.26.44.28.68.64.71 1.09M50.45 11.95l-1.68-1.35L50.06 9l1.61 1.3-.19.23-1.35-1.08-.33.41.94.75-.19.24-.94-.75-.38.47 1.41 1.14zM52.41 13.84l-.28-.28.15-.95-.74-.73-.55.56-.24-.24 1.44-1.47 1.16 1.13c.15.15.24.31.24.48.01.17-.06.33-.2.47a.64.64 0 0 1-.4.2c-.13.01-.27-.04-.41-.13l-.17.96zm.22-1.31c.19.18.36.2.5.05.16-.16.14-.34-.07-.54l-.86-.84-.46.47.89.86zM55.32 14.56l-.63-.75-1.34 1.14-.22-.26 1.34-1.14-.64-.74.23-.2 1.5 1.75z"/>
    <path transform="rotate(-37.062 55.076 15.461)" clip-path="url(#SVGID_9_)" fill="#f9c81e" d="M54.05 15.29h2.06v.34h-2.06z"/>
    <path clip-path="url(#SVGID_9_)" fill="#f9c81e" d="M57.33 17.44L56.37 16l-.44.29.66 1.01-.25.17-.67-1.01-.76.51-.19-.28 1.71-1.14 1.15 1.72z"/>
    <path transform="rotate(-30.19 56.97 18.31)" clip-path="url(#SVGID_9_)" fill="#f9c81e" d="M55.95 18.14h2.06v.34h-2.06z"/>
    <path clip-path="url(#SVGID_9_)" fill="#f9c81e" d="M57.44 21.41l-.96-1.93 1.84-.92.92 1.86-.27.13-.78-1.55-.47.24.54 1.08-.27.13-.54-1.07-.55.27.81 1.62zM59.98 22.25c.13.33.14.63.04.9-.1.26-.3.45-.6.57-.27.11-.54.09-.8-.05a1.13 1.13 0 0 1-.53-.62l-.49-1.28 1.92-.73.46 1.21zm-1.6.71c.07.19.19.33.36.4.17.08.35.08.55 0 .21-.08.35-.21.42-.39.08-.18.07-.38-.01-.59l-.35-.92-1.35.51.38.99zM60.19 26.66a.48.48 0 0 1-.38-.07.534.534 0 0 1-.17-.7c.07-.12.17-.2.31-.23.13-.03.26-.01.38.07a.534.534 0 0 1 .17.7c-.08.12-.18.2-.31.23M61.38 31.11l-.14-.3c.2-.23.28-.53.25-.9-.03-.28-.12-.51-.28-.67a.664.664 0 0 0-.58-.21c-.23.02-.41.13-.54.32-.12.19-.17.43-.14.73.03.36.17.64.42.82l-.13.31a1.3 1.3 0 0 1-.42-.46c-.09-.18-.15-.4-.18-.66-.03-.36.03-.67.19-.93.18-.29.44-.46.77-.49.33-.03.61.08.85.34.21.22.33.51.36.87.04.51-.1.92-.43 1.23M59.8 33.86l.01-2.15h2.05v2.07h-.31l.01-1.73h-.53v1.2h-.31v-1.2h-.61v1.81zM59.55 36.58l.04-.4.83-.48.1-1.03-.78-.08.03-.34 2.05.2-.16 1.62c-.02.21-.1.38-.22.49-.13.11-.29.16-.49.14-.17-.02-.31-.08-.4-.19a.65.65 0 0 1-.15-.4l-.85.47zm1.16-.65c-.03.26.07.4.28.42.23.02.35-.11.38-.39l.12-1.19-.66-.07-.12 1.23zM60.82 39.3l.18-.97-1.72-.33.07-.33 1.72.33.18-.97.3.06-.43 2.27z"/>
    <path transform="rotate(-75.789 59.962 39.674)" clip-path="url(#SVGID_9_)" fill="#f9c81e" d="M59.79 38.65h.34v2.06h-.34z"/>
    <path clip-path="url(#SVGID_9_)" fill="#f9c81e" d="M59.82 42.66l.52-1.65-.5-.16-.36 1.15-.3-.09.37-1.15-.87-.28.1-.32 1.96.62-.63 1.98zM57.9 42.72l.12-.32 1.92.75-.12.31zM56.79 45.22l.9-1.95 1.87.86-.87 1.89-.28-.13.73-1.58-.48-.22-.51 1.1-.27-.13.5-1.1-.55-.25-.76 1.64zM57.72 47.74c-.18.31-.41.51-.68.59-.27.08-.54.05-.82-.12a.93.93 0 0 1-.46-.66c-.05-.27 0-.54.15-.8l.69-1.18 1.77 1.05-.65 1.12zm-1.56-.81c-.1.18-.13.35-.09.54s.16.32.34.43c.19.11.38.14.57.09.19-.05.34-.18.46-.38l.5-.85-1.24-.73-.54.9zM54.4 50.66c-.11-.08-.16-.19-.18-.34-.01-.13.03-.26.11-.37.09-.11.2-.18.33-.2.14-.02.27.01.37.09.11.08.16.19.18.34.01.13-.03.26-.11.37-.09.11-.2.18-.33.2a.483.483 0 0 1-.37-.09M51.68 54.37l.14-.3c.3.01.59-.11.86-.37.2-.2.32-.41.35-.64a.687.687 0 0 0-.2-.59.682.682 0 0 0-.58-.22c-.23.02-.45.14-.66.35-.26.25-.39.53-.38.84l-.32.09c-.01-.23.02-.43.1-.62.08-.18.21-.37.4-.55.26-.25.54-.4.84-.44.34-.04.63.06.87.3.23.24.32.53.27.87-.05.3-.2.58-.45.83-.38.36-.79.51-1.24.45M48.54 54.86l1.69-1.34 1.28 1.61-1.62 1.29-.19-.24 1.35-1.08-.33-.41-.94.75-.19-.24.94-.75-.38-.48-1.41 1.13zM46.27 56.36l.33-.22.89.35.87-.57-.43-.66.29-.19 1.12 1.72-1.36.89c-.18.12-.35.16-.52.13-.17-.03-.3-.13-.41-.3a.544.544 0 0 1-.1-.43c.02-.13.1-.26.22-.37l-.9-.35zm1.23.5c-.22.14-.27.3-.16.48.12.19.31.21.54.05l1-.65-.36-.55-1.02.67zM44.93 59.05l.87-.46-.82-1.55.3-.15.82 1.54.87-.46.14.28-2.04 1.07zM43.52 57.75l.31-.14.85 1.87-.31.14zM41.68 60.37l1.62-.62-.19-.49-1.13.43-.11-.29 1.13-.43-.33-.85.32-.12.74 1.92-1.94.74z"/>
    <path transform="rotate(-17.451 40.913 59.847)" clip-path="url(#SVGID_9_)" fill="#f9c81e" d="M40.74 58.81h.34v2.06h-.34z"/>
    <path clip-path="url(#SVGID_9_)" fill="#f9c81e" d="M37.79 59.61l2.09-.52.49 2-2.01.5-.08-.3 1.68-.41-.12-.52-1.17.29-.07-.3 1.16-.29-.14-.59-1.76.44zM36.4 61.9c-.35.05-.65 0-.88-.16-.23-.16-.37-.4-.42-.71-.04-.29.03-.55.22-.77.18-.21.42-.33.72-.38l1.35-.19.29 2.04-1.28.17zm-.34-1.71c-.2.03-.36.12-.47.27-.11.15-.15.33-.12.53.03.22.13.38.29.5s.35.15.58.12l.98-.14-.2-1.43-1.06.15zM32.05 61.14c0-.13.05-.25.16-.35.1-.09.22-.14.36-.14s.26.05.36.14c.1.1.16.22.15.35 0 .13-.05.25-.16.35-.1.09-.22.14-.36.14-.14 0-.26-.05-.36-.14a.502.502 0 0 1-.15-.35M27.46 61.34l.32-.07c.18.25.46.39.83.44.28.04.52-.01.72-.13.2-.12.31-.3.33-.52a.7.7 0 0 0-.19-.59c-.16-.16-.39-.26-.69-.3-.36-.04-.66.03-.89.23l-.27-.2c.17-.15.35-.26.54-.31.19-.05.42-.06.68-.03.36.05.65.17.87.38.25.24.35.53.31.86-.04.33-.21.58-.51.76-.26.15-.57.21-.93.16-.52-.07-.89-.29-1.12-.68M25.11 59.2l2.1.47-.45 2.01-2.02-.46.06-.3 1.7.39.11-.52-1.17-.26.06-.3 1.18.26.13-.59-1.77-.4zM22.52 58.36l.38.12.28.92.99.33.25-.75.32.11-.64 1.95-1.54-.51c-.2-.07-.35-.18-.43-.33a.638.638 0 0 1-.03-.51c.05-.17.15-.28.27-.35.12-.06.26-.08.42-.06l-.27-.92zm.38 1.27c-.25-.08-.41-.02-.47.18-.07.22.03.37.3.46l1.14.38.21-.63-1.18-.39zM19.59 58.99l.9.4.7-1.61.31.14-.7 1.6.9.4-.12.28-2.11-.93z"/>
    <path transform="rotate(-63.007 19.41 58.072)" clip-path="url(#SVGID_9_)" fill="#f9c81e" d="M18.38 57.9h2.06v.34h-2.06z"/>
    <path clip-path="url(#SVGID_9_)" fill="#f9c81e" d="M16.52 57.28l1.5.87.27-.45-1.04-.61.15-.27 1.04.61.47-.78.29.17-1.04 1.77-1.79-1.05z"/>
    <path transform="rotate(-56.179 16.458 56.34)" clip-path="url(#SVGID_9_)" fill="#f9c81e" d="M15.43 56.17h2.06v.34h-2.06z"/>
    <path clip-path="url(#SVGID_9_)" fill="#f9c81e" d="M14.69 53.76l1.71 1.31-1.25 1.64-1.65-1.27.19-.24 1.37 1.05.33-.41-.96-.74.19-.24.95.73.37-.48-1.44-1.1zM12.03 54.12c-.26-.24-.4-.51-.43-.79-.02-.28.08-.54.3-.77.2-.21.45-.32.74-.31.28.01.52.12.75.33l1 .93-1.41 1.5-.95-.89zm1.13-1.34a.67.67 0 0 0-.5-.2.7.7 0 0 0-.49.24c-.15.16-.22.34-.21.53.01.19.1.37.27.53l.72.68.99-1.05-.78-.73zM9.91 50.25c.1-.08.23-.12.37-.1.13.02.24.08.33.19.09.11.13.23.12.37a.469.469 0 0 1-.54.44.56.56 0 0 1-.34-.19.493.493 0 0 1-.12-.36c.02-.15.08-.27.18-.35M6.88 46.78l.26.21c-.08.29-.02.6.17.92.15.24.33.4.55.48.22.08.42.06.61-.06.2-.12.31-.3.34-.52.03-.23-.04-.47-.19-.72-.19-.31-.44-.49-.74-.55l-.02-.33c.22.04.42.11.58.23.16.12.31.29.45.51.19.31.27.61.24.91-.03.34-.19.6-.48.78-.28.17-.58.2-.91.07-.28-.11-.52-.32-.71-.62-.25-.45-.31-.88-.15-1.31M7.08 43.62l.95 1.93-1.85.9-.91-1.86.27-.14.76 1.56.48-.23-.53-1.08.28-.14.52 1.09.55-.27-.79-1.63zM6.12 41.07l.14.37-.54.79.36.97.74-.27.12.32-1.94.72-.56-1.52a.677.677 0 0 1-.01-.54c.07-.16.19-.27.38-.34.16-.06.31-.06.45-.01.12.05.23.15.31.29l.55-.78zm-.76 1.09c-.09-.25-.24-.33-.44-.26-.21.08-.27.25-.17.52l.42 1.12.62-.23-.43-1.15zM3.79 39.17l.26.95 1.69-.46.09.33-1.69.46.25.95-.29.08-.61-2.23zM5.37 38.08l.07.34-2.01.41-.07-.33zM3.22 35.71l.25 1.71.52-.07-.17-1.19.3-.05.17 1.19.91-.13.05.34-2.04.29-.3-2.05z"/>
    <path transform="rotate(-4.795 3.899 35.07)" clip-path="url(#SVGID_9_)" fill="#f9c81e" d="M2.88 34.9h2.06v.34H2.88z"/>
    <path clip-path="url(#SVGID_9_)" fill="#f9c81e" d="M4.8 32.08l.07 2.15-2.06.07-.06-2.08.31-.01.05 1.74.53-.02-.04-1.2.31-.01.04 1.2.6-.02-.05-1.81zM2.87 30.23c.03-.36.14-.63.35-.83.21-.19.47-.28.79-.26.29.02.53.15.71.39.16.22.24.48.21.78l-.1 1.36-2.05-.16.09-1.28zm1.75.04a.68.68 0 0 0-.16-.52.72.72 0 0 0-.49-.24c-.22-.02-.4.04-.55.17-.14.14-.22.32-.24.55l-.08.98 1.44.11.08-1.05zM4.56 26.15c.13.03.23.1.31.23.07.11.09.24.06.38s-.1.24-.21.32c-.12.08-.24.11-.37.08a.471.471 0 0 1-.31-.23.496.496 0 0 1-.06-.38c.03-.14.1-.25.21-.32.12-.08.24-.11.37-.08"/>
  </g>
  <g>
    <defs>
      <path id="SVGID_48_" d="M11 11.53h44.64V58H11z"/>
    </defs>
    <clipPath id="SVGID_11_">
      <use xlink:href="#SVGID_48_" overflow="visible"/>
    </clipPath>
  </g>
  <g>
    <defs>
      <path id="SVGID_55_" d="M11 11.53h44.64V58H11z"/>
    </defs>
    <clipPath id="SVGID_13_">
      <use xlink:href="#SVGID_55_" overflow="visible"/>
    </clipPath>
  </g>
  <g>
    <defs>
      <path id="SVGID_57_" d="M11 11.53h44.64V58H11z"/>
    </defs>
    <clipPath id="SVGID_15_">
      <use xlink:href="#SVGID_57_" overflow="visible"/>
    </clipPath>
  </g>
  <g>
    <defs>
      <path id="SVGID_64_" d="M11 11.53h44.64V58H11z"/>
    </defs>
    <clipPath id="SVGID_17_">
      <use xlink:href="#SVGID_64_" overflow="visible"/>
    </clipPath>
  </g>
</svg>