<svg id="Layer_1" xmlns="http://www.w3.org/2000/svg" xmlns:xlink="http://www.w3.org/1999/xlink" viewBox="0 0 65 65">
  <style>
    .st55{fill:#fff}.st56{font-family:&apos;Futura-CondensedLight&apos;}.st57{font-size:3.885px}
  </style>
  <defs>
    <path id="SVGID_20_" d="M14.03-164.17h37.58V-102H14.03z"/>
  </defs>
  <clipPath id="SVGID_2_">
    <use xlink:href="#SVGID_20_" overflow="visible"/>
  </clipPath>
  <defs>
    <path id="SVGID_30_" d="M14.06-164.15h37.55V-102H14.06z"/>
  </defs>
  <clipPath id="SVGID_3_">
    <use xlink:href="#SVGID_30_" overflow="visible"/>
  </clipPath>
  <path clip-path="url(#SVGID_3_)" fill="#fff" d="M14.17-32.58h38.21v53.71H14.17z"/>
  <path d="M52.51 21.27H14.03v-53.98h38.48v53.98zM14.3 21h37.94v-53.45H14.3V21z" clip-path="url(#SVGID_3_)"/>
  <g>
    <defs>
      <path id="SVGID_32_" d="M14.03-164.17h37.58V-102H14.03z"/>
    </defs>
    <clipPath id="SVGID_5_">
      <use xlink:href="#SVGID_32_" overflow="visible"/>
    </clipPath>
    <path d="M29.97 4.42c-.2 0-.37.13-.43.3l-.88 2.24-.08.25-.07-.26-.68-2.18c0-.01-.01-.02-.01-.02a.467.467 0 0 0-.44-.31h-1.1c-.25.01-.45.22-.45.47 0 .07.03.15.05.24l.14.45-.54 1.36-.08.25-.07-.25-.68-2.18c-.01-.01-.01-.02-.01-.02v-.01a.467.467 0 0 0-.44-.31h-1.1a.48.48 0 0 0-.45.47c0 .07.03.15.06.24l1.65 4.92c.05.2.24.35.45.35.21 0 .39-.14.44-.33l1.16-2.92.09-.26.07.26.97 2.9c.05.2.23.35.45.35.21 0 .39-.14.45-.34l1.96-4.99c.03-.06.05-.13.05-.2a.485.485 0 0 0-.48-.47M38.21 4.42c-.2 0-.37.13-.44.3l-.88 2.24-.08.25-.06-.26-.69-2.18v-.02a.477.477 0 0 0-.44-.31h-1.1c-.25.01-.44.22-.44.47 0 .07.03.15.05.24l.14.45-.54 1.36-.09.25-.07-.25-.68-2.18c-.01-.01-.01-.02-.01-.02v-.01a.454.454 0 0 0-.43-.31h-1.11c-.25.01-.45.22-.45.47 0 .07.03.15.05.24l1.66 4.92c.05.2.23.35.45.35.2 0 .38-.14.44-.33l1.16-2.92.08-.26.07.26.97 2.9c.05.2.23.35.45.35.21 0 .39-.14.45-.34l1.96-4.99c.03-.06.05-.13.05-.2a.483.483 0 0 0-.47-.47M43.56 4.43H39.7c-.22 0-.4.18-.4.4V9.96c.01.23.2.42.43.42h1.09a.44.44 0 0 0 .43-.43v-2.4l1.57-.01c.23 0 .42-.19.42-.42 0-.23-.19-.42-.43-.42h-1.56V5.33h2.33a.45.45 0 0 0 .43-.45c0-.25-.21-.45-.45-.45M43.73-13.39c-.08-.27-.22-.26-.21-.03.07 2.78-1.58 5.75-5.14 5.77-.91 0-.64 1.46-2.29.72-1.19-.8-1.88.78-2.73-.93-.18-.49-.46-.69-.83-.78-3.5-.87-4.62-5.69-1.53-9.59.61.36.84.42 1.49-.18.34-.31.91-.66 1.22-.78.74-.28 1.15-.6.5-2.02-.82-1.84-2.51-1.32-3.29-.68-.87.72-1.48 1.88-.36 3.24-3.14 2.12-3.68 4.72-3.61 6.98.07 2.41-.54 2.2.23 4.65.07.22-.08.21-.2.14-3.27-2.1-5.04-8.49.06-12.01.11-.1.07-.24-.35.01-4.42 2.34-4.82 6.86-4.09 9.91.37 1.5-.18 1.77.4 3.71 1.31 4.04 2.44 4.36 4.02 4.48 2.88 0 .93-1.59 1.03-3.58 0-.12.14-.17.22.07 1.59 3.56 2.71 6.79 6.87 6.49 2.41-.31 1.07-1.51.93-2.19-1.77-5.89 2.53-7.28 1.31-1.54-.8 3.29 1.74 2.96 3.53 1.78 1.85-1.22 4.16-9.23 2.82-13.64m-7.02 6.97c-.4 1.06-2.47.69-2.53-.33 0-.04.06-.03.08-.03.92.21 1.8.32 2.39.32.02 0 .07-.01.06.04M27.46.71a.77.77 0 0 1-1.54 0c0-.42.35-.77.77-.77.42.01.77.35.77.77m-.77-.92c-.51 0-.93.42-.93.92 0 .51.42.93.93.93a.926.926 0 0 0 0-1.85" clip-path="url(#SVGID_5_)" fill="#231f20"/>
    <path d="M26.95.86c-.02.11-.11.19-.24.19-.18 0-.29-.16-.29-.34 0-.19.1-.33.29-.33.12 0 .22.07.24.18h.13c-.02-.2-.18-.32-.37-.32-.28 0-.43.2-.43.46s.17.47.44.47c.19 0 .34-.12.38-.32h-.15zM43.71 2.92a.77.77 0 0 1-1.54 0c0-.42.35-.77.77-.77.42 0 .77.35.77.77M42.94 2c-.51 0-.92.41-.92.92s.41.92.92.92.92-.41.92-.92-.41-.92-.92-.92" clip-path="url(#SVGID_5_)" fill="#231f20"/>
    <path d="M42.78 2.98h.15l.23.38h.14l-.25-.39c.13-.02.23-.08.23-.24 0-.17-.1-.25-.31-.25h-.34v.87h.14v-.37m.01-.11V2.6h.18c.09 0 .19.02.19.13 0 .14-.1.14-.21.14h-.16z" clip-path="url(#SVGID_5_)" fill="#231f20"/>
    <path d="M16.64 18.66h33.28V-30.1H16.64v48.76zm32.61-.67H17.31v-47.48h31.95v47.48z" clip-path="url(#SVGID_5_)" fill="#231f20"/>
    <g clip-path="url(#SVGID_5_)">
      <text transform="translate(14.536 26.145)" class="st55 st56 st57">
        © 1986 Panda symbol
      </text>
    </g>
    <g clip-path="url(#SVGID_5_)">
      <text transform="translate(14.536 30.809)" class="st55 st56 st57">
        WWF-W
      </text>
    </g>
    <g clip-path="url(#SVGID_5_)">
      <text transform="translate(23.433 30.809)" class="st55 st56 st57">
        orld Wide Fund For Nature
      </text>
    </g>
    <g clip-path="url(#SVGID_5_)">
      <text transform="translate(14.536 35.47)" class="st55 st56 st57">
        (also known as W
      </text>
    </g>
    <g clip-path="url(#SVGID_5_)">
      <text transform="translate(34.696 35.47)" class="st55 st56 st57">
        orld Wildlife
      </text>
    </g>
    <g clip-path="url(#SVGID_5_)">
      <text transform="translate(14.536 40.13)" class="st55 st56 st57">
        Fund) ® “WWF” is a WWF
      </text>
    </g>
    <g clip-path="url(#SVGID_5_)">
      <text transform="translate(14.536 44.793)" class="st55 st56 st57">
        Registered
      </text>
    </g>
    <g clip-path="url(#SVGID_5_)">
      <text transform="translate(26.848 44.793)">
        <tspan x="0" y="0" class="st55 st56 st57">T</tspan><tspan x=".98" y="0" class="st55 st56 st57">r</tspan>
      </text>
    </g>
    <g clip-path="url(#SVGID_5_)">
      <text transform="translate(28.62 44.793)" class="st55 st56 st57">
        ademark
      </text>
    </g>
  </g>
  <g>
    <defs>
      <path id="SVGID_41_" d="M2.89 2H62v61.75H2.89z"/>
    </defs>
    <clipPath id="SVGID_7_">
      <use xlink:href="#SVGID_41_" overflow="visible"/>
    </clipPath>
    <path d="M32.25 11.93c-7.22 0-12.8 2.6-16.77 7.79-3.35 4.39-5.03 9.66-5.03 15.8 0 6.14 1.65 11.38 4.95 15.73 3.96 5.24 9.58 7.86 16.84 7.86 7.21 0 12.8-2.6 16.77-7.79 3.35-4.39 5.03-9.66 5.03-15.8 0-6.14-1.65-11.38-4.96-15.73-3.95-5.24-9.56-7.86-16.83-7.86" clip-path="url(#SVGID_7_)" fill="#fff"/>
    <path d="M32.24 12.98c-6.97 0-12.36 2.51-16.19 7.52-3.24 4.24-4.85 9.32-4.85 15.25s1.59 10.99 4.78 15.18c3.82 5.06 9.24 7.59 16.26 7.59 6.96 0 12.36-2.51 16.18-7.52 3.24-4.24 4.86-9.32 4.86-15.25s-1.59-10.99-4.78-15.18c-3.83-5.06-9.25-7.59-16.26-7.59m29.42 22.77c0 7.16-2.88 13.28-8.64 18.36-5.76 5.08-12.69 7.63-20.78 7.63-8.09 0-15.02-2.54-20.78-7.63-5.76-5.08-8.64-11.2-8.64-18.36s2.88-13.28 8.64-18.36c5.76-5.08 12.69-7.63 20.78-7.63 8.09 0 15.02 2.54 20.78 7.63 5.76 5.09 8.64 11.21 8.64 18.36" clip-path="url(#SVGID_7_)" fill="#71a850"/>
    <path d="M18.82 33.98c-1.13 0-2.01.44-2.63 1.32-.52.74-.79 1.63-.79 2.67s.26 1.92.78 2.66c.62.89 1.5 1.33 2.64 1.33 1.13 0 2-.44 2.62-1.32.53-.74.79-1.63.79-2.67s-.26-1.92-.78-2.65c-.62-.9-1.5-1.34-2.63-1.34m4.77 3.98c0 1.25-.47 2.32-1.4 3.21-.93.89-2.06 1.33-3.37 1.33s-2.44-.45-3.37-1.33c-.93-.89-1.4-1.96-1.4-3.21s.47-2.32 1.4-3.21c.94-.89 2.06-1.33 3.37-1.33s2.43.45 3.37 1.33c.93.89 1.4 1.96 1.4 3.21" clip-path="url(#SVGID_7_)" fill="#231f20"/>
    <path d="M25.43 38.3c.24-.29.5-.52.79-.7.36-.22.77-.33 1.2-.33.61 0 1.08.2 1.41.61.3.38.45.89.45 1.53v.91c0 .72.07 1.17.2 1.37.14.2.45.3.93.3v.3h-3.28v-.3c.47 0 .78-.1.92-.3.14-.2.21-.66.21-1.37v-.84c0-.49-.09-.86-.26-1.11-.2-.28-.51-.42-.92-.42-.42 0-.8.14-1.15.42-.34.28-.51.61-.51 1v.94c0 .74.06 1.2.17 1.39.11.19.39.28.85.28v.3h-3.16v-.3c.48 0 .78-.1.92-.3.14-.2.21-.65.21-1.36v-.71c0-.71-.07-1.17-.2-1.36-.14-.2-.45-.3-.93-.3v-.31l1.91-.37c.03.07.07.22.13.46.05.22.09.42.11.57M30.4 38.02h-.75v-.35c.4-.09.71-.28.91-.56.2-.29.32-.68.37-1.18h.49v1.58h1.24v.51h-1.24v2.88c0 .69.22 1.03.65 1.03.28 0 .59-.16.93-.48l.24.24c-.2.24-.44.44-.72.59-.28.15-.54.23-.79.23-.41 0-.73-.13-.96-.38-.25-.28-.37-.68-.37-1.23v-2.88z" clip-path="url(#SVGID_7_)" fill="#231f20"/>
    <path d="M35.92 41.13v-1.45c-.68.15-1.18.34-1.5.58-.32.23-.48.51-.48.83 0 .23.07.41.2.54.13.13.29.2.48.2.18 0 .35-.04.51-.12.22-.11.48-.3.79-.58m1.95.89c-.28.29-.59.44-.94.44-.29 0-.51-.07-.68-.22-.17-.15-.28-.36-.32-.63-.34.31-.65.53-.92.66s-.56.19-.85.19c-.37 0-.68-.11-.92-.32-.24-.21-.37-.5-.37-.88 0-.56.3-1.01.91-1.36.49-.28 1.21-.51 2.15-.68 0-.57-.06-.95-.17-1.15-.13-.23-.4-.35-.79-.35-.2 0-.39.06-.56.18-.18.12-.26.28-.26.5 0 .14-.05.26-.14.36a.494.494 0 0 1-.69 0 .506.506 0 0 1-.14-.36c0-.33.18-.6.55-.81.36-.22.79-.33 1.26-.33.69 0 1.19.15 1.5.46.31.31.46.81.46 1.49v2.18c0 .37.11.55.33.55.07 0 .14-.02.2-.06.06-.04.13-.1.19-.18l.2.32z" clip-path="url(#SVGID_7_)" fill="#231f20"/>
    <path d="M42.01 38.16c0 .18-.04.34-.13.47-.09.13-.23.2-.44.2a.47.47 0 0 1-.35-.15c-.1-.1-.15-.22-.15-.36 0-.32-.15-.48-.45-.48-.22 0-.45.14-.68.41-.29.33-.43.76-.43 1.28v.79c0 .72.07 1.17.2 1.37.13.2.44.3.93.3v.3h-3.28v-.3c.48 0 .79-.1.92-.3.14-.2.21-.66.21-1.37v-.72c0-.72-.07-1.18-.2-1.37-.14-.2-.45-.3-.93-.3v-.29l1.91-.35c.03.07.08.22.13.46.06.23.09.42.11.57.14-.28.36-.51.66-.72.29-.21.58-.31.86-.31.36 0 .64.1.86.31.16.15.25.34.25.56M44.28 35.21c0 .18-.06.32-.19.45-.12.12-.27.19-.45.19s-.32-.06-.44-.18a.61.61 0 0 1-.18-.45c0-.17.06-.32.18-.44.12-.13.27-.19.44-.19.18 0 .33.06.45.19.13.11.19.25.19.43m1.02 7.07h-3.28v-.3c.48 0 .79-.1.93-.3.14-.2.21-.66.21-1.37v-.72c0-.72-.07-1.18-.2-1.37-.13-.2-.34-.3-.82-.3v-.3l2.04-.36v3.05c0 .72.07 1.17.2 1.37.13.2.45.3.93.3v.3zM49.57 39.89c0-.61-.14-1.1-.42-1.46-.31-.4-.75-.61-1.31-.61s-.98.2-1.28.59c-.3.39-.45.89-.45 1.48 0 .61.14 1.1.42 1.46.31.41.75.61 1.31.61s.99-.2 1.28-.59c.3-.4.45-.89.45-1.48m1.16 0c0 .71-.28 1.33-.85 1.84-.56.52-1.24.78-2.04.78-.79 0-1.48-.25-2.04-.76s-.85-1.13-.85-1.86c0-.71.28-1.33.85-1.85.56-.52 1.25-.77 2.04-.77.8 0 1.48.25 2.04.76s.85 1.13.85 1.86M25.66 48.08c.59 0 1.04-.18 1.35-.53.32-.36.47-.81.47-1.36s-.15-1-.44-1.34c-.33-.37-.79-.56-1.38-.56H24.4v3.79h1.26zm.01-4.32c.97 0 1.73.23 2.29.71.53.44.79 1.01.79 1.72 0 .7-.26 1.27-.79 1.71-.56.47-1.33.71-2.29.71h-1.28v1.8c0 .72.08 1.18.24 1.37.16.2.54.3 1.13.3v.3h-3.88v-.3c.6 0 .98-.1 1.13-.29.16-.2.24-.65.24-1.38v-4.66c0-.72-.08-1.18-.24-1.38-.16-.2-.54-.3-1.13-.3v-.3h3.79zM32.26 49.98c0-.61-.14-1.1-.42-1.46-.31-.4-.75-.61-1.31-.61s-.98.2-1.28.59c-.3.39-.45.89-.45 1.48 0 .61.14 1.1.42 1.46.31.41.75.61 1.31.61s.99-.2 1.28-.59c.3-.39.45-.88.45-1.48m1.16 0c0 .71-.28 1.33-.85 1.84-.57.52-1.24.77-2.04.77-.79 0-1.48-.25-2.04-.76s-.85-1.13-.85-1.86c0-.71.28-1.33.85-1.85.56-.52 1.24-.77 2.04-.77s1.48.25 2.04.76c.56.52.85 1.14.85 1.87" clip-path="url(#SVGID_7_)" fill="#231f20"/>
    <path d="M38 48.26c0 .18-.04.34-.13.47-.09.13-.23.2-.44.2a.47.47 0 0 1-.35-.15c-.1-.1-.15-.22-.15-.36 0-.32-.15-.48-.45-.48-.22 0-.45.14-.68.41-.29.33-.43.76-.43 1.28v.79c0 .72.07 1.17.2 1.37.13.2.44.3.93.3v.3h-3.28v-.3c.48 0 .78-.1.92-.31.14-.2.21-.66.21-1.37v-.72c0-.72-.07-1.18-.2-1.37-.14-.2-.44-.3-.93-.3v-.29l1.91-.35c.03.07.08.22.13.46.06.23.09.42.11.57.14-.28.36-.51.66-.72.3-.2.58-.31.86-.31.36 0 .64.1.86.31.16.15.25.35.25.57" clip-path="url(#SVGID_7_)" fill="#231f20"/>
    <path d="M40.36 49.4l2.32 2.32c.1.1.24.19.41.25.17.06.31.1.42.1v.3h-1.59l-2.34-2.34-.13.11v.26c0 .72.07 1.18.2 1.37.13.2.45.3.93.3v.3H37.3v-.3c.48 0 .79-.1.93-.31.14-.2.21-.66.21-1.37v-4.55c0-.72-.07-1.17-.2-1.37-.14-.2-.45-.3-.93-.3v-.31l2.15-.37v6.12l1.2-.98c.17-.14.25-.27.25-.39 0-.23-.23-.35-.69-.35v-.3h2.88v.3c-.22.02-.4.05-.54.08-.41.1-.73.24-.97.42l-1.23 1.01z" clip-path="url(#SVGID_7_)" fill="#231f20"/>
    <path d="M28.52 31.98c-.08-.17-.14-.32-.23-.47-.35-.61-.73-1.22-1.06-1.84-.44-.84-.84-1.69-1.27-2.53-.15-.3-.33-.6-.48-.9-.31-.62-.61-1.24-.92-1.85-.02-.04-.06-.08-.09-.12-.36-.48-.82-.92-.85-1.52 0-.07-.1-.14-.15-.21-.07-.12-.2-.22-.35-.14-.09.04-.12.2-.12.31 0 .08.07.15.12.22.14.19.29.38.42.58.21.32.42.64.59.98.16.33.22.68.38 1.01.4.84.84 1.67 1.26 2.5.46.93.93 1.87 1.38 2.8.25.51.46 1.03.7 1.55.04.09.16.2.25.2s.24-.11.29-.19c.07-.12.09-.26.13-.38m-4.05-10.72c.05.09.13.18.1.21-.23.31-.06.59.07.86.15.31.37.61.55.91.36.61.73 1.22 1.08 1.83.13.22.19.46.31.69.19.36.42.71.6 1.08.32.62.62 1.25.91 1.89.27.58.51 1.16.77 1.74.04.08.15.18.26.2.14.03.7-.3.72-.42.03-.23.1-.48.01-.69-.24-.58-.55-1.15-.84-1.72-.53-1.04-1.06-2.09-1.59-3.13-.23-.45-.43-.92-.7-1.35-.39-.63-.83-1.25-1.25-1.87-.04-.05-.08-.11-.14-.12-.25-.04-.52-.07-.86-.11m8.03 5.79c.07-.05.15-.1.2-.16.04-.05 0-.13.05-.17.4-.31.4-.74.65-1.1.24-.34.53-.67.73-1.02.17-.29.25-.61.37-.92.01-.03 0-.09.03-.1.33-.16.26-.49.54-.68.11-.08.09-.26.17-.38.15-.24.33-.47.49-.7.13-.2.24-.42.38-.62.13-.18.16-.42.47-.52.07-.02.11-.14.14-.22.2-.49.48-.95.93-1.35.06-.05.15-.12.15-.18.01-.35.31-.59.55-.87.19-.23.31-.49.46-.74.07-.12.13-.25.22-.36.2-.27.51-.52.6-.8.1-.32.36-.55.55-.82.23-.33.41-.67.63-1 .17-.25.36-.48.55-.72.29-.37.57-.74.85-1.11.21-.27.4-.55.6-.83.31-.42.63-.83.91-1.26.39-.58.83-1.13 1.39-1.65.39-.36.75-.71 1.26-1 .34-.19.53-.54.8-.81.26-.26.54-.51.8-.77.15-.15.25-.33.38-.49.07-.08.14-.16.22-.24.19-.2.36-.4.57-.59.15-.14.34-.25.5-.37.27-.2.63-.37.8-.61.3-.43.78-.74 1.16-1.12.16-.15.3-.31.47-.46.12-.11.27-.2.41-.29l.09.03c-.13.2-.25.4-.39.59-.05.07-.14.14-.21.2-.62.54-1.09 1.14-1.53 1.76-.05.08-.13.14-.19.21-.22.25-.44.51-.65.77-.21.26-.41.52-.61.78-.07.1-.13.21-.19.31.03.02.06.03.09.05.09-.07.19-.13.27-.21.21-.23.42-.46.61-.7.24-.3.46-.62.7-.92.19-.23.4-.45.61-.68.15-.16.3-.31.48-.45-.12.32-.16.62-.49.91-.34.3-.5.71-.74 1.08-.07.11-.15.21-.22.32-.06.1-.12.2-.13.32.79-.66 1.26-1.46 1.9-2.17-.03.19-.01.41-.1.6-.12.24-.35.45-.51.68-.24.32-.46.64-.71.98.48.09.56-.25.82-.36-.13.39-.39.74-.69 1.07-.04.05-.12.11-.11.15.09.35-.39.56-.41.88 0 .03-.04.07-.08.09-.36.12-.41.38-.57.6-.41.6-.84 1.19-1.26 1.79-.06.08-.11.18-.09.26.09.44-.21.77-.55 1.1-.04.04-.11.1-.1.11.19.21-.1.33-.19.47-.35.58-.71 1.16-1.07 1.73-.03.05-.04.14-.09.16-.39.14-.25.4-.28.62-.15.06-.31.12-.4.15-.04.2-.07.36-.09.51-.01.08 0 .17.05.23.15.18.06.34-.11.49-.32-.15-.41.12-.56.22-.18.12-.3.3-.4.47-.1.17-.15.36-.23.58.13-.04.23-.07.37-.12-.06.15-.08.31-.17.42-.62.71-1.05 1.49-1.56 2.24-.36.53-.71 1.05-1.06 1.58-.48.24-.55.67-.85.99-.11.12-.21.26.02.38-.43.1-.44.41-.58.64-.17.27-.29.55-.54.8-.14.14-.15.34-.25.51-.14.23-.31.45-.47.66-.09.12-.12.22.08.3-.35.14-.54.36-.66.63-.07.16-.2.3-.29.45-.6 1.05-1.2 2.09-1.8 3.14-.1.17-.17.37-.51.38-.07 0-.18.12-.23.2-.23.4-.44.81-.67 1.21-.06.11-.12.23-.21.33-.3.33-.75.38-1.11.13-.16-.11-.26-.11-.43 0-.24.16-.5.29-.75.45-.07.04-.1.11-.15.17.3.11.4-.09.59-.21.05.17-.11.24-.23.29-.22.1-.26.22-.11.45-.39-.07-.73-.05-.9-.31-.1-.16-.24-.11-.38-.04-.17.1-.31.21-.48.33.07.08.13.16.22.27-.54.09-.92-.03-1.2-.31-.09-.09-.21-.16-.29-.25-.18-.21-.4-.14-.69-.05.1.08.17.13.26.21l-.81.65c-.14-.15-.27-.25-.33-.37-.24-.47-.46-.96-.69-1.43l-2.04-4.14c-.4-.81-.82-1.62-1.22-2.42-.29-.57-.56-1.15-.84-1.72a.323.323 0 0 0-.12-.14c-.36-.24-.47-.58-.64-.91-.15-.29-.28-.6-.45-.89-.05-.08-.2-.13-.32-.16-.16-.05-.33-.08-.31-.23.22-.12.43-.23.62-.35.15-.1.3-.13.47-.07.1.03.2.07.3.09.13.02.26.01.39.01.01-.11.02-.22.02-.33 0-.04-.05-.08-.09-.12-.29-.23-.31-.49-.14-.79.03-.05.05-.11.08-.18.32.04.58.14.75.36.24.31.66.43 1.09.53.18.04.31.01.32-.16 0-.05-.01-.12.02-.13.38-.19.19-.39.07-.59a.87.87 0 0 1-.1-.19c-.06-.16-.21-.34.01-.49.23-.15.51-.26.82-.16.08.03.18.04.26.06.37.07.59.03.76-.16.25-.26.26-.41.03-.69.09-.06.16-.14.27-.18.35-.15.69-.3 1.05-.42.14-.05.42-.16.37.15-.01.06.28.15.45.23-.1.12-.18.2-.23.28-.05.07-.11.22-.08.23.26.11.06.24-.08.38.24.04.4.06.56.09.07.19.2.38-.14.54-.05.02-.06.11-.07.16-.01.06-.1.42-.13.46.04.01.08.03.11.03.04.01.08.01.15.02-.08.07-.15.13-.21.19.21.12.02.27.02.4 0 .17.1.34.18.5.03.08.13.14.15.21.17.87.69 1.64 1.05 2.45.15.35.36.69.54 1.03.03.06.06.13.06.2 0 .26.19.43.43.55.64-.13.74-.55.95-.9.27-.46.51-.94.77-1.4.31-.54.62-1.08.95-1.61.33-.53.69-1.06 1.04-1.59.25-.39.49-.77.76-1.16.11-.16.27-.3.38-.46.3-.42.57-.85.86-1.28.13.04.19.2.31.04.14-.18.28-.35.41-.54.81-1.11 1.61-2.22 2.42-3.33.16-.22.45-.39.41-.67 0-.04.06-.08.1-.12.27-.26.55-.53.88-.84-.11.19-.17.34-.27.48-.29.39-.6.77-.91 1.16-.02.03-.06.07-.05.1.09.29-.23.49-.36.72-.17.3-.45.58-.68.87-.03.04-.03.08-.05.12-.05.11-.07.24-.15.32-.39.39-.57.83-.78 1.27-.1.21-.28.4-.42.6-.23.32-.46.63-.68.95-.38.53-.76 1.06-1.11 1.6-.46.7-.87 1.41-1.34 2.1-.48.71-.86 1.45-1.24 2.19-.17.33-.42.65-.6.97-.21.38-.4.76-.59 1.14-.04.08-.05.17-.07.26.03-.01.06 0 .08.01" clip-path="url(#SVGID_7_)" fill-rule="evenodd" clip-rule="evenodd" fill="#a2a9ad"/>
  </g>
</svg>